SplineFontDB: 3.0
FontName: OxygenSans-Regular
FullName: OxygenSans Regular
FamilyName: OxygenSans
Weight: Book
Copyright: Copyright (c) 2011-12 by vernon adams. All rights reserved.
Version: Release 0.2.3
ItalicAngle: 0
UnderlinePosition: -22
UnderlineWidth: 0
Ascent: 1638
Descent: 410
sfntRevision: 0x00003333
LayerCount: 2
Layer: 0 1 "Back"  1
Layer: 1 1 "Fore"  0
XUID: [1021 14 500265001 7487612]
FSType: 1
OS2Version: 1
OS2_WeightWidthSlopeOnly: 0
OS2_UseTypoMetrics: 1
CreationTime: 1353012877
ModificationTime: 1353013180
PfmFamily: 17
TTFWeight: 400
TTFWidth: 5
LineGap: 0
VLineGap: 0
Panose: 2 0 5 3 0 0 0 0 0 0
OS2TypoAscent: 397
OS2TypoAOffset: 1
OS2TypoDescent: -262
OS2TypoDOffset: 1
OS2TypoLinegap: 0
OS2WinAscent: -188
OS2WinAOffset: 1
OS2WinDescent: 60
OS2WinDOffset: 1
HheadAscent: -188
HheadAOffset: 1
HheadDescent: -60
HheadDOffset: 1
OS2SubXSize: 1331
OS2SubYSize: 1433
OS2SubXOff: 0
OS2SubYOff: 286
OS2SupXSize: 1331
OS2SupYSize: 1433
OS2SupXOff: 0
OS2SupYOff: 983
OS2StrikeYSize: 102
OS2StrikeYPos: 530
OS2Vendor: 'newt'
OS2CodePages: 0000009f.00000001
OS2UnicodeRanges: 000004ff.0000404f.00000002.00000000
MarkAttachClasses: 1
DEI: 91125
ShortTable: maxp 16
  1
  0
  677
  689
  48
  82
  5
  2
  0
  1
  1
  0
  64
  0
  2
  2
EndShort
LangName: 1033 "" "" "" "vernon adams : OxygenSans Regular : 5-11-2012" "" "Version Release 0.2.3" "" "Oxygen Sans is a trademark of vernon adams." "vernon adams" "vernon adams" "Copyright (c) 2011-12 by vernon adams. All rights reserved." "newtypography.co.uk" "newtypography.co.uk" "Copyright (c) 2011-12, Vernon Adams (vern@newtypography.co.uk),+AAoA-with Reserved Font Name Oxygen+AAoA-This Font Software is licensed under the SIL Open Font License, Version 1.1.+AAoA-This license is copied below, and is also available with a FAQ at:+AAoA-http://scripts.sil.org/OFL" "http://scripts.sil.org/OFL" 
GaspTable: 1 65535 2 0
Encoding: UnicodeBmp
UnicodeInterp: none
NameList: Adobe Glyph List
DisplaySize: -48
AntiAlias: 1
FitToEm: 1

StartChar: .notdef
Encoding: 65536 -1 0
Width: 931
Flags: W
LayerCount: 2
Fore
SplineSet
93 0 m 1,0,-1
 93 994 l 1,1,-1
 839 994 l 1,2,-1
 839 0 l 1,3,-1
 93 0 l 1,0,-1
186 93 m 1,4,-1
 746 93 l 1,5,-1
 746 901 l 1,6,-1
 186 901 l 1,7,-1
 186 93 l 1,4,-1
EndSplineSet
EndChar

StartChar: exclam
Encoding: 33 33 4
Width: 557
GlyphClass: 2
Flags: W
LayerCount: 2
Fore
SplineSet
368 1232 m 1,0,-1
 317 396 l 1,1,-1
 245 396 l 1,2,-1
 189 1232 l 1,3,-1
 189 1390 l 1,4,-1
 368 1390 l 1,5,-1
 368 1232 l 1,0,-1
279 -11 m 128,-1,7
 222 -11 222 -11 190 24.5 c 128,-1,8
 158 60 158 60 158 109 c 128,-1,9
 158 158 158 158 190 193.5 c 128,-1,10
 222 229 222 229 279 229 c 128,-1,11
 336 229 336 229 368 193.5 c 128,-1,12
 400 158 400 158 400 109 c 128,-1,13
 400 60 400 60 368 24.5 c 128,-1,6
 336 -11 336 -11 279 -11 c 128,-1,7
EndSplineSet
EndChar

StartChar: quotedbl
Encoding: 34 34 5
Width: 610
GlyphClass: 2
Flags: W
LayerCount: 2
Fore
SplineSet
126 925 m 1,0,-1
 106 1374 l 1,1,-1
 244 1374 l 1,2,-1
 217 925 l 1,3,-1
 126 925 l 1,0,-1
386 925 m 1,4,-1
 367 1374 l 1,5,-1
 504 1374 l 1,6,-1
 478 925 l 1,7,-1
 386 925 l 1,4,-1
EndSplineSet
EndChar

StartChar: numbersign
Encoding: 35 35 6
Width: 1079
GlyphClass: 2
Flags: W
LayerCount: 2
Fore
SplineSet
286 488 m 1,0,-1
 341 846 l 1,1,-1
 180 846 l 1,2,-1
 188 960 l 1,3,-1
 364 960 l 1,4,-1
 440 1330 l 1,5,-1
 579 1330 l 1,6,-1
 507 960 l 1,7,-1
 720 960 l 1,8,-1
 784 1330 l 1,9,-1
 901 1330 l 1,10,-1
 841 960 l 1,11,-1
 966 960 l 1,12,-1
 954 847 l 1,13,-1
 820 847 l 1,14,-1
 759 488 l 1,15,-1
 893 488 l 1,16,-1
 884 373 l 1,17,-1
 743 373 l 1,18,-1
 664 -21 l 1,19,-1
 527 -21 l 1,20,-1
 603 373 l 1,21,-1
 389 373 l 1,22,-1
 317 -21 l 1,23,-1
 199 -21 l 1,24,-1
 266 373 l 1,25,-1
 110 373 l 1,26,-1
 119 488 l 1,27,-1
 286 488 l 1,0,-1
411 488 m 1,28,-1
 626 488 l 1,29,-1
 698 847 l 1,30,-1
 484 847 l 1,31,-1
 411 488 l 1,28,-1
EndSplineSet
EndChar

StartChar: dollar
Encoding: 36 36 7
Width: 1166
GlyphClass: 2
Flags: W
LayerCount: 2
Fore
SplineSet
632 -177 m 1,0,-1
 546 -177 l 1,1,-1
 546 -19 l 1,2,3
 425 -14 425 -14 310.5 18.5 c 128,-1,4
 196 51 196 51 131 91 c 1,5,-1
 178 222 l 1,6,7
 248 187 248 187 293 169 c 128,-1,8
 338 151 338 151 417 135 c 128,-1,9
 496 119 496 119 589 119 c 0,10,11
 738 119 738 119 796 189 c 128,-1,12
 854 259 854 259 854 398 c 0,13,14
 854 479 854 479 796 534 c 128,-1,15
 738 589 738 589 611 633 c 2,16,-1
 447 690 l 1,17,18
 297 740 297 740 215 819.5 c 128,-1,19
 133 899 133 899 133 1026 c 0,20,21
 133 1117 133 1117 164.5 1188.5 c 128,-1,22
 196 1260 196 1260 253 1306 c 128,-1,23
 310 1352 310 1352 383.5 1377.5 c 128,-1,24
 457 1403 457 1403 546 1408 c 1,25,-1
 546 1584 l 1,26,-1
 632 1584 l 1,27,-1
 632 1408 l 1,28,29
 719 1404 719 1404 811.5 1381.5 c 128,-1,30
 904 1359 904 1359 964 1321 c 1,31,-1
 918 1198 l 1,32,33
 847 1232 847 1232 771 1249.5 c 128,-1,34
 695 1267 695 1267 576 1270 c 1,35,36
 450 1270 450 1270 375 1206 c 128,-1,37
 300 1142 300 1142 300 1037 c 0,38,39
 300 961 300 961 352 913.5 c 128,-1,40
 404 866 404 866 506 833 c 1,41,-1
 658 782 l 2,42,43
 741 754 741 754 800 725 c 128,-1,44
 859 696 859 696 912.5 652 c 128,-1,45
 966 608 966 608 993.5 545.5 c 128,-1,46
 1021 483 1021 483 1021 403 c 0,47,48
 1021 205 1021 205 922 99 c 128,-1,49
 823 -7 823 -7 632 -18 c 1,50,-1
 632 -177 l 1,0,-1
EndSplineSet
EndChar

StartChar: percent
Encoding: 37 37 8
Width: 1657
GlyphClass: 2
Flags: W
LayerCount: 2
Fore
SplineSet
352 768 m 128,-1,1
 435 768 435 768 480.5 836 c 128,-1,2
 526 904 526 904 526 1005 c 0,3,4
 526 1110 526 1110 479.5 1182 c 128,-1,5
 433 1254 433 1254 352 1254 c 0,6,7
 270 1254 270 1254 224.5 1181 c 128,-1,8
 179 1108 179 1108 179 1005 c 0,9,10
 179 900 179 900 224 834 c 128,-1,0
 269 768 269 768 352 768 c 128,-1,1
352 662 m 128,-1,12
 221 662 221 662 142.5 758.5 c 128,-1,13
 64 855 64 855 64 1005 c 0,14,15
 64 1157 64 1157 143 1256 c 128,-1,16
 222 1355 222 1355 352 1355 c 0,17,18
 484 1355 484 1355 563.5 1256.5 c 128,-1,19
 643 1158 643 1158 643 1005 c 0,20,21
 643 855 643 855 563 758.5 c 128,-1,11
 483 662 483 662 352 662 c 128,-1,12
335 -4 m 1,22,-1
 1058 1330 l 1,23,-1
 1206 1330 l 1,24,-1
 458 -4 l 1,25,-1
 335 -4 l 1,22,-1
1272 89 m 128,-1,27
 1369 89 1369 89 1423.5 161 c 128,-1,28
 1478 233 1478 233 1478 336 c 0,29,30
 1478 441 1478 441 1423.5 511.5 c 128,-1,31
 1369 582 1369 582 1272 582 c 128,-1,32
 1175 582 1175 582 1121 510.5 c 128,-1,33
 1067 439 1067 439 1067 336 c 0,34,35
 1067 231 1067 231 1121 160 c 128,-1,26
 1175 89 1175 89 1272 89 c 128,-1,27
1272 -14 m 0,36,37
 1120 -14 1120 -14 1036 84 c 128,-1,38
 952 182 952 182 952 336 c 128,-1,39
 952 490 952 490 1036.5 588 c 128,-1,40
 1121 686 1121 686 1272 686 c 0,41,42
 1426 686 1426 686 1509.5 589 c 128,-1,43
 1593 492 1593 492 1593 336 c 0,44,45
 1593 183 1593 183 1508 84.5 c 128,-1,46
 1423 -14 1423 -14 1272 -14 c 0,36,37
EndSplineSet
EndChar

StartChar: ampersand
Encoding: 38 38 9
Width: 1258
GlyphClass: 2
Flags: W
LayerCount: 2
Fore
SplineSet
528 -21 m 0,0,1
 298 -21 298 -21 178 79.5 c 128,-1,2
 58 180 58 180 58 359 c 0,3,4
 58 621 58 621 374 781 c 1,5,6
 207 964 207 964 207 1115 c 0,7,8
 207 1251 207 1251 303.5 1332 c 128,-1,9
 400 1413 400 1413 561 1413 c 0,10,11
 710 1413 710 1413 812.5 1339 c 128,-1,12
 915 1265 915 1265 915 1131 c 0,13,14
 915 1016 915 1016 825.5 912.5 c 128,-1,15
 736 809 736 809 600 746 c 1,16,-1
 966 337 l 1,17,18
 1046 422 1046 422 1101 545 c 1,19,-1
 1211 461 l 1,20,21
 1156 339 1156 339 1063 230 c 1,22,-1
 1251 27 l 1,23,-1
 1108 -20 l 1,24,-1
 965 130 l 1,25,26
 777 -21 777 -21 528 -21 c 0,0,1
536 120 m 0,27,28
 714 120 714 120 860 236 c 1,29,30
 792 308 792 308 659.5 458.5 c 128,-1,31
 527 609 527 609 459 681 c 1,32,33
 349 625 349 625 284 545.5 c 128,-1,34
 219 466 219 466 219 369 c 0,35,36
 219 252 219 252 303 186 c 128,-1,37
 387 120 387 120 536 120 c 0,27,28
515 838 m 1,38,39
 613 886 613 886 678.5 965 c 128,-1,40
 744 1044 744 1044 744 1127 c 0,41,42
 744 1203 744 1203 692 1245.5 c 128,-1,43
 640 1288 640 1288 564 1288 c 0,44,45
 479 1288 479 1288 424 1243 c 128,-1,46
 369 1198 369 1198 369 1121 c 0,47,48
 369 1056 369 1056 411 977 c 128,-1,49
 453 898 453 898 515 838 c 1,38,39
EndSplineSet
EndChar

StartChar: quotesingle
Encoding: 39 39 10
Width: 364
GlyphClass: 2
Flags: W
LayerCount: 2
Fore
SplineSet
142 885 m 1,0,-1
 95 1390 l 1,1,-1
 269 1390 l 1,2,-1
 227 885 l 1,3,-1
 142 885 l 1,0,-1
EndSplineSet
EndChar

StartChar: parenleft
Encoding: 40 40 11
Width: 595
GlyphClass: 2
Flags: W
LayerCount: 2
Fore
SplineSet
508 -191 m 1,0,1
 369 -191 l 1,2,3
 251 -28 251 -28 184.5 176.5 c 128,-1,4
 118 381 118 381 118 600 c 0,5,6
 118 1046 118 1046 367 1408 c 1,7,-1
 508 1408 l 1,8,9
 273 1042 273 1042 273 604 c 0,10,11
 273 399 273 399 335 189.5 c 128,-1,12
 397 -20 397 -20 508 -191 c 1,0,1
EndSplineSet
EndChar

StartChar: parenright
Encoding: 41 41 12
Width: 598
GlyphClass: 2
Flags: W
LayerCount: 2
Fore
SplineSet
228 -191 m 1,0,1
 89 -191 l 1,2,3
 200 -20 200 -20 262 189.5 c 128,-1,4
 324 399 324 399 324 604 c 0,5,6
 324 1041 324 1041 88 1408 c 1,7,-1
 229 1408 l 1,8,9
 479 1041 479 1041 479 600 c 0,10,11
 479 381 479 381 412.5 176.5 c 128,-1,12
 346 -28 346 -28 228 -191 c 1,0,1
EndSplineSet
EndChar

StartChar: asterisk
Encoding: 42 42 13
Width: 1055
GlyphClass: 2
Flags: W
LayerCount: 2
Fore
SplineSet
148 1148 m 1,0,-1
 473 1011 l 1,1,-1
 440 1385 l 1,2,-1
 609 1385 l 1,3,-1
 576 1011 l 1,4,-1
 903 1148 l 1,5,-1
 948 993 l 1,6,-1
 614 917 l 1,7,8
 629 897 629 897 715.5 783.5 c 128,-1,9
 802 670 802 670 844 614 c 1,10,11
 821 599 821 599 773.5 571.5 c 128,-1,12
 726 544 726 544 703 529 c 1,13,-1
 521 858 l 1,14,-1
 349 529 l 1,15,-1
 207 614 l 1,16,-1
 433 917 l 1,17,-1
 103 993 l 1,18,-1
 148 1148 l 1,0,-1
EndSplineSet
EndChar

StartChar: plus
Encoding: 43 43 14
Width: 1052
GlyphClass: 2
Flags: W
LayerCount: 2
Fore
SplineSet
465 653 m 1,0,-1
 465 1039 l 1,1,-1
 590 1039 l 1,2,-1
 590 653 l 1,3,-1
 945 653 l 1,4,-1
 945 530 l 1,5,-1
 589 530 l 1,6,-1
 589 139 l 1,7,-1
 464 139 l 1,8,-1
 464 530 l 1,9,-1
 103 530 l 1,10,-1
 103 653 l 1,11,-1
 465 653 l 1,0,-1
EndSplineSet
EndChar

StartChar: comma
Encoding: 44 44 15
Width: 436
GlyphClass: 2
Flags: W
LayerCount: 2
Fore
SplineSet
196 -253 m 1,0,1
 100 -253 l 1,2,3
 143 135 143 135 147 213 c 1,4,5
 327 213 l 1,6,-1
 327 173 l 1,7,8
 283 -3 283 -3 196 -253 c 1,0,1
EndSplineSet
EndChar

StartChar: hyphen
Encoding: 45 45 16
Width: 812
GlyphClass: 2
Flags: W
LayerCount: 2
Fore
SplineSet
127 452 m 1,0,-1
 127 586 l 1,1,-1
 685 586 l 1,2,-1
 685 452 l 1,3,-1
 127 452 l 1,0,-1
EndSplineSet
EndChar

StartChar: period
Encoding: 46 46 17
Width: 478
GlyphClass: 2
Flags: W
LayerCount: 2
Fore
SplineSet
239 -11 m 128,-1,1
 182 -11 182 -11 150 24.5 c 128,-1,2
 118 60 118 60 118 109 c 128,-1,3
 118 158 118 158 150 193.5 c 128,-1,4
 182 229 182 229 239 229 c 128,-1,5
 296 229 296 229 328 193.5 c 128,-1,6
 360 158 360 158 360 109 c 128,-1,7
 360 60 360 60 328 24.5 c 128,-1,0
 296 -11 296 -11 239 -11 c 128,-1,1
EndSplineSet
EndChar

StartChar: slash
Encoding: 47 47 18
Width: 898
GlyphClass: 2
Flags: W
LayerCount: 2
Fore
SplineSet
68 -198 m 1,0,-1
 683 1334 l 1,1,-1
 816 1334 l 1,2,-1
 199 -198 l 1,3,-1
 68 -198 l 1,0,-1
EndSplineSet
EndChar

StartChar: zero
Encoding: 48 48 19
Width: 1145
GlyphClass: 2
Flags: W
LayerCount: 2
Fore
SplineSet
576 120 m 0,0,1
 718 120 718 120 790.5 261 c 128,-1,2
 863 402 863 402 863 680 c 0,3,4
 863 1228 863 1228 576 1228 c 0,5,6
 434 1228 434 1228 358 1086.5 c 128,-1,7
 282 945 282 945 282 680 c 0,8,9
 282 404 282 404 357.5 262 c 128,-1,10
 433 120 433 120 576 120 c 0,0,1
576 -18 m 0,11,12
 479 -18 479 -18 400.5 16 c 128,-1,13
 322 50 322 50 267.5 110.5 c 128,-1,14
 213 171 213 171 177 258 c 128,-1,15
 141 345 141 345 124 448.5 c 128,-1,16
 107 552 107 552 107 674 c 0,17,18
 107 997 107 997 225.5 1181.5 c 128,-1,19
 344 1366 344 1366 576 1366 c 0,20,21
 732 1366 732 1366 836.5 1279 c 128,-1,22
 941 1192 941 1192 989.5 1039.5 c 128,-1,23
 1038 887 1038 887 1038 674 c 0,24,25
 1038 520 1038 520 1012 396.5 c 128,-1,26
 986 273 986 273 932 179 c 128,-1,27
 878 85 878 85 787.5 33.5 c 128,-1,28
 697 -18 697 -18 576 -18 c 0,11,12
EndSplineSet
EndChar

StartChar: one
Encoding: 49 49 20
Width: 975
GlyphClass: 2
Flags: W
LayerCount: 2
Fore
SplineSet
870 0 m 1,0,-1
 144 0 l 1,1,-1
 144 140 l 1,2,-1
 449 140 l 1,3,-1
 449 1193 l 1,4,5
 393 1157 393 1157 317.5 1130.5 c 128,-1,6
 242 1104 242 1104 173 1100 c 1,7,-1
 173 1242 l 1,8,9
 231 1246 231 1246 319.5 1283.5 c 128,-1,10
 408 1321 408 1321 465 1361 c 1,11,-1
 610 1361 l 1,12,-1
 610 140 l 1,13,-1
 870 140 l 1,14,-1
 870 0 l 1,0,-1
EndSplineSet
EndChar

StartChar: two
Encoding: 50 50 21
Width: 1036
GlyphClass: 2
Flags: W
LayerCount: 2
Fore
SplineSet
108 0 m 1,0,-1
 88 149 l 1,1,-1
 560 648 l 2,2,3
 656 750 656 750 695.5 818 c 128,-1,4
 735 886 735 886 735 985 c 0,5,6
 735 1098 735 1098 672 1160.5 c 128,-1,7
 609 1223 609 1223 493 1223 c 0,8,9
 403 1223 403 1223 324.5 1198 c 128,-1,10
 246 1173 246 1173 159 1111 c 1,11,-1
 107 1247 l 1,12,13
 190 1307 190 1307 281 1336.5 c 128,-1,14
 372 1366 372 1366 498 1366 c 0,15,16
 684 1366 684 1366 797 1265 c 128,-1,17
 910 1164 910 1164 910 996 c 0,18,19
 910 928 910 928 894.5 870 c 128,-1,20
 879 812 879 812 842.5 754.5 c 128,-1,21
 806 697 806 697 768 652 c 128,-1,22
 730 607 730 607 664 539 c 2,23,-1
 280 140 l 1,24,-1
 915 140 l 1,25,-1
 905 0 l 1,26,-1
 108 0 l 1,0,-1
EndSplineSet
EndChar

StartChar: three
Encoding: 51 51 22
Width: 1105
GlyphClass: 2
Flags: W
LayerCount: 2
Fore
SplineSet
800 371 m 0,0,1
 800 438 800 438 778.5 487.5 c 128,-1,2
 757 537 757 537 722 567 c 128,-1,3
 687 597 687 597 631.5 615 c 128,-1,4
 576 633 576 633 520 639.5 c 128,-1,5
 464 646 464 646 388 648 c 1,6,-1
 344 648 l 1,7,-1
 344 784 l 1,8,-1
 389 784 l 1,9,10
 453 786 453 786 501 791.5 c 128,-1,11
 549 797 549 797 598.5 812 c 128,-1,12
 648 827 648 827 679.5 852 c 128,-1,13
 711 877 711 877 731 919.5 c 128,-1,14
 751 962 751 962 751 1020 c 0,15,16
 751 1130 751 1130 688.5 1179 c 128,-1,17
 626 1228 626 1228 501 1228 c 0,18,19
 320 1228 320 1228 196 1130 c 1,20,-1
 145 1263 l 1,21,22
 281 1366 281 1366 536 1366 c 0,23,24
 640 1366 640 1366 726.5 1331 c 128,-1,25
 813 1296 813 1296 869.5 1220.5 c 128,-1,26
 926 1145 926 1145 926 1041 c 0,27,28
 926 791 926 791 687 716 c 1,29,30
 815 688 815 688 887 599 c 128,-1,31
 959 510 959 510 959 369 c 0,32,33
 959 190 959 190 831 86 c 128,-1,34
 703 -18 703 -18 501 -18 c 0,35,36
 378 -18 378 -18 283.5 13 c 128,-1,37
 189 44 189 44 145 85 c 1,38,-1
 196 218 l 1,39,40
 319 120 319 120 502 120 c 0,41,42
 639 120 639 120 719.5 184.5 c 128,-1,43
 800 249 800 249 800 371 c 0,0,1
EndSplineSet
EndChar

StartChar: four
Encoding: 52 52 23
Width: 1138
GlyphClass: 2
Flags: W
LayerCount: 2
Fore
SplineSet
715 1361 m 1,0,-1
 885 1361 l 1,1,-1
 885 470 l 1,2,-1
 1052 470 l 1,3,-1
 1040 338 l 1,4,-1
 885 338 l 1,5,-1
 885 0 l 1,6,-1
 732 0 l 1,7,-1
 732 338 l 1,8,-1
 117 338 l 1,9,-1
 117 477 l 1,10,-1
 715 1361 l 1,0,-1
732 470 m 1,11,-1
 732 1155 l 1,12,-1
 277 470 l 1,13,-1
 732 470 l 1,11,-1
EndSplineSet
EndChar

StartChar: five
Encoding: 53 53 24
Width: 1043
GlyphClass: 2
Flags: W
LayerCount: 2
Fore
SplineSet
474 -21 m 0,0,1
 246 -21 246 -21 109 104 c 1,2,-1
 168 232 l 1,3,4
 302 126 302 126 480 126 c 0,5,6
 628 126 628 126 710 210.5 c 128,-1,7
 792 295 792 295 792 432 c 0,8,9
 792 554 792 554 719 630 c 128,-1,10
 646 706 646 706 512 706 c 0,11,12
 376 706 376 706 295 616 c 1,13,-1
 169 633 l 1,14,-1
 204 1361 l 1,15,-1
 902 1361 l 1,16,-1
 889 1212 l 1,17,-1
 333 1212 l 1,18,19
 333 1208 333 1208 320 784 c 1,20,21
 423 849 423 849 543 849 c 0,22,23
 742 849 742 849 849.5 732.5 c 128,-1,24
 957 616 957 616 957 434 c 0,25,26
 957 227 957 227 829 103 c 128,-1,27
 701 -21 701 -21 474 -21 c 0,0,1
EndSplineSet
EndChar

StartChar: six
Encoding: 54 54 25
Width: 1172
GlyphClass: 2
Flags: W
LayerCount: 2
Fore
SplineSet
585 -18 m 0,0,1
 444 -18 444 -18 339.5 44 c 128,-1,2
 235 106 235 106 183.5 207 c 128,-1,3
 132 308 132 308 132 433 c 0,4,5
 132 581 132 581 186.5 698 c 128,-1,6
 241 815 241 815 383 994 c 0,7,8
 460 1092 460 1092 678 1346 c 1,9,-1
 886 1346 l 1,10,-1
 404 776 l 1,11,12
 453 802 453 802 516.5 821.5 c 128,-1,13
 580 841 580 841 631 841 c 0,14,15
 805 841 805 841 922.5 719.5 c 128,-1,16
 1040 598 1040 598 1040 412 c 128,-1,17
 1040 226 1040 226 915 104 c 128,-1,18
 790 -18 790 -18 585 -18 c 0,0,1
580 120 m 128,-1,20
 715 120 715 120 791.5 203 c 128,-1,21
 868 286 868 286 868 409 c 0,22,23
 868 540 868 540 797.5 622.5 c 128,-1,24
 727 705 727 705 594 705 c 0,25,26
 449 705 449 705 369.5 622 c 128,-1,27
 290 539 290 539 290 415 c 128,-1,28
 290 291 290 291 367.5 205.5 c 128,-1,19
 445 120 445 120 580 120 c 128,-1,20
EndSplineSet
EndChar

StartChar: seven
Encoding: 55 55 26
Width: 984
GlyphClass: 2
Flags: W
LayerCount: 2
Fore
SplineSet
888 1361 m 1,0,-1
 888 1238 l 1,1,-1
 401 0 l 1,2,-1
 236 0 l 1,3,-1
 703 1220 l 1,4,-1
 119 1220 l 1,5,-1
 109 1361 l 1,6,-1
 888 1361 l 1,0,-1
EndSplineSet
EndChar

StartChar: eight
Encoding: 56 56 27
Width: 1157
GlyphClass: 2
Flags: W
LayerCount: 2
Fore
SplineSet
578 -18 m 0,0,1
 455 -18 455 -18 355.5 22.5 c 128,-1,2
 256 63 256 63 195 147 c 128,-1,3
 134 231 134 231 134 347 c 0,4,5
 134 476 134 476 208.5 570 c 128,-1,6
 283 664 283 664 416 707 c 1,7,8
 162 797 162 797 162 1031 c 0,9,10
 162 1189 162 1189 277.5 1277.5 c 128,-1,11
 393 1366 393 1366 578 1366 c 128,-1,12
 763 1366 763 1366 877 1277.5 c 128,-1,13
 991 1189 991 1189 991 1031 c 0,14,15
 991 797 991 797 758 707 c 1,16,17
 881 664 881 664 950.5 569.5 c 128,-1,18
 1020 475 1020 475 1020 347 c 0,19,20
 1020 231 1020 231 959.5 147 c 128,-1,21
 899 63 899 63 800.5 22.5 c 128,-1,22
 702 -18 702 -18 578 -18 c 0,0,1
578 120 m 128,-1,24
 703 120 703 120 781.5 184 c 128,-1,25
 860 248 860 248 860 358 c 0,26,27
 860 465 860 465 783 537.5 c 128,-1,28
 706 610 706 610 578 638 c 1,29,30
 450 610 450 610 371.5 537.5 c 128,-1,31
 293 465 293 465 293 358 c 0,32,33
 293 248 293 248 373 184 c 128,-1,23
 453 120 453 120 578 120 c 128,-1,24
578 760 m 1,34,35
 831 816 831 816 831 1034 c 0,36,37
 831 1126 831 1126 758 1177 c 128,-1,38
 685 1228 685 1228 578 1228 c 128,-1,39
 471 1228 471 1228 396.5 1177 c 128,-1,40
 322 1126 322 1126 322 1034 c 0,41,42
 322 927 322 927 387.5 857.5 c 128,-1,43
 453 788 453 788 578 760 c 1,34,35
EndSplineSet
EndChar

StartChar: nine
Encoding: 57 57 28
Width: 1156
GlyphClass: 2
Flags: W
LayerCount: 2
Fore
SplineSet
472 0 m 1,0,1
 276 0 l 1,2,-1
 749 591 l 1,3,4
 648 537 648 537 549 537 c 0,5,6
 436 537 436 537 341 586.5 c 128,-1,7
 246 636 246 636 188.5 730 c 128,-1,8
 131 824 131 824 131 944 c 0,9,10
 131 1126 131 1126 255.5 1246.5 c 128,-1,11
 380 1367 380 1367 581 1367 c 0,12,13
 788 1367 788 1367 906 1244.5 c 128,-1,14
 1024 1122 1024 1122 1024 934 c 0,15,16
 1024 805 1024 805 981 701.5 c 128,-1,17
 938 598 938 598 831 453 c 1,18,19
 744 338 744 338 472 0 c 1,0,1
581 672 m 0,20,21
 721 672 721 672 788.5 749.5 c 128,-1,22
 856 827 856 827 856 952 c 0,23,24
 856 1075 856 1075 787.5 1152 c 128,-1,25
 719 1229 719 1229 587 1229 c 0,26,27
 454 1229 454 1229 376.5 1148.5 c 128,-1,28
 299 1068 299 1068 299 947 c 0,29,30
 299 822 299 822 373.5 747 c 128,-1,31
 448 672 448 672 581 672 c 0,20,21
EndSplineSet
EndChar

StartChar: colon
Encoding: 58 58 29
Width: 435
GlyphClass: 2
Flags: W
LayerCount: 2
Fore
SplineSet
125 -23 m 1,0,-1
 125 189 l 1,1,-1
 312 189 l 1,2,-1
 312 -23 l 1,3,-1
 125 -23 l 1,0,-1
125 813 m 1,4,-1
 125 1023 l 1,5,-1
 312 1023 l 1,6,-1
 312 813 l 1,7,-1
 125 813 l 1,4,-1
EndSplineSet
EndChar

StartChar: semicolon
Encoding: 59 59 30
Width: 451
GlyphClass: 2
Flags: W
LayerCount: 2
Fore
SplineSet
109 -282 m 1,0,-1
 160 179 l 1,1,-1
 326 179 l 1,2,-1
 212 -282 l 1,3,-1
 109 -282 l 1,0,-1
142 813 m 1,4,-1
 142 1023 l 1,5,-1
 329 1023 l 1,6,-1
 329 813 l 1,7,-1
 142 813 l 1,4,-1
EndSplineSet
EndChar

StartChar: less
Encoding: 60 60 31
Width: 1094
GlyphClass: 2
Flags: W
LayerCount: 2
Fore
SplineSet
976 944 m 1,0,-1
 270 599 l 1,1,-1
 974 277 l 1,2,-1
 974 133 l 1,3,-1
 102 551 l 1,4,-1
 102 639 l 1,5,-1
 976 1087 l 1,6,-1
 976 944 l 1,0,-1
EndSplineSet
EndChar

StartChar: equal
Encoding: 61 61 32
Width: 1114
GlyphClass: 2
Flags: W
LayerCount: 2
Fore
SplineSet
117 343 m 1,0,-1
 117 472 l 1,1,-1
 996 472 l 1,2,-1
 996 343 l 1,3,-1
 117 343 l 1,0,-1
116 727 m 1,4,-1
 116 858 l 1,5,-1
 996 858 l 1,6,-1
 996 727 l 1,7,-1
 116 727 l 1,4,-1
EndSplineSet
EndChar

StartChar: greater
Encoding: 62 62 33
Width: 1102
GlyphClass: 2
Flags: W
LayerCount: 2
Fore
SplineSet
123 1092 m 1,0,-1
 995 638 l 1,1,-1
 995 550 l 1,2,-1
 121 138 l 1,3,-1
 121 283 l 1,4,-1
 825 599 l 1,5,-1
 123 950 l 1,6,-1
 123 1092 l 1,0,-1
EndSplineSet
EndChar

StartChar: question
Encoding: 63 63 34
Width: 819
GlyphClass: 2
Flags: W
LayerCount: 2
Fore
SplineSet
386 396 m 1,0,1
 307 396 l 1,2,3
 307 467 307 467 347.5 567 c 128,-1,4
 388 667 388 667 436.5 750 c 128,-1,5
 485 833 485 833 525.5 926.5 c 128,-1,6
 566 1020 566 1020 566 1079 c 0,7,8
 565 1166 565 1166 510.5 1207.5 c 128,-1,9
 456 1249 456 1249 361 1249 c 0,10,11
 245 1249 245 1249 126 1176 c 1,12,-1
 85 1299 l 1,13,14
 196 1387 196 1387 386 1387 c 0,15,16
 533 1387 533 1387 623.5 1309 c 128,-1,17
 714 1231 714 1231 714 1092 c 0,18,19
 714 1006 714 1006 680.5 919.5 c 128,-1,20
 647 833 647 833 602.5 767.5 c 128,-1,21
 558 702 558 702 493.5 597 c 128,-1,22
 429 492 429 492 386 396 c 1,0,1
359 -11 m 128,-1,24
 302 -11 302 -11 270 24.5 c 128,-1,25
 238 60 238 60 238 109 c 128,-1,26
 238 158 238 158 270 193.5 c 128,-1,27
 302 229 302 229 359 229 c 128,-1,28
 416 229 416 229 448 193.5 c 128,-1,29
 480 158 480 158 480 109 c 128,-1,30
 480 60 480 60 448 24.5 c 128,-1,23
 416 -11 416 -11 359 -11 c 128,-1,24
EndSplineSet
EndChar

StartChar: at
Encoding: 64 64 35
Width: 1634
GlyphClass: 2
Flags: W
LayerCount: 2
Fore
SplineSet
797 -119 m 0,0,1
 478 -119 478 -119 285.5 71 c 128,-1,2
 93 261 93 261 93 587 c 0,3,4
 93 804 93 804 189.5 980 c 128,-1,5
 286 1156 286 1156 461 1257 c 128,-1,6
 636 1358 636 1358 857 1358 c 0,7,8
 1051 1358 1051 1358 1206.5 1279.5 c 128,-1,9
 1362 1201 1362 1201 1452 1053 c 128,-1,10
 1542 905 1542 905 1542 713 c 0,11,12
 1542 606 1542 606 1509.5 514.5 c 128,-1,13
 1477 423 1477 423 1424 363 c 128,-1,14
 1371 303 1371 303 1304 269.5 c 128,-1,15
 1237 236 1237 236 1166 236 c 0,16,17
 1092 236 1092 236 1043 277 c 128,-1,18
 994 318 994 318 984 391 c 1,19,20
 943 333 943 333 881 288.5 c 128,-1,21
 819 244 819 244 740 244 c 0,22,23
 622 244 622 244 551.5 329.5 c 128,-1,24
 481 415 481 415 481 561 c 0,25,26
 481 683 481 683 524 781.5 c 128,-1,27
 567 880 567 880 655 940 c 128,-1,28
 743 1000 743 1000 862 1000 c 0,29,30
 990 1000 990 1000 1138 950 c 1,31,32
 1132 909 1132 909 1113.5 785.5 c 128,-1,33
 1095 662 1095 662 1087 594 c 128,-1,34
 1079 526 1079 526 1079 476 c 0,35,36
 1079 347 1079 347 1180 347 c 0,37,38
 1271 347 1271 347 1346.5 456.5 c 128,-1,39
 1422 566 1422 566 1422 720 c 0,40,41
 1422 881 1422 881 1348 1001 c 128,-1,42
 1274 1121 1274 1121 1144.5 1183 c 128,-1,43
 1015 1245 1015 1245 849 1245 c 0,44,45
 666 1245 666 1245 521 1160.5 c 128,-1,46
 376 1076 376 1076 295.5 927 c 128,-1,47
 215 778 215 778 215 591 c 0,48,49
 215 312 215 312 374 153.5 c 128,-1,50
 533 -5 533 -5 798 -5 c 0,51,52
 1024 -5 1024 -5 1204 98 c 1,53,-1
 1236 -3 l 1,54,55
 1063 -119 1063 -119 797 -119 c 0,0,1
757 360 m 0,56,57
 853 360 853 360 903.5 440 c 128,-1,58
 954 520 954 520 972 664 c 0,59,60
 984 758 984 758 996 872 c 1,61,62
 945 890 945 890 863 890 c 0,63,64
 739 890 739 890 675 795 c 128,-1,65
 611 700 611 700 611 554 c 0,66,67
 611 464 611 464 647.5 412 c 128,-1,68
 684 360 684 360 757 360 c 0,56,57
EndSplineSet
EndChar

StartChar: A
Encoding: 65 65 36
Width: 1379
GlyphClass: 2
Flags: W
LayerCount: 2
Fore
SplineSet
474 561 m 1,0,-1
 918 561 l 1,1,-1
 689 1223 l 1,2,-1
 474 561 l 1,0,-1
85 0 m 1,3,-1
 589 1390 l 1,4,-1
 791 1390 l 1,5,-1
 1294 0 l 1,6,-1
 1126 0 l 1,7,-1
 967 430 l 1,8,-1
 423 430 l 1,9,-1
 263 0 l 1,10,-1
 85 0 l 1,3,-1
EndSplineSet
EndChar

StartChar: B
Encoding: 66 66 37
Width: 1295
GlyphClass: 2
Flags: W
LayerCount: 2
Fore
SplineSet
214 0 m 1,0,-1
 214 1390 l 1,1,-1
 607 1390 l 2,2,3
 871 1390 871 1390 999 1309.5 c 128,-1,4
 1127 1229 1127 1229 1127 1055 c 0,5,6
 1127 1029 1127 1029 1124 1003 c 128,-1,7
 1121 977 1121 977 1107 936 c 128,-1,8
 1093 895 1093 895 1070 861.5 c 128,-1,9
 1047 828 1047 828 1002 795 c 128,-1,10
 957 762 957 762 897 743 c 1,11,12
 1035 718 1035 718 1106.5 628.5 c 128,-1,13
 1178 539 1178 539 1178 413 c 0,14,15
 1178 227 1178 227 1054 113.5 c 128,-1,16
 930 0 930 0 693 0 c 2,17,-1
 214 0 l 1,0,-1
375 129 m 1,18,-1
 661 129 l 2,19,20
 832 129 832 129 921 205.5 c 128,-1,21
 1010 282 1010 282 1010 419 c 0,22,23
 1010 558 1010 558 916 614.5 c 128,-1,24
 822 671 822 671 623 671 c 2,25,-1
 375 671 l 1,26,-1
 375 129 l 1,18,-1
375 797 m 1,27,-1
 668 797 l 2,28,29
 809 797 809 797 884 850.5 c 128,-1,30
 959 904 959 904 959 1031 c 128,-1,31
 959 1158 959 1158 871 1207.5 c 128,-1,32
 783 1257 783 1257 599 1257 c 2,33,-1
 375 1257 l 1,34,-1
 375 797 l 1,27,-1
EndSplineSet
EndChar

StartChar: C
Encoding: 67 67 38
Width: 1306
GlyphClass: 2
Flags: W
LayerCount: 2
Fore
SplineSet
777 -18 m 0,0,1
 624 -12 624 -12 502 46.5 c 128,-1,2
 380 105 380 105 300.5 204 c 128,-1,3
 221 303 221 303 179 436 c 128,-1,4
 137 569 137 569 137 725 c 0,5,6
 137 928 137 928 215 1083 c 128,-1,7
 293 1238 293 1238 443 1325.5 c 128,-1,8
 593 1413 593 1413 795 1413 c 0,9,10
 1027 1413 1027 1413 1185 1313 c 1,11,-1
 1131 1189 l 1,12,13
 986 1275 986 1275 797 1275 c 0,14,15
 566 1275 566 1275 437.5 1120.5 c 128,-1,16
 309 966 309 966 309 719 c 0,17,18
 309 596 309 596 337 492 c 128,-1,19
 365 388 365 388 423.5 304.5 c 128,-1,20
 482 221 482 221 581 172 c 128,-1,21
 680 123 680 123 813 120 c 0,22,23
 970 116 970 116 1139 196 c 1,24,-1
 1165 68 l 1,25,26
 1107 32 1107 32 1000.5 4.5 c 128,-1,27
 894 -23 894 -23 777 -18 c 0,0,1
EndSplineSet
EndChar

StartChar: D
Encoding: 68 68 39
Width: 1480
GlyphClass: 2
Flags: W
LayerCount: 2
Fore
SplineSet
392 1252 m 1,0,-1
 392 137 l 1,1,-1
 617 137 l 2,2,3
 884 137 884 137 1024.5 282 c 128,-1,4
 1165 427 1165 427 1165 694 c 0,5,6
 1165 1252 1165 1252 590 1252 c 2,7,-1
 392 1252 l 1,0,-1
214 0 m 1,8,-1
 214 1390 l 1,9,-1
 594 1390 l 2,10,11
 764 1390 764 1390 901 1347 c 128,-1,12
 1038 1304 1038 1304 1137 1220 c 128,-1,13
 1236 1136 1236 1136 1289.5 1003 c 128,-1,14
 1343 870 1343 870 1343 698 c 0,15,16
 1343 366 1343 366 1151.5 183 c 128,-1,17
 960 0 960 0 622 0 c 2,18,-1
 214 0 l 1,8,-1
EndSplineSet
EndChar

StartChar: E
Encoding: 69 69 40
Width: 1192
GlyphClass: 2
Flags: W
LayerCount: 2
Fore
SplineSet
392 1251 m 1,0,-1
 392 790 l 1,1,-1
 982 790 l 1,2,-1
 982 653 l 1,3,-1
 392 653 l 1,4,-1
 392 139 l 1,5,-1
 1058 139 l 1,6,-1
 1050 0 l 1,7,-1
 214 0 l 1,8,-1
 214 1390 l 1,9,-1
 1037 1390 l 1,10,-1
 1030 1251 l 1,11,-1
 392 1251 l 1,0,-1
EndSplineSet
EndChar

StartChar: F
Encoding: 70 70 41
Width: 1088
GlyphClass: 2
Flags: W
LayerCount: 2
Fore
SplineSet
393 1251 m 1,0,-1
 393 790 l 1,1,-1
 934 790 l 1,2,-1
 934 657 l 1,3,-1
 393 657 l 1,4,-1
 393 0 l 1,5,-1
 214 0 l 1,6,-1
 214 1390 l 1,7,-1
 990 1390 l 1,8,-1
 979 1251 l 1,9,-1
 393 1251 l 1,0,-1
EndSplineSet
EndChar

StartChar: G
Encoding: 71 71 42
Width: 1476
GlyphClass: 2
Flags: W
LayerCount: 2
Fore
SplineSet
802 -18 m 0,0,1
 634 -18 634 -18 505 36 c 128,-1,2
 376 90 376 90 296.5 187 c 128,-1,3
 217 284 217 284 177 411.5 c 128,-1,4
 137 539 137 539 137 692 c 0,5,6
 137 847 137 847 179 976.5 c 128,-1,7
 221 1106 221 1106 304.5 1204.5 c 128,-1,8
 388 1303 388 1303 523 1358 c 128,-1,9
 658 1413 658 1413 834 1413 c 0,10,11
 961 1413 961 1413 1077.5 1386.5 c 128,-1,12
 1194 1360 1194 1360 1276 1307 c 1,13,-1
 1226 1185 l 1,14,15
 1054 1275 1054 1275 834 1275 c 0,16,17
 724 1275 724 1275 636 1245 c 128,-1,18
 548 1215 548 1215 489 1162 c 128,-1,19
 430 1109 430 1109 390 1034.5 c 128,-1,20
 350 960 350 960 332.5 875 c 128,-1,21
 315 790 315 790 315 692 c 0,22,23
 315 565 315 565 344 462.5 c 128,-1,24
 373 360 373 360 432 282.5 c 128,-1,25
 491 205 491 205 587.5 162.5 c 128,-1,26
 684 120 684 120 812 120 c 0,27,28
 895 120 895 120 991 128 c 128,-1,29
 1087 136 1087 136 1129 147 c 1,30,-1
 1129 579 l 1,31,-1
 800 579 l 1,32,-1
 808 716 l 1,33,-1
 1307 716 l 1,34,-1
 1307 59 l 1,35,36
 1107 -18 1107 -18 802 -18 c 0,0,1
EndSplineSet
EndChar

StartChar: H
Encoding: 72 72 43
Width: 1507
GlyphClass: 2
Flags: W
LayerCount: 2
Fore
SplineSet
392 766 m 1,0,-1
 1115 766 l 1,1,-1
 1115 1390 l 1,2,-1
 1293 1390 l 1,3,-1
 1293 0 l 1,4,-1
 1115 0 l 1,5,-1
 1115 634 l 1,6,-1
 392 634 l 1,7,-1
 392 0 l 1,8,-1
 214 0 l 1,9,-1
 214 1390 l 1,10,-1
 392 1390 l 1,11,-1
 392 766 l 1,0,-1
EndSplineSet
EndChar

StartChar: I
Encoding: 73 73 44
Width: 607
GlyphClass: 2
Flags: W
LayerCount: 2
Fore
SplineSet
214 0 m 1,0,-1
 214 1390 l 1,1,-1
 393 1390 l 1,2,-1
 393 0 l 1,3,-1
 214 0 l 1,0,-1
EndSplineSet
EndChar

StartChar: J
Encoding: 74 74 45
Width: 741
GlyphClass: 2
Flags: W
LayerCount: 2
Fore
SplineSet
121 -192 m 1,0,1
 107 -45 l 1,2,3
 157 -45 157 -45 195 -38.5 c 128,-1,4
 233 -32 233 -32 259 -23 c 128,-1,5
 285 -14 285 -14 302.5 4 c 128,-1,6
 320 22 320 22 329 37.5 c 128,-1,7
 338 53 338 53 342.5 81.5 c 128,-1,8
 347 110 347 110 348 130 c 128,-1,9
 349 150 349 150 349 186 c 2,10,11
 349 1408 l 1,12,-1
 527 1408 l 1,13,-1
 527 219 l 2,14,15
 527 143 527 143 522 91 c 128,-1,16
 517 39 517 39 501.5 -11 c 128,-1,17
 486 -61 486 -61 458.5 -92 c 128,-1,18
 431 -123 431 -123 386 -147 c 128,-1,19
 341 -171 341 -171 275.5 -181.5 c 128,-1,20
 210 -192 210 -192 121 -192 c 1,0,1
EndSplineSet
EndChar

StartChar: K
Encoding: 75 75 46
Width: 1302
GlyphClass: 2
Flags: W
LayerCount: 2
Fore
SplineSet
993 1389 m 1,0,-1
 1217 1389 l 1,1,-1
 639 763 l 1,2,-1
 1264 0 l 1,3,-1
 1055 0 l 1,4,-1
 509 689 l 1,5,-1
 392 585 l 1,6,-1
 392 0 l 1,7,-1
 214 0 l 1,8,-1
 214 1389 l 1,9,-1
 392 1389 l 1,10,-1
 392 746 l 1,11,-1
 993 1389 l 1,0,-1
EndSplineSet
EndChar

StartChar: L
Encoding: 76 76 47
Width: 1055
GlyphClass: 2
Flags: W
LayerCount: 2
Fore
SplineSet
981 140 m 1,0,-1
 974 0 l 1,1,-1
 214 0 l 1,2,-1
 214 1390 l 1,3,-1
 393 1390 l 1,4,-1
 393 140 l 1,5,-1
 981 140 l 1,0,-1
EndSplineSet
EndChar

StartChar: M
Encoding: 77 77 48
Width: 1735
GlyphClass: 2
Flags: W
LayerCount: 2
Fore
SplineSet
1314 1390 m 1,0,-1
 1521 1390 l 1,1,-1
 1521 0 l 1,2,-1
 1366 0 l 1,3,-1
 1366 843 l 1,4,-1
 1373 1163 l 1,5,-1
 947 108 l 1,6,-1
 789 108 l 1,7,-1
 358 1167 l 1,8,-1
 369 839 l 1,9,-1
 369 0 l 1,10,-1
 214 0 l 1,11,-1
 214 1390 l 1,12,-1
 427 1390 l 1,13,-1
 868 305 l 1,14,-1
 1314 1390 l 1,0,-1
EndSplineSet
EndChar

StartChar: N
Encoding: 78 78 49
Width: 1557
GlyphClass: 2
Flags: W
LayerCount: 2
Fore
SplineSet
1192 208 m 1,0,-1
 1187 555 l 1,1,-1
 1187 1390 l 1,2,-1
 1343 1390 l 1,3,-1
 1343 0 l 1,4,-1
 1160 0 l 1,5,-1
 365 1181 l 1,6,-1
 370 830 l 1,7,-1
 370 0 l 1,8,-1
 214 0 l 1,9,-1
 214 1390 l 1,10,-1
 393 1390 l 1,11,-1
 1192 208 l 1,0,-1
EndSplineSet
EndChar

StartChar: O
Encoding: 79 79 50
Width: 1581
GlyphClass: 2
Flags: W
LayerCount: 2
Fore
SplineSet
1444 697 m 0,0,1
 1444 490 1444 490 1369 330 c 128,-1,2
 1294 170 1294 170 1144.5 76 c 128,-1,3
 995 -18 995 -18 791 -18 c 0,4,5
 635 -18 635 -18 510.5 35 c 128,-1,6
 386 88 386 88 304.5 183.5 c 128,-1,7
 223 279 223 279 180 410 c 128,-1,8
 137 541 137 541 137 698 c 0,9,10
 137 912 137 912 213 1072.5 c 128,-1,11
 289 1233 289 1233 438 1323 c 128,-1,12
 587 1413 587 1413 792 1413 c 0,13,14
 993 1413 993 1413 1141.5 1322.5 c 128,-1,15
 1290 1232 1290 1232 1367 1070.5 c 128,-1,16
 1444 909 1444 909 1444 697 c 0,0,1
791 120 m 0,17,18
 909 120 909 120 1001 165 c 128,-1,19
 1093 210 1093 210 1150 289.5 c 128,-1,20
 1207 369 1207 369 1236 472.5 c 128,-1,21
 1265 576 1265 576 1265 697 c 0,22,23
 1265 865 1265 865 1214 993.5 c 128,-1,24
 1163 1122 1163 1122 1054.5 1198.5 c 128,-1,25
 946 1275 946 1275 792 1275 c 0,26,27
 676 1275 676 1275 584.5 1231.5 c 128,-1,28
 493 1188 493 1188 434.5 1110 c 128,-1,29
 376 1032 376 1032 346 927 c 128,-1,30
 316 822 316 822 316 697 c 0,31,32
 316 600 316 600 334 514.5 c 128,-1,33
 352 429 352 429 390 356.5 c 128,-1,34
 428 284 428 284 483.5 231.5 c 128,-1,35
 539 179 539 179 617.5 149.5 c 128,-1,36
 696 120 696 120 791 120 c 0,17,18
EndSplineSet
EndChar

StartChar: P
Encoding: 80 80 51
Width: 1238
GlyphClass: 2
Flags: W
LayerCount: 2
Fore
SplineSet
214 0 m 1,0,-1
 214 1390 l 1,1,-1
 664 1390 l 2,2,3
 869 1390 869 1390 995.5 1295.5 c 128,-1,4
 1122 1201 1122 1201 1122 1023 c 0,5,6
 1122 613 1122 613 643 613 c 0,7,8
 446 613 446 613 393 616 c 1,9,-1
 393 0 l 1,10,-1
 214 0 l 1,0,-1
651 744 m 1,11,12
 813 744 813 744 878 811.5 c 128,-1,13
 943 879 943 879 943 1020 c 0,14,15
 943 1138 943 1138 868 1195.5 c 128,-1,16
 793 1253 793 1253 660 1253 c 2,17,-1
 393 1253 l 1,18,-1
 393 746 l 1,19,-1
 651 744 l 1,11,12
EndSplineSet
EndChar

StartChar: Q
Encoding: 81 81 52
Width: 1581
GlyphClass: 2
Flags: W
LayerCount: 2
Fore
SplineSet
1444 697 m 0,0,1
 1444 490 1444 490 1369 330 c 128,-1,2
 1294 170 1294 170 1144 76 c 0,3,4
 1093 44 1093 44 1035 22 c 1,5,6
 1180 -213 1180 -213 1289 -318 c 1,7,-1
 1186 -421 l 1,8,9
 1144 -379 1144 -379 1040 -244 c 0,10,11
 939 -113 939 -113 888 -12 c 1,12,13
 841 -18 841 -18 791 -18 c 0,14,15
 635 -18 635 -18 510.5 35 c 128,-1,16
 386 88 386 88 304.5 183.5 c 128,-1,17
 223 279 223 279 180 410 c 128,-1,18
 137 541 137 541 137 698 c 0,19,20
 137 912 137 912 213 1072.5 c 128,-1,21
 289 1233 289 1233 438 1323 c 128,-1,22
 587 1413 587 1413 792 1413 c 0,23,24
 993 1413 993 1413 1141.5 1322.5 c 128,-1,25
 1290 1232 1290 1232 1367 1070.5 c 128,-1,26
 1444 909 1444 909 1444 697 c 0,0,1
791 120 m 0,27,28
 909 120 909 120 1001 165 c 128,-1,29
 1093 210 1093 210 1150 289.5 c 128,-1,30
 1207 369 1207 369 1236 472.5 c 128,-1,31
 1265 576 1265 576 1265 697 c 0,32,33
 1265 865 1265 865 1214 993.5 c 128,-1,34
 1163 1122 1163 1122 1054.5 1198.5 c 128,-1,35
 946 1275 946 1275 792 1275 c 0,36,37
 676 1275 676 1275 584.5 1231.5 c 128,-1,38
 493 1188 493 1188 434.5 1110 c 128,-1,39
 376 1032 376 1032 346 927 c 128,-1,40
 316 822 316 822 316 697 c 0,41,42
 316 600 316 600 334 514.5 c 128,-1,43
 352 429 352 429 390 356.5 c 128,-1,44
 428 284 428 284 483.5 231.5 c 128,-1,45
 539 179 539 179 617.5 149.5 c 128,-1,46
 696 120 696 120 791 120 c 0,27,28
EndSplineSet
EndChar

StartChar: R
Encoding: 82 82 53
Width: 1416
GlyphClass: 2
Flags: W
LayerCount: 2
Fore
SplineSet
752 799 m 2,0,1
 843 799 843 799 903 813.5 c 128,-1,2
 963 828 963 828 996.5 859 c 128,-1,3
 1030 890 1030 890 1043.5 932.5 c 128,-1,4
 1057 975 1057 975 1057 1038 c 0,5,6
 1057 1149 1057 1149 988.5 1200.5 c 128,-1,7
 920 1252 920 1252 744 1252 c 2,8,-1
 393 1252 l 1,9,-1
 393 799 l 1,10,-1
 752 799 l 2,0,1
214 0 m 1,11,-1
 214 1390 l 1,12,-1
 717 1390 l 2,13,14
 821 1390 821 1390 898 1381 c 128,-1,15
 975 1372 975 1372 1041 1348.5 c 128,-1,16
 1107 1325 1107 1325 1148 1285.5 c 128,-1,17
 1189 1246 1189 1246 1211.5 1185 c 128,-1,18
 1234 1124 1234 1124 1234 1040 c 0,19,20
 1234 904 1234 904 1181 821.5 c 128,-1,21
 1128 739 1128 739 989 700 c 1,22,23
 989 698 989 698 1004 668 c 128,-1,24
 1019 638 1019 638 1042 591.5 c 128,-1,25
 1065 545 1065 545 1078 517 c 2,26,-1
 1298 0 l 1,27,-1
 1112 0 l 1,28,-1
 927 464 l 1,29,30
 857 620 857 620 829 664 c 1,31,32
 762 659 762 659 668 659 c 0,33,34
 651 659 651 659 393 661 c 1,35,-1
 393 0 l 1,36,-1
 214 0 l 1,11,-1
EndSplineSet
EndChar

StartChar: S
Encoding: 83 83 54
Width: 1243
GlyphClass: 2
Flags: W
LayerCount: 2
Fore
SplineSet
638 -18 m 0,0,1
 487 -18 487 -18 368.5 20.5 c 128,-1,2
 250 59 250 59 172 110 c 1,3,-1
 227 238 l 1,4,5
 427 120 427 120 638 120 c 0,6,7
 777 120 777 120 857.5 184 c 128,-1,8
 938 248 938 248 938 369 c 0,9,10
 938 460 938 460 880.5 519.5 c 128,-1,11
 823 579 823 579 695 624 c 2,12,-1
 466 704 l 1,13,14
 328 748 328 748 251 834.5 c 128,-1,15
 174 921 174 921 174 1051 c 0,16,17
 174 1147 174 1147 211.5 1218.5 c 128,-1,18
 249 1290 249 1290 316 1331.5 c 128,-1,19
 383 1373 383 1373 466 1393 c 128,-1,20
 549 1413 549 1413 649 1413 c 0,21,22
 760 1413 760 1413 862 1380 c 128,-1,23
 964 1347 964 1347 1038 1298 c 1,24,-1
 983 1173 l 1,25,26
 816 1275 816 1275 655 1275 c 0,27,28
 588 1275 588 1275 531.5 1263 c 128,-1,29
 475 1251 475 1251 430 1226.5 c 128,-1,30
 385 1202 385 1202 359 1159.5 c 128,-1,31
 333 1117 333 1117 333 1062 c 0,32,33
 333 907 333 907 523 848 c 1,34,-1
 740 772 l 1,35,36
 820 747 820 747 879.5 716.5 c 128,-1,37
 939 686 939 686 989.5 640.5 c 128,-1,38
 1040 595 1040 595 1066.5 528.5 c 128,-1,39
 1093 462 1093 462 1093 376 c 0,40,41
 1093 181 1093 181 968.5 81.5 c 128,-1,42
 844 -18 844 -18 638 -18 c 0,0,1
EndSplineSet
EndChar

StartChar: T
Encoding: 84 84 55
Width: 1160
GlyphClass: 2
Flags: W
LayerCount: 2
Fore
SplineSet
1085 1390 m 1,0,-1
 1085 1251 l 1,1,-1
 669 1251 l 1,2,-1
 669 0 l 1,3,-1
 490 0 l 1,4,-1
 490 1251 l 1,5,-1
 75 1251 l 1,6,-1
 75 1390 l 1,7,-1
 1085 1390 l 1,0,-1
EndSplineSet
EndChar

StartChar: U
Encoding: 85 85 56
Width: 1401
GlyphClass: 2
Flags: W
LayerCount: 2
Fore
SplineSet
700 -18 m 0,0,1
 436 -18 436 -18 302.5 121.5 c 128,-1,2
 169 261 169 261 169 495 c 2,3,-1
 169 1390 l 1,4,-1
 346 1390 l 1,5,-1
 346 492 l 2,6,7
 346 306 346 306 432 213 c 128,-1,8
 518 120 518 120 700 120 c 0,9,10
 1055 120 1055 120 1055 492 c 2,11,-1
 1055 1390 l 1,12,-1
 1232 1390 l 1,13,-1
 1232 493 l 2,14,15
 1232 380 1232 380 1199.5 287.5 c 128,-1,16
 1167 195 1167 195 1103 126 c 128,-1,17
 1039 57 1039 57 936.5 19.5 c 128,-1,18
 834 -18 834 -18 700 -18 c 0,0,1
EndSplineSet
EndChar

StartChar: V
Encoding: 86 86 57
Width: 1344
GlyphClass: 2
Flags: W
LayerCount: 2
Fore
SplineSet
756 0 m 1,0,-1
 588 0 l 1,1,-1
 78 1390 l 1,2,-1
 264 1390 l 1,3,-1
 569 492 l 1,4,-1
 672 197 l 1,5,-1
 776 495 l 1,6,-1
 1082 1390 l 1,7,-1
 1266 1390 l 1,8,-1
 756 0 l 1,0,-1
EndSplineSet
EndChar

StartChar: W
Encoding: 87 87 58
Width: 2044
GlyphClass: 2
Flags: W
LayerCount: 2
Fore
SplineSet
932 1365 m 1,0,-1
 1114 1365 l 1,1,-1
 1444 221 l 1,2,-1
 1780 1390 l 1,3,-1
 1957 1390 l 1,4,-1
 1542 0 l 1,5,-1
 1357 0 l 1,6,-1
 1030 1160 l 1,7,-1
 681 0 l 1,8,-1
 499 0 l 1,9,-1
 87 1390 l 1,10,-1
 265 1390 l 1,11,-1
 594 222 l 1,12,-1
 932 1365 l 1,0,-1
EndSplineSet
EndChar

StartChar: X
Encoding: 88 88 59
Width: 1265
GlyphClass: 2
Flags: W
LayerCount: 2
Fore
SplineSet
725 709 m 1,0,-1
 1190 0 l 1,1,-1
 1004 0 l 1,2,-1
 632 572 l 1,3,-1
 261 0 l 1,4,-1
 75 0 l 1,5,-1
 539 709 l 1,6,-1
 75 1390 l 1,7,-1
 261 1390 l 1,8,-1
 632 846 l 1,9,-1
 1004 1390 l 1,10,-1
 1190 1390 l 1,11,-1
 725 709 l 1,0,-1
EndSplineSet
EndChar

StartChar: Y
Encoding: 89 89 60
Width: 1309
GlyphClass: 2
Flags: W
LayerCount: 2
Fore
SplineSet
668 723 m 1,0,-1
 1055 1390 l 1,1,-1
 1233 1390 l 1,2,-1
 758 577 l 1,3,-1
 758 0 l 1,4,-1
 580 0 l 1,5,-1
 580 573 l 1,6,-1
 76 1390 l 1,7,-1
 254 1390 l 1,8,-1
 668 723 l 1,0,-1
EndSplineSet
EndChar

StartChar: Z
Encoding: 90 90 61
Width: 1234
GlyphClass: 2
Flags: W
LayerCount: 2
Fore
SplineSet
182 1390 m 1,0,-1
 1094 1390 l 1,1,-1
 1094 1272 l 1,2,-1
 356 138 l 1,3,-1
 1101 138 l 1,4,-1
 1095 0 l 1,5,-1
 155 0 l 1,6,-1
 155 124 l 1,7,-1
 889 1252 l 1,8,-1
 182 1252 l 1,9,-1
 182 1390 l 1,0,-1
EndSplineSet
EndChar

StartChar: bracketleft
Encoding: 91 91 62
Width: 643
GlyphClass: 2
Flags: W
LayerCount: 2
Fore
SplineSet
294 1229 m 1,0,-1
 294 -147 l 1,1,-1
 549 -147 l 1,2,-1
 549 -267 l 1,3,-1
 136 -267 l 1,4,-1
 136 1350 l 1,5,-1
 549 1350 l 1,6,-1
 549 1229 l 1,7,-1
 294 1229 l 1,0,-1
EndSplineSet
EndChar

StartChar: backslash
Encoding: 92 92 63
Width: 850
GlyphClass: 2
Flags: W
LayerCount: 2
Fore
SplineSet
625 -55 m 1,0,-1
 80 1332 l 1,1,-1
 222 1332 l 1,2,-1
 767 -55 l 1,3,-1
 625 -55 l 1,0,-1
EndSplineSet
EndChar

StartChar: bracketright
Encoding: 93 93 64
Width: 645
GlyphClass: 2
Flags: W
LayerCount: 2
Fore
SplineSet
96 1229 m 1,0,-1
 96 1350 l 1,1,-1
 509 1350 l 1,2,-1
 509 -267 l 1,3,-1
 96 -267 l 1,4,-1
 96 -147 l 1,5,-1
 351 -147 l 1,6,-1
 351 1229 l 1,7,-1
 96 1229 l 1,0,-1
EndSplineSet
EndChar

StartChar: asciicircum
Encoding: 94 94 65
Width: 1143
GlyphClass: 2
Flags: W
LayerCount: 2
Fore
SplineSet
109 536 m 1,0,-1
 514 1380 l 1,1,-1
 607 1380 l 1,2,-1
 1035 536 l 1,3,-1
 905 536 l 1,4,-1
 561 1215 l 1,5,-1
 241 536 l 1,6,-1
 109 536 l 1,0,-1
EndSplineSet
EndChar

StartChar: underscore
Encoding: 95 95 66
Width: 1009
GlyphClass: 2
Flags: W
LayerCount: 2
Fore
SplineSet
78 -277 m 1,0,-1
 78 -155 l 1,1,-1
 933 -155 l 1,2,-1
 933 -277 l 1,3,-1
 78 -277 l 1,0,-1
EndSplineSet
EndChar

StartChar: grave
Encoding: 96 96 67
Width: 585
GlyphClass: 2
Flags: W
LayerCount: 2
Fore
SplineSet
371 1138 m 1,0,-1
 77 1491 l 1,1,-1
 305 1491 l 1,2,-1
 473 1138 l 1,3,-1
 371 1138 l 1,0,-1
EndSplineSet
EndChar

StartChar: a
Encoding: 97 97 68
Width: 1116
GlyphClass: 2
Flags: W
LayerCount: 2
Fore
SplineSet
445 -21 m 0,0,1
 308 -21 308 -21 221 54 c 128,-1,2
 134 129 134 129 134 263 c 0,3,4
 134 417 134 417 253 491.5 c 128,-1,5
 372 566 372 566 599 583 c 0,6,7
 645 587 645 587 774 597 c 1,8,-1
 774 685 l 2,9,10
 774 788 774 788 721.5 837 c 128,-1,11
 669 886 669 886 561 886 c 0,12,13
 487 886 487 886 395 866 c 128,-1,14
 303 846 303 846 234 812 c 1,15,16
 221 844 221 844 187 935 c 1,17,18
 252 971 252 971 356.5 995 c 128,-1,19
 461 1019 461 1019 557 1019 c 0,20,21
 749 1019 749 1019 849 936 c 128,-1,22
 949 853 949 853 949 661 c 2,23,-1
 949 0 l 1,24,-1
 808 0 l 1,25,-1
 781 112 l 1,26,27
 737 47 737 47 644.5 13 c 128,-1,28
 552 -21 552 -21 445 -21 c 0,0,1
468 102 m 0,29,30
 563 102 563 102 657 145.5 c 128,-1,31
 751 189 751 189 774 251 c 1,32,-1
 774 490 l 1,33,-1
 658 478 l 1,34,35
 458 454 458 454 383 409.5 c 128,-1,36
 308 365 308 365 308 262 c 0,37,38
 308 184 308 184 354.5 143 c 128,-1,39
 401 102 401 102 468 102 c 0,29,30
EndSplineSet
EndChar

StartChar: b
Encoding: 98 98 69
Width: 1239
GlyphClass: 2
Flags: W
LayerCount: 2
Fore
SplineSet
678 -21 m 0,0,1
 573 -21 573 -21 486.5 27.5 c 128,-1,2
 400 76 400 76 360 163 c 1,3,-1
 343 0 l 1,4,-1
 185 0 l 1,5,-1
 185 1395 l 1,6,-1
 360 1409 l 1,7,-1
 360 1053 l 2,8,9
 360 945 360 945 355 862 c 1,10,11
 405 933 405 933 493 976 c 128,-1,12
 581 1019 581 1019 679 1019 c 0,13,14
 873 1019 873 1019 995 874 c 128,-1,15
 1117 729 1117 729 1117 504 c 0,16,17
 1117 269 1117 269 1000 124 c 128,-1,18
 883 -21 883 -21 678 -21 c 0,0,1
652 108 m 0,19,20
 794 108 794 108 868 213 c 128,-1,21
 942 318 942 318 942 499 c 0,22,23
 942 682 942 682 867 786.5 c 128,-1,24
 792 891 792 891 651 891 c 0,25,26
 495 891 495 891 427.5 788 c 128,-1,27
 360 685 360 685 360 482 c 0,28,29
 360 108 360 108 652 108 c 0,19,20
EndSplineSet
EndChar

StartChar: c
Encoding: 99 99 70
Width: 985
GlyphClass: 2
Flags: W
LayerCount: 2
Fore
SplineSet
600 -21 m 0,0,1
 390 -21 390 -21 256 124.5 c 128,-1,2
 122 270 122 270 122 496 c 0,3,4
 122 729 122 729 258 874 c 128,-1,5
 394 1019 394 1019 606 1019 c 0,6,7
 684 1019 684 1019 759.5 999.5 c 128,-1,8
 835 980 835 980 877 950 c 1,9,-1
 835 832 l 1,10,11
 734 886 734 886 629 886 c 0,12,13
 473 886 473 886 384.5 780.5 c 128,-1,14
 296 675 296 675 296 495 c 0,15,16
 296 320 296 320 383.5 216 c 128,-1,17
 471 112 471 112 629 112 c 0,18,19
 688 112 688 112 737 127.5 c 128,-1,20
 786 143 786 143 848 175 c 1,21,-1
 871 51 l 1,22,23
 772 -21 772 -21 600 -21 c 0,0,1
EndSplineSet
EndChar

StartChar: d
Encoding: 100 100 71
Width: 1239
GlyphClass: 2
Flags: W
LayerCount: 2
Fore
SplineSet
560 -21 m 0,0,1
 355 -21 355 -21 238.5 124 c 128,-1,2
 122 269 122 269 122 504 c 0,3,4
 122 732 122 732 243.5 875.5 c 128,-1,5
 365 1019 365 1019 559 1019 c 0,6,7
 657 1019 657 1019 745 976 c 128,-1,8
 833 933 833 933 883 862 c 1,9,10
 879 928 879 928 879 1053 c 2,11,-1
 879 1395 l 1,12,-1
 1054 1409 l 1,13,-1
 1054 0 l 1,14,-1
 896 0 l 1,15,-1
 879 163 l 1,16,17
 839 76 839 76 752 27.5 c 128,-1,18
 665 -21 665 -21 560 -21 c 0,0,1
587 108 m 0,19,20
 879 108 879 108 879 482 c 0,21,22
 879 685 879 685 811.5 788 c 128,-1,23
 744 891 744 891 588 891 c 0,24,25
 447 891 447 891 371.5 786 c 128,-1,26
 296 681 296 681 296 499 c 0,27,28
 296 318 296 318 370.5 213 c 128,-1,29
 445 108 445 108 587 108 c 0,19,20
EndSplineSet
EndChar

StartChar: e
Encoding: 101 101 72
Width: 1128
GlyphClass: 2
Flags: W
LayerCount: 2
Fore
SplineSet
298 582 m 1,0,1
 833 582 l 1,2,3
 829 734 829 734 774.5 811 c 128,-1,4
 720 888 720 888 602 888 c 0,5,6
 482 888 482 888 396 804.5 c 128,-1,7
 310 721 310 721 298 582 c 1,0,1
616 -21 m 0,8,9
 396 -21 396 -21 259 119 c 128,-1,10
 122 259 122 259 122 496 c 0,11,12
 122 724 122 724 259.5 871.5 c 128,-1,13
 397 1019 397 1019 597 1019 c 0,14,15
 787 1019 787 1019 892 892.5 c 128,-1,16
 997 766 997 766 997 553 c 0,17,18
 997 530 997 530 991 469 c 1,19,-1
 294 469 l 1,20,21
 297 302 297 302 395 207 c 128,-1,22
 493 112 493 112 641 112 c 0,23,24
 788 112 788 112 951 197 c 1,25,-1
 975 65 l 1,26,27
 833 -21 833 -21 616 -21 c 0,8,9
EndSplineSet
EndChar

StartChar: f
Encoding: 102 102 73
Width: 769
GlyphClass: 2
Flags: W
LayerCount: 2
Fore
SplineSet
266 0 m 1,0,-1
 266 886 l 1,1,-1
 59 886 l 1,2,-1
 64 981 l 1,3,-1
 266 998 l 1,4,-1
 266 1061 l 2,5,6
 266 1246 266 1246 341.5 1328 c 128,-1,7
 417 1410 417 1410 558 1410 c 0,8,9
 588 1410 588 1410 643.5 1404 c 128,-1,10
 699 1398 699 1398 716 1394 c 1,11,-1
 704 1263 l 1,12,13
 642 1273 642 1273 598 1273 c 0,14,15
 516 1273 516 1273 478.5 1226.5 c 128,-1,16
 441 1180 441 1180 441 1055 c 2,17,-1
 441 998 l 1,18,-1
 674 998 l 1,19,-1
 674 886 l 1,20,-1
 441 886 l 1,21,-1
 441 0 l 1,22,-1
 266 0 l 1,0,-1
EndSplineSet
EndChar

StartChar: g
Encoding: 103 103 74
Width: 1233
GlyphClass: 2
Flags: W
LayerCount: 2
Fore
SplineSet
582 130 m 0,0,1
 660 130 660 130 718.5 157.5 c 128,-1,2
 777 185 777 185 811.5 233.5 c 128,-1,3
 846 282 846 282 862.5 341 c 128,-1,4
 879 400 879 400 879 470 c 2,5,-1
 879 543 l 2,6,7
 879 642 879 642 850 718 c 128,-1,8
 821 794 821 794 753 842.5 c 128,-1,9
 685 891 685 891 586 891 c 0,10,11
 508 891 508 891 449.5 855.5 c 128,-1,12
 391 820 391 820 359 761.5 c 128,-1,13
 327 703 327 703 311.5 638 c 128,-1,14
 296 573 296 573 296 504 c 0,15,16
 296 451 296 451 305.5 399.5 c 128,-1,17
 315 348 315 348 337 298.5 c 128,-1,18
 359 249 359 249 391.5 212 c 128,-1,19
 424 175 424 175 473 152.5 c 128,-1,20
 522 130 522 130 582 130 c 0,0,1
543 -425 m 0,21,22
 426 -425 426 -425 286 -390 c 1,23,-1
 297 -262 l 1,24,25
 402 -291 402 -291 530 -291 c 0,26,27
 716 -291 716 -291 797.5 -209.5 c 128,-1,28
 879 -128 879 -128 879 73 c 2,29,-1
 879 191 l 1,30,31
 843 100 843 100 764 50 c 128,-1,32
 685 0 685 0 569 0 c 0,33,34
 462 0 462 0 375 42.5 c 128,-1,35
 288 85 288 85 234 155.5 c 128,-1,36
 180 226 180 226 151 314 c 128,-1,37
 122 402 122 402 122 496 c 0,38,39
 122 604 122 604 150 697.5 c 128,-1,40
 178 791 178 791 232 863.5 c 128,-1,41
 286 936 286 936 373.5 977.5 c 128,-1,42
 461 1019 461 1019 572 1019 c 0,43,44
 769 1019 769 1019 883 865 c 1,45,-1
 895 998 l 1,46,-1
 1054 998 l 1,47,-1
 1054 148 l 2,48,49
 1054 42 1054 42 1040.5 -41 c 128,-1,50
 1027 -124 1027 -124 992 -198 c 128,-1,51
 957 -272 957 -272 900 -320.5 c 128,-1,52
 843 -369 843 -369 753 -397 c 128,-1,53
 663 -425 663 -425 543 -425 c 0,21,22
EndSplineSet
EndChar

StartChar: h
Encoding: 104 104 75
Width: 1166
GlyphClass: 2
Flags: W
LayerCount: 2
Fore
SplineSet
185 1395 m 1,0,-1
 360 1409 l 1,1,-1
 360 864 l 1,2,3
 403 938 403 938 483 978.5 c 128,-1,4
 563 1019 563 1019 667 1019 c 0,5,6
 838 1019 838 1019 919.5 917 c 128,-1,7
 1001 815 1001 815 1001 612 c 2,8,-1
 1001 0 l 1,9,-1
 826 0 l 1,10,-1
 826 623 l 2,11,12
 826 757 826 757 785.5 823 c 128,-1,13
 745 889 745 889 637 889 c 0,14,15
 484 889 484 889 422 801 c 128,-1,16
 360 713 360 713 360 546 c 2,17,-1
 360 0 l 1,18,-1
 185 0 l 1,19,-1
 185 1395 l 1,0,-1
EndSplineSet
EndChar

StartChar: i
Encoding: 105 105 76
Width: 524
GlyphClass: 2
Flags: W
LayerCount: 2
Fore
SplineSet
185 0 m 1,0,-1
 185 998 l 1,1,-1
 359 998 l 1,2,-1
 359 0 l 1,3,-1
 185 0 l 1,0,-1
185 1181 m 1,4,-1
 185 1361 l 1,5,-1
 359 1361 l 1,6,-1
 359 1181 l 1,7,-1
 185 1181 l 1,4,-1
EndSplineSet
EndChar

StartChar: j
Encoding: 106 106 77
Width: 622
GlyphClass: 2
Flags: W
LayerCount: 2
Fore
SplineSet
262 1181 m 1,0,-1
 262 1361 l 1,1,-1
 437 1361 l 1,2,-1
 437 1181 l 1,3,-1
 262 1181 l 1,0,-1
86 -398 m 1,4,-1
 66 -257 l 1,5,-1
 114 -257 l 2,6,7
 164 -257 164 -257 194 -249.5 c 128,-1,8
 224 -242 224 -242 239 -224 c 128,-1,9
 254 -206 254 -206 258.5 -185 c 128,-1,10
 263 -164 263 -164 263 -127 c 2,11,-1
 262 998 l 1,12,-1
 437 998 l 1,13,-1
 437 -68 l 2,14,15
 437 -164 437 -164 424.5 -223.5 c 128,-1,16
 412 -283 412 -283 378 -324 c 128,-1,17
 344 -365 344 -365 286 -381.5 c 128,-1,18
 228 -398 228 -398 134 -398 c 2,19,-1
 86 -398 l 1,4,-1
EndSplineSet
EndChar

StartChar: k
Encoding: 107 107 78
Width: 1091
GlyphClass: 2
Flags: W
LayerCount: 2
Fore
SplineSet
185 1395 m 1,0,-1
 360 1409 l 1,1,-1
 360 515 l 1,2,-1
 827 998 l 1,3,-1
 1042 998 l 1,4,-1
 596 535 l 1,5,-1
 1049 0 l 1,6,-1
 853 0 l 1,7,-1
 471 459 l 1,8,-1
 360 363 l 1,9,-1
 360 0 l 1,10,-1
 185 0 l 1,11,-1
 185 1395 l 1,0,-1
EndSplineSet
EndChar

StartChar: l
Encoding: 108 108 79
Width: 642
GlyphClass: 2
Flags: W
LayerCount: 2
Fore
SplineSet
419 -18 m 0,0,1
 336 -18 336 -18 288.5 8 c 128,-1,2
 241 34 241 34 215 105.5 c 128,-1,3
 189 177 189 177 189 305 c 2,4,-1
 189 1395 l 1,5,-1
 364 1409 l 1,6,-1
 364 345 l 2,7,8
 364 246 364 246 371 199 c 128,-1,9
 378 152 378 152 396.5 134 c 128,-1,10
 415 116 415 116 454 116 c 2,11,-1
 518 116 l 1,12,-1
 529 -9 l 1,13,14
 467 -18 467 -18 419 -18 c 0,0,1
EndSplineSet
EndChar

StartChar: m
Encoding: 109 109 80
Width: 1749
GlyphClass: 2
Flags: W
LayerCount: 2
Fore
SplineSet
356 525 m 2,0,1
 356 0 l 1,2,-1
 187 0 l 1,3,-1
 185 998 l 1,4,-1
 330 998 l 1,5,-1
 348 855 l 1,6,7
 392 925 392 925 467.5 972 c 128,-1,8
 543 1019 543 1019 643 1019 c 0,9,10
 767 1019 767 1019 837.5 965.5 c 128,-1,11
 908 912 908 912 933 840 c 1,12,13
 984 928 984 928 1067.5 973.5 c 128,-1,14
 1151 1019 1151 1019 1254 1019 c 0,15,16
 1413 1019 1413 1019 1498.5 922 c 128,-1,17
 1584 825 1584 825 1584 642 c 2,18,-1
 1584 0 l 1,19,-1
 1415 0 l 1,20,-1
 1415 520 l 2,21,22
 1415 592 1415 592 1412 641.5 c 128,-1,23
 1409 691 1409 691 1397.5 741.5 c 128,-1,24
 1386 792 1386 792 1366.5 821.5 c 128,-1,25
 1347 851 1347 851 1312.5 870 c 128,-1,26
 1278 889 1278 889 1229 889 c 0,27,28
 972 889 972 889 972 535 c 2,29,-1
 972 0 l 1,30,-1
 803 0 l 1,31,-1
 803 563 l 2,32,33
 803 735 803 735 762 812 c 128,-1,34
 721 889 721 889 620 889 c 0,35,36
 544 889 544 889 491.5 863 c 128,-1,37
 439 837 439 837 410 786.5 c 128,-1,38
 381 736 381 736 368.5 672.5 c 128,-1,39
 356 609 356 609 356 525 c 2,0,1
EndSplineSet
EndChar

StartChar: n
Encoding: 110 110 81
Width: 1189
GlyphClass: 2
Flags: W
LayerCount: 2
Fore
SplineSet
185 0 m 1,0,-1
 185 998 l 1,1,-1
 334 998 l 1,2,-1
 353 855 l 1,3,4
 462 1019 462 1019 679 1019 c 0,5,6
 1024 1019 1024 1019 1024 612 c 2,7,-1
 1024 0 l 1,8,-1
 849 0 l 1,9,-1
 849 623 l 2,10,11
 849 754 849 754 802 821.5 c 128,-1,12
 755 889 755 889 645 889 c 0,13,14
 491 889 491 889 425.5 800 c 128,-1,15
 360 711 360 711 360 546 c 2,16,-1
 360 0 l 1,17,-1
 185 0 l 1,0,-1
EndSplineSet
EndChar

StartChar: o
Encoding: 111 111 82
Width: 1176
GlyphClass: 2
Flags: W
LayerCount: 2
Fore
SplineSet
588 -21 m 128,-1,1
 377 -21 377 -21 249.5 125 c 128,-1,2
 122 271 122 271 122 499 c 0,3,4
 122 732 122 732 246.5 875.5 c 128,-1,5
 371 1019 371 1019 588 1019 c 128,-1,6
 805 1019 805 1019 929.5 875.5 c 128,-1,7
 1054 732 1054 732 1054 499 c 0,8,9
 1054 271 1054 271 926.5 125 c 128,-1,0
 799 -21 799 -21 588 -21 c 128,-1,1
588 112 m 128,-1,11
 736 112 736 112 807.5 217.5 c 128,-1,12
 879 323 879 323 879 497 c 0,13,14
 879 612 879 612 850 697 c 128,-1,15
 821 782 821 782 754.5 834 c 128,-1,16
 688 886 688 886 588 886 c 128,-1,17
 488 886 488 886 421 834 c 128,-1,18
 354 782 354 782 325 697 c 128,-1,19
 296 612 296 612 296 497 c 0,20,21
 296 323 296 323 368 217.5 c 128,-1,10
 440 112 440 112 588 112 c 128,-1,11
EndSplineSet
EndChar

StartChar: p
Encoding: 112 112 83
Width: 1239
GlyphClass: 2
Flags: W
LayerCount: 2
Fore
SplineSet
185 998 m 1,0,-1
 343 998 l 1,1,-1
 360 835 l 1,2,3
 401 923 401 923 491 971 c 128,-1,4
 581 1019 581 1019 688 1019 c 0,5,6
 892 1019 892 1019 1004.5 874.5 c 128,-1,7
 1117 730 1117 730 1117 494 c 0,8,9
 1117 267 1117 267 998 123 c 128,-1,10
 879 -21 879 -21 679 -21 c 0,11,12
 579 -21 579 -21 487.5 27.5 c 128,-1,13
 396 76 396 76 355 154 c 1,14,15
 360 72 360 72 360 -55 c 2,16,-1
 360 -423 l 1,17,-1
 185 -433 l 1,18,-1
 185 998 l 1,0,-1
655 107 m 128,-1,20
 795 107 795 107 868.5 212 c 128,-1,21
 942 317 942 317 942 500 c 0,22,23
 942 681 942 681 870 785.5 c 128,-1,24
 798 890 798 890 656 890 c 0,25,26
 506 890 506 890 433 792 c 128,-1,27
 360 694 360 694 360 516 c 0,28,29
 360 322 360 322 437.5 214.5 c 128,-1,19
 515 107 515 107 655 107 c 128,-1,20
EndSplineSet
EndChar

StartChar: q
Encoding: 113 113 84
Width: 1238
GlyphClass: 2
Flags: W
LayerCount: 2
Fore
SplineSet
1053 998 m 1,0,-1
 1053 -423 l 1,1,-1
 879 -433 l 1,2,-1
 879 -55 l 2,3,4
 879 70 879 70 883 136 c 1,5,6
 833 65 833 65 745 22 c 128,-1,7
 657 -21 657 -21 559 -21 c 0,8,9
 365 -21 365 -21 243.5 124 c 128,-1,10
 122 269 122 269 122 494 c 0,11,12
 122 729 122 729 238.5 874 c 128,-1,13
 355 1019 355 1019 560 1019 c 0,14,15
 665 1019 665 1019 752 970.5 c 128,-1,16
 839 922 839 922 879 835 c 1,17,-1
 896 998 l 1,18,-1
 1053 998 l 1,0,-1
587 107 m 0,19,20
 743 107 743 107 811 210 c 128,-1,21
 879 313 879 313 879 516 c 0,22,23
 879 890 879 890 587 890 c 0,24,25
 445 890 445 890 370.5 785 c 128,-1,26
 296 680 296 680 296 500 c 0,27,28
 296 317 296 317 371 212 c 128,-1,29
 446 107 446 107 587 107 c 0,19,20
EndSplineSet
EndChar

StartChar: r
Encoding: 114 114 85
Width: 786
GlyphClass: 2
Flags: W
LayerCount: 2
Fore
SplineSet
185 998 m 1,0,-1
 334 998 l 1,1,-1
 348 819 l 1,2,3
 399 904 399 904 479.5 955.5 c 128,-1,4
 560 1007 560 1007 650 1007 c 0,5,6
 696 1007 696 1007 725 1002 c 1,7,-1
 719 862 l 1,8,9
 683 869 683 869 647 869 c 0,10,11
 519 869 519 869 439.5 780.5 c 128,-1,12
 360 692 360 692 360 561 c 2,13,-1
 360 0 l 1,14,-1
 185 0 l 1,15,-1
 185 998 l 1,0,-1
EndSplineSet
EndChar

StartChar: s
Encoding: 115 115 86
Width: 909
GlyphClass: 2
Flags: W
LayerCount: 2
Fore
SplineSet
455 -21 m 0,0,1
 243 -21 243 -21 137 48 c 1,2,-1
 169 168 l 1,3,4
 301 98 301 98 447 98 c 0,5,6
 552 98 552 98 609 138.5 c 128,-1,7
 666 179 666 179 666 254 c 0,8,9
 666 320 666 320 623.5 354.5 c 128,-1,10
 581 389 581 389 443 439 c 1,11,-1
 375 465 l 1,12,13
 245 513 245 513 188 581 c 128,-1,14
 131 649 131 649 130 745 c 1,15,16
 130 864 130 864 220 941.5 c 128,-1,17
 310 1019 310 1019 473 1019 c 0,18,19
 632 1019 632 1019 770 954 c 1,20,-1
 732 845 l 1,21,22
 602 899 602 899 480 899 c 0,23,24
 388 899 388 899 334.5 857.5 c 128,-1,25
 281 816 281 816 281 751 c 0,26,27
 281 694 281 694 316.5 665.5 c 128,-1,28
 352 637 352 637 465 593 c 2,29,-1
 529 568 l 2,30,31
 682 508 682 508 745 443.5 c 128,-1,32
 808 379 808 379 808 269 c 1,33,34
 806 130 806 130 713 54.5 c 128,-1,35
 620 -21 620 -21 455 -21 c 0,0,1
EndSplineSet
EndChar

StartChar: t
Encoding: 116 116 87
Width: 858
GlyphClass: 2
Flags: W
LayerCount: 2
Fore
SplineSet
557 -18 m 0,0,1
 409 -18 409 -18 334.5 68 c 128,-1,2
 260 154 260 154 260 313 c 2,3,-1
 260 885 l 1,4,-1
 112 885 l 1,5,-1
 118 986 l 1,6,-1
 259 998 l 1,7,-1
 311 1227 l 1,8,-1
 435 1230 l 1,9,-1
 435 998 l 1,10,-1
 726 998 l 1,11,-1
 726 885 l 1,12,-1
 435 885 l 1,13,-1
 435 313 l 2,14,15
 435 200 435 200 468.5 157 c 128,-1,16
 502 114 502 114 586 114 c 0,17,18
 656 114 656 114 722 139 c 1,19,-1
 749 13 l 1,20,21
 675 -18 675 -18 557 -18 c 0,0,1
EndSplineSet
EndChar

StartChar: u
Encoding: 117 117 88
Width: 1189
GlyphClass: 2
Flags: W
LayerCount: 2
Fore
SplineSet
1004 998 m 1,0,-1
 1004 0 l 1,1,-1
 856 0 l 1,2,-1
 837 143 l 1,3,4
 798 60 798 60 710.5 19.5 c 128,-1,5
 623 -21 623 -21 509 -21 c 0,6,7
 165 -21 165 -21 165 387 c 2,8,-1
 165 998 l 1,9,-1
 339 998 l 1,10,-1
 339 375 l 2,11,12
 339 243 339 243 384 176 c 128,-1,13
 429 109 429 109 539 109 c 0,14,15
 829 109 829 109 829 452 c 2,16,-1
 829 998 l 1,17,-1
 1004 998 l 1,0,-1
EndSplineSet
EndChar

StartChar: v
Encoding: 118 118 89
Width: 1076
GlyphClass: 2
Flags: W
LayerCount: 2
Fore
SplineSet
453 0 m 1,0,-1
 61 998 l 1,1,-1
 242 998 l 1,2,-1
 544 173 l 1,3,-1
 835 998 l 1,4,-1
 1015 998 l 1,5,-1
 631 0 l 1,6,-1
 453 0 l 1,0,-1
EndSplineSet
EndChar

StartChar: w
Encoding: 119 119 90
Width: 1536
GlyphClass: 2
Flags: W
LayerCount: 2
Fore
SplineSet
70 998 m 1,0,-1
 233 998 l 1,1,-1
 441 190 l 1,2,-1
 679 998 l 1,3,-1
 862 998 l 1,4,-1
 1108 193 l 1,5,-1
 1306 998 l 1,6,-1
 1466 998 l 1,7,-1
 1191 0 l 1,8,-1
 1032 0 l 1,9,-1
 771 855 l 1,10,-1
 518 0 l 1,11,-1
 351 0 l 1,12,-1
 70 998 l 1,0,-1
EndSplineSet
EndChar

StartChar: x
Encoding: 120 120 91
Width: 1043
GlyphClass: 2
Flags: W
LayerCount: 2
Fore
SplineSet
520 623 m 1,0,-1
 787 998 l 1,1,-1
 979 998 l 1,2,-1
 618 506 l 1,3,-1
 988 0 l 1,4,-1
 802 0 l 1,5,-1
 520 396 l 1,6,-1
 239 0 l 1,7,-1
 55 0 l 1,8,-1
 421 508 l 1,9,-1
 69 998 l 1,10,-1
 253 998 l 1,11,-1
 520 623 l 1,0,-1
EndSplineSet
EndChar

StartChar: y
Encoding: 121 121 92
Width: 1066
GlyphClass: 2
Flags: W
LayerCount: 2
Fore
SplineSet
113 -412 m 1,0,1
 107 -281 l 1,2,3
 114 -283 114 -283 173.5 -288.5 c 128,-1,4
 233 -294 233 -294 252 -294 c 0,5,6
 329 -294 329 -294 376 -259.5 c 128,-1,7
 423 -225 423 -225 455 -124 c 0,8,9
 468 -84 468 -84 491 33 c 1,10,-1
 53 998 l 1,11,-1
 241 998 l 1,12,-1
 572 199 l 1,13,-1
 826 998 l 1,14,-1
 1014 998 l 1,15,-1
 604 -161 l 1,16,17
 547 -311 547 -311 472.5 -370 c 128,-1,18
 398 -429 398 -429 273 -429 c 0,19,20
 250 -429 250 -429 189 -422.5 c 128,-1,21
 128 -416 128 -416 113 -412 c 1,0,1
EndSplineSet
EndChar

StartChar: z
Encoding: 122 122 93
Width: 910
GlyphClass: 2
Flags: W
LayerCount: 2
Fore
SplineSet
137 998 m 1,0,-1
 797 998 l 1,1,-1
 797 873 l 1,2,-1
 295 120 l 1,3,-1
 814 120 l 1,4,-1
 814 0 l 1,5,-1
 116 0 l 1,6,-1
 116 117 l 1,7,-1
 627 878 l 1,8,-1
 137 878 l 1,9,-1
 137 998 l 1,0,-1
EndSplineSet
EndChar

StartChar: braceleft
Encoding: 123 123 94
Width: 717
GlyphClass: 2
Flags: W
LayerCount: 2
Fore
SplineSet
619 -130 m 1,0,1
 619 -256 l 1,2,3
 449 -255 449 -255 373.5 -179.5 c 128,-1,4
 298 -104 298 -104 298 56 c 2,5,-1
 298 245 l 2,6,7
 298 310 298 310 291 352.5 c 128,-1,8
 284 395 284 395 264.5 432.5 c 128,-1,9
 245 470 245 470 205.5 488 c 128,-1,10
 166 506 166 506 104 506 c 1,11,-1
 104 638 l 1,12,13
 161 639 161 639 198 651.5 c 128,-1,14
 235 664 235 664 255 680.5 c 128,-1,15
 275 697 275 697 285 736 c 128,-1,16
 295 775 295 775 296.5 805 c 128,-1,17
 298 835 298 835 298 898 c 2,18,-1
 298 1119 l 2,19,20
 298 1259 298 1259 380 1329.5 c 128,-1,21
 462 1400 462 1400 619 1400 c 1,22,-1
 619 1275 l 1,23,24
 520 1274 520 1274 484.5 1228 c 128,-1,25
 449 1182 449 1182 449 1067 c 2,26,-1
 449 826 l 2,27,28
 449 744 449 744 408.5 683 c 128,-1,29
 368 622 368 622 280 570 c 1,30,31
 367 542 367 542 408 474 c 128,-1,32
 449 406 449 406 449 318 c 2,33,-1
 449 76 l 2,34,35
 449 -41 449 -41 484.5 -85 c 128,-1,36
 520 -129 520 -129 619 -130 c 1,0,1
EndSplineSet
EndChar

StartChar: bar
Encoding: 124 124 95
Width: 488
GlyphClass: 2
Flags: W
LayerCount: 2
Fore
SplineSet
178 -276 m 1,0,-1
 178 1525 l 1,1,-1
 310 1525 l 1,2,-1
 310 -276 l 1,3,-1
 178 -276 l 1,0,-1
EndSplineSet
EndChar

StartChar: braceright
Encoding: 125 125 96
Width: 726
GlyphClass: 2
Flags: W
LayerCount: 2
Fore
SplineSet
101 -256 m 1,0,1
 101 -130 l 1,2,3
 199 -129 199 -129 235 -84.5 c 128,-1,4
 271 -40 271 -40 271 76 c 2,5,-1
 271 318 l 2,6,7
 271 403 271 403 306.5 456.5 c 128,-1,8
 342 510 342 510 439 575 c 1,9,10
 353 602 353 602 312 670 c 128,-1,11
 271 738 271 738 271 826 c 2,12,-1
 271 1067 l 2,13,14
 271 1182 271 1182 235.5 1228 c 128,-1,15
 200 1274 200 1274 101 1275 c 1,16,-1
 101 1400 l 1,17,18
 269 1400 269 1400 345 1323.5 c 128,-1,19
 421 1247 421 1247 421 1087 c 2,20,-1
 421 898 l 2,21,22
 421 832 421 832 427 790.5 c 128,-1,23
 433 749 433 749 452.5 711.5 c 128,-1,24
 472 674 472 674 512.5 656.5 c 128,-1,25
 553 639 553 639 617 638 c 1,26,-1
 617 506 l 1,27,28
 555 506 555 506 515 488 c 128,-1,29
 475 470 475 470 455 433 c 128,-1,30
 435 396 435 396 428 353 c 128,-1,31
 421 310 421 310 421 245 c 2,32,-1
 421 25 l 2,33,34
 421 -254 421 -254 101 -256 c 1,0,1
EndSplineSet
EndChar

StartChar: asciitilde
Encoding: 126 126 97
Width: 1132
GlyphClass: 2
Flags: W
LayerCount: 2
Fore
SplineSet
147 458 m 1,0,1
 100 553 l 1,2,3
 135 634 135 634 197.5 683.5 c 128,-1,4
 260 733 260 733 347 733 c 0,5,6
 400 733 400 733 448.5 719 c 128,-1,7
 497 705 497 705 571 672 c 0,8,9
 577 669 577 669 598.5 659.5 c 128,-1,10
 620 650 620 650 627 647 c 128,-1,11
 634 644 634 644 652.5 636.5 c 128,-1,12
 671 629 671 629 678.5 626 c 128,-1,13
 686 623 686 623 701 617.5 c 128,-1,14
 716 612 716 612 725 610 c 128,-1,15
 734 608 734 608 745.5 605 c 128,-1,16
 757 602 757 602 766.5 601 c 128,-1,17
 776 600 776 600 785 600 c 0,18,19
 839 600 839 600 890 640 c 128,-1,20
 941 680 941 680 975 742 c 1,21,-1
 1026 654 l 1,22,23
 990 567 990 567 928.5 518.5 c 128,-1,24
 867 470 867 470 781 470 c 0,25,26
 703 470 703 470 567 531 c 1,27,28
 483 570 483 570 435 586.5 c 128,-1,29
 387 603 387 603 343 603 c 0,30,31
 284 603 284 603 232.5 562 c 128,-1,32
 181 521 181 521 147 458 c 1,0,1
EndSplineSet
EndChar

StartChar: exclamdown
Encoding: 161 161 99
Width: 557
GlyphClass: 2
Flags: W
LayerCount: 2
Fore
SplineSet
369 -125 m 1,0,-1
 369 -254 l 1,1,-1
 190 -254 l 1,2,-1
 190 -125 l 1,3,-1
 241 711 l 1,4,-1
 313 711 l 1,5,-1
 369 -125 l 1,0,-1
279 878 m 128,-1,7
 222 878 222 878 190 913.5 c 128,-1,8
 158 949 158 949 158 998 c 128,-1,9
 158 1047 158 1047 190 1082.5 c 128,-1,10
 222 1118 222 1118 279 1118 c 128,-1,11
 336 1118 336 1118 368 1082.5 c 128,-1,12
 400 1047 400 1047 400 998 c 128,-1,13
 400 949 400 949 368 913.5 c 128,-1,6
 336 878 336 878 279 878 c 128,-1,7
EndSplineSet
EndChar

StartChar: cent
Encoding: 162 162 100
Width: 977
GlyphClass: 2
Flags: W
LayerCount: 2
Fore
SplineSet
543 1 m 1,0,-1
 543 155 l 1,1,2
 407 167 407 167 307 241.5 c 128,-1,3
 207 316 207 316 158 428.5 c 128,-1,4
 109 541 109 541 109 675 c 1,5,6
 110 807 110 807 161 920 c 128,-1,7
 212 1033 212 1033 312 1108.5 c 128,-1,8
 412 1184 412 1184 543 1196 c 1,9,-1
 543 1361 l 1,10,-1
 630 1361 l 1,11,-1
 630 1196 l 1,12,13
 780 1187 780 1187 861 1111 c 1,14,-1
 823 1003 l 1,15,16
 736 1062 736 1062 630 1070 c 1,17,-1
 630 279 l 1,18,19
 734 288 734 288 824 353 c 1,20,-1
 862 244 l 1,21,22
 777 165 777 165 630 155 c 1,23,-1
 630 1 l 1,24,-1
 543 1 l 1,0,-1
543 282 m 1,25,26
 543 1068 l 1,27,28
 421 1049 421 1049 343 939 c 128,-1,29
 265 829 265 829 265 671 c 0,30,31
 265 515 265 515 341 408.5 c 128,-1,32
 417 302 417 302 543 282 c 1,25,26
EndSplineSet
EndChar

StartChar: sterling
Encoding: 163 163 101
Width: 1072
GlyphClass: 2
Flags: W
LayerCount: 2
Fore
SplineSet
108 0 m 1,0,-1
 98 126 l 1,1,2
 188 160 188 160 227 228.5 c 128,-1,3
 266 297 266 297 266 409 c 2,4,-1
 266 620 l 1,5,-1
 96 620 l 1,6,-1
 96 742 l 1,7,-1
 266 742 l 1,8,-1
 266 829 l 2,9,10
 266 920 266 920 275 993 c 128,-1,11
 284 1066 284 1066 309.5 1138.5 c 128,-1,12
 335 1211 335 1211 377 1259.5 c 128,-1,13
 419 1308 419 1308 489.5 1338 c 128,-1,14
 560 1368 560 1368 654 1368 c 0,15,16
 838 1368 838 1368 979 1249 c 1,17,-1
 908 1140 l 1,18,19
 783 1235 783 1235 655 1235 c 0,20,21
 529 1235 529 1235 475.5 1149.5 c 128,-1,22
 422 1064 422 1064 422 904 c 2,23,-1
 422 742 l 1,24,-1
 795 742 l 1,25,-1
 795 620 l 1,26,-1
 422 620 l 1,27,-1
 422 472 l 2,28,29
 422 347 422 347 400 268.5 c 128,-1,30
 378 190 378 190 311 139 c 1,31,32
 386 144 386 144 397 144 c 2,33,-1
 993 144 l 1,34,-1
 993 0 l 1,35,-1
 108 0 l 1,0,-1
EndSplineSet
EndChar

StartChar: currency
Encoding: 164 164 102
Width: 1180
GlyphClass: 2
Flags: W
LayerCount: 2
Fore
SplineSet
1062 278 m 1,0,-1
 999 211 l 1,1,-1
 829 371 l 1,2,3
 726 287 726 287 591 287 c 0,4,5
 452 287 452 287 351 371 c 1,6,-1
 184 212 l 1,7,-1
 117 278 l 1,8,-1
 286 439 l 1,9,10
 210 544 210 544 210 666 c 0,11,12
 210 789 210 789 286 893 c 1,13,-1
 116 1056 l 1,14,-1
 184 1121 l 1,15,-1
 351 962 l 1,16,17
 452 1046 452 1046 591 1046 c 0,18,19
 727 1046 727 1046 829 961 c 1,20,-1
 999 1121 l 1,21,-1
 1063 1054 l 1,22,-1
 895 893 l 1,23,24
 971 785 971 785 971 666 c 0,25,26
 971 541 971 541 896 439 c 1,27,-1
 1062 278 l 1,0,-1
591 385 m 128,-1,29
 708 385 708 385 790.5 467.5 c 128,-1,30
 873 550 873 550 873 666 c 128,-1,31
 873 782 873 782 790.5 865 c 128,-1,32
 708 948 708 948 591 948 c 128,-1,33
 474 948 474 948 391.5 865 c 128,-1,34
 309 782 309 782 309 666 c 0,35,36
 309 549 309 549 391.5 467 c 128,-1,28
 474 385 474 385 591 385 c 128,-1,29
EndSplineSet
EndChar

StartChar: yen
Encoding: 165 165 103
Width: 1183
GlyphClass: 2
Flags: W
LayerCount: 2
Fore
SplineSet
520 385 m 1,0,-1
 520 551 l 1,1,-1
 199 551 l 1,2,-1
 199 663 l 1,3,-1
 476 663 l 1,4,-1
 99 1346 l 1,5,-1
 261 1346 l 1,6,-1
 592 733 l 1,7,-1
 928 1346 l 1,8,-1
 1085 1346 l 1,9,-1
 700 663 l 1,10,-1
 978 663 l 1,11,-1
 978 551 l 1,12,-1
 663 551 l 1,13,-1
 663 385 l 1,14,-1
 979 385 l 1,15,-1
 979 272 l 1,16,-1
 663 272 l 1,17,-1
 663 0 l 1,18,-1
 520 0 l 1,19,-1
 520 272 l 1,20,-1
 198 272 l 1,21,-1
 198 385 l 1,22,-1
 520 385 l 1,0,-1
EndSplineSet
EndChar

StartChar: brokenbar
Encoding: 166 166 104
Width: 399
GlyphClass: 2
Flags: W
LayerCount: 2
Fore
SplineSet
134 -363 m 1,0,-1
 134 282 l 1,1,-1
 267 282 l 1,2,-1
 267 -363 l 1,3,-1
 134 -363 l 1,0,-1
134 794 m 1,4,-1
 134 1437 l 1,5,-1
 267 1437 l 1,6,-1
 267 794 l 1,7,-1
 134 794 l 1,4,-1
EndSplineSet
EndChar

StartChar: section
Encoding: 167 167 105
Width: 927
GlyphClass: 2
Flags: W
LayerCount: 2
Fore
SplineSet
147 1189 m 0,0,1
 147 1314 147 1314 248.5 1378.5 c 128,-1,2
 350 1443 350 1443 523 1443 c 0,3,4
 636 1443 636 1443 763 1392 c 1,5,6
 759 1369 759 1369 751 1325.5 c 128,-1,7
 743 1282 743 1282 739 1260 c 1,8,9
 616 1316 616 1316 499 1316 c 0,10,11
 291 1316 291 1316 291 1193 c 0,12,13
 291 1137 291 1137 339.5 1097.5 c 128,-1,14
 388 1058 388 1058 521 1006 c 1,15,16
 667 946 667 946 734.5 880.5 c 128,-1,17
 802 815 802 815 802 718 c 0,18,19
 802 640 802 640 762.5 575 c 128,-1,20
 723 510 723 510 656 468 c 1,21,22
 792 391 792 391 792 253 c 0,23,24
 792 121 792 121 687.5 47.5 c 128,-1,25
 583 -26 583 -26 408 -26 c 0,26,27
 239 -26 239 -26 134 27 c 1,28,-1
 134 168 l 1,29,30
 267 99 267 99 410 99 c 0,31,32
 522 99 522 99 584.5 137.5 c 128,-1,33
 647 176 647 176 647 242 c 0,34,35
 647 268 647 268 637.5 288 c 128,-1,36
 628 308 628 308 615.5 322.5 c 128,-1,37
 603 337 603 337 569.5 355 c 128,-1,38
 536 373 536 373 509.5 384.5 c 128,-1,39
 483 396 483 396 424 420 c 1,40,41
 267 480 267 480 198.5 548 c 128,-1,42
 130 616 130 616 130 725 c 0,43,44
 130 804 130 804 171 866 c 128,-1,45
 212 928 212 928 281 964 c 1,46,47
 213 1007 213 1007 180 1059.5 c 128,-1,48
 147 1112 147 1112 147 1189 c 0,0,1
481 548 m 1,49,50
 533 526 l 1,51,52
 663 605 663 605 663 699 c 0,53,54
 663 730 663 730 649 756.5 c 128,-1,55
 635 783 635 783 615.5 801 c 128,-1,56
 596 819 596 819 556.5 839.5 c 128,-1,57
 517 860 517 860 486.5 872 c 128,-1,58
 456 884 456 884 399 905 c 1,59,60
 341 880 341 880 304.5 837.5 c 128,-1,61
 268 795 268 795 268 740 c 0,62,63
 268 677 268 677 316 635.5 c 128,-1,64
 364 594 364 594 481 548 c 1,49,50
EndSplineSet
EndChar

StartChar: dieresis
Encoding: 168 168 106
Width: 700
GlyphClass: 2
Flags: W
LayerCount: 2
Fore
SplineSet
107 1141 m 1,0,-1
 107 1334 l 1,1,-1
 248 1334 l 1,2,-1
 248 1141 l 1,3,-1
 107 1141 l 1,0,-1
462 1141 m 1,4,-1
 462 1334 l 1,5,-1
 603 1334 l 1,6,-1
 603 1141 l 1,7,-1
 462 1141 l 1,4,-1
EndSplineSet
EndChar

StartChar: copyright
Encoding: 169 169 107
Width: 1671
GlyphClass: 2
Flags: W
LayerCount: 2
Fore
SplineSet
834 246 m 0,0,1
 646 246 646 246 524 379 c 128,-1,2
 402 512 402 512 402 714 c 0,3,4
 402 918 402 918 524 1051 c 128,-1,5
 646 1184 646 1184 844 1184 c 0,6,7
 1006 1184 1006 1184 1124 1102 c 1,8,-1
 1069 1014 l 1,9,10
 1028 1043 1028 1043 964.5 1059.5 c 128,-1,11
 901 1076 901 1076 835 1076 c 0,12,13
 758 1076 758 1076 697.5 1047 c 128,-1,14
 637 1018 637 1018 600.5 967.5 c 128,-1,15
 564 917 564 917 545 854 c 128,-1,16
 526 791 526 791 526 718 c 0,17,18
 526 555 526 555 609 453.5 c 128,-1,19
 692 352 692 352 853 352 c 0,20,21
 915 352 915 352 983.5 371.5 c 128,-1,22
 1052 391 1052 391 1091 418 c 1,23,-1
 1127 320 l 1,24,25
 1077 288 1077 288 996.5 267 c 128,-1,26
 916 246 916 246 834 246 c 0,0,1
828 61 m 0,27,28
 978 61 978 61 1098 112 c 128,-1,29
 1218 163 1218 163 1294.5 251.5 c 128,-1,30
 1371 340 1371 340 1411.5 456.5 c 128,-1,31
 1452 573 1452 573 1452 708 c 128,-1,32
 1452 843 1452 843 1411 960 c 128,-1,33
 1370 1077 1370 1077 1293 1166.5 c 128,-1,34
 1216 1256 1216 1256 1095 1307.5 c 128,-1,35
 974 1359 974 1359 824 1359 c 0,36,37
 682 1359 682 1359 565.5 1307.5 c 128,-1,38
 449 1256 449 1256 373.5 1167.5 c 128,-1,39
 298 1079 298 1079 257.5 962 c 128,-1,40
 217 845 217 845 217 713 c 0,41,42
 217 578 217 578 257.5 460 c 128,-1,43
 298 342 298 342 374 252.5 c 128,-1,44
 450 163 450 163 567 112 c 128,-1,45
 684 61 684 61 828 61 c 0,27,28
828 -24 m 0,46,47
 719 -24 719 -24 616.5 5 c 128,-1,48
 514 34 514 34 422.5 94.5 c 128,-1,49
 331 155 331 155 262.5 240.5 c 128,-1,50
 194 326 194 326 154 447 c 128,-1,51
 114 568 114 568 114 711 c 0,52,53
 114 888 114 888 174.5 1030.5 c 128,-1,54
 235 1173 235 1173 336 1261.5 c 128,-1,55
 437 1350 437 1350 562 1396.5 c 128,-1,56
 687 1443 687 1443 824 1443 c 0,57,58
 939 1443 939 1443 1045.5 1414 c 128,-1,59
 1152 1385 1152 1385 1245 1325 c 128,-1,60
 1338 1265 1338 1265 1407 1179.5 c 128,-1,61
 1476 1094 1476 1094 1515.5 973.5 c 128,-1,62
 1555 853 1555 853 1555 711 c 0,63,64
 1555 568 1555 568 1515.5 447 c 128,-1,65
 1476 326 1476 326 1408 240 c 128,-1,66
 1340 154 1340 154 1247.5 94 c 128,-1,67
 1155 34 1155 34 1049 5 c 128,-1,68
 943 -24 943 -24 828 -24 c 0,46,47
EndSplineSet
EndChar

StartChar: ordfeminine
Encoding: 170 170 108
Width: 751
GlyphClass: 2
Flags: W
LayerCount: 2
Fore
SplineSet
328 752 m 0,0,1
 240 752 240 752 183 808 c 128,-1,2
 126 864 126 864 126 956 c 0,3,4
 126 1007 126 1007 145.5 1044.5 c 128,-1,5
 165 1082 165 1082 195.5 1104 c 128,-1,6
 226 1126 226 1126 278 1141 c 128,-1,7
 330 1156 330 1156 379.5 1162 c 128,-1,8
 429 1168 429 1168 503 1173 c 1,9,-1
 503 1189 l 1,10,11
 501 1271 501 1271 475.5 1305.5 c 128,-1,12
 450 1340 450 1340 385 1340 c 0,13,14
 323 1340 323 1340 278.5 1325.5 c 128,-1,15
 234 1311 234 1311 189 1260 c 1,16,-1
 134 1331 l 1,17,18
 223 1447 223 1447 390 1447 c 0,19,20
 486 1447 486 1447 548 1388.5 c 128,-1,21
 610 1330 610 1330 610 1210 c 2,22,-1
 608 894 l 2,23,24
 608 854 608 854 613 771 c 1,25,-1
 506 771 l 1,26,-1
 503 843 l 1,27,28
 443 752 443 752 328 752 c 0,0,1
131 578 m 1,29,-1
 131 674 l 1,30,-1
 627 674 l 1,31,-1
 627 578 l 1,32,-1
 131 578 l 1,29,-1
345 853 m 0,33,34
 421 853 421 853 460 912.5 c 128,-1,35
 499 972 499 972 503 1063 c 1,36,-1
 503 1087 l 1,37,38
 490 1086 490 1086 453.5 1083 c 128,-1,39
 417 1080 417 1080 399 1077.5 c 128,-1,40
 381 1075 381 1075 350.5 1069.5 c 128,-1,41
 320 1064 320 1064 303.5 1055.5 c 128,-1,42
 287 1047 287 1047 268.5 1033.5 c 128,-1,43
 250 1020 250 1020 242 1000 c 128,-1,44
 234 980 234 980 234 954 c 0,45,46
 234 853 234 853 345 853 c 0,33,34
EndSplineSet
EndChar

StartChar: guillemotleft
Encoding: 171 171 109
Width: 941
GlyphClass: 2
Flags: W
LayerCount: 2
Fore
SplineSet
495 851 m 1,0,-1
 246 511 l 1,1,-1
 490 168 l 1,2,-1
 362 136 l 1,3,-1
 116 473 l 1,4,-1
 98 516 l 1,5,-1
 365 883 l 1,6,-1
 495 851 l 1,0,-1
592 511 m 1,7,-1
 824 168 l 1,8,-1
 709 136 l 1,9,-1
 434 516 l 1,10,-1
 711 883 l 1,11,-1
 827 851 l 1,12,-1
 592 511 l 1,7,-1
EndSplineSet
EndChar

StartChar: logicalnot
Encoding: 172 172 110
Width: 1128
GlyphClass: 2
Flags: W
LayerCount: 2
Fore
SplineSet
1008 751 m 1,0,-1
 1008 237 l 1,1,-1
 885 237 l 1,2,-1
 885 620 l 1,3,-1
 106 620 l 1,4,-1
 106 751 l 1,5,-1
 1008 751 l 1,0,-1
EndSplineSet
EndChar

StartChar: uni00AD
Encoding: 173 173 111
Width: 860
GlyphClass: 2
Flags: W
LayerCount: 2
Fore
SplineSet
98 215 m 1,0,-1
 98 351 l 1,1,-1
 767 351 l 1,2,-1
 767 215 l 1,3,-1
 98 215 l 1,0,-1
EndSplineSet
EndChar

StartChar: registered
Encoding: 174 174 112
Width: 1671
GlyphClass: 2
Flags: W
LayerCount: 2
Fore
SplineSet
552 274 m 1,0,-1
 552 1162 l 1,1,-1
 838 1162 l 2,2,3
 1190 1162 1190 1162 1190 916 c 0,4,5
 1190 818 1190 818 1134.5 751 c 128,-1,6
 1079 684 1079 684 954 669 c 1,7,8
 984 646 984 646 1013 606.5 c 128,-1,9
 1042 567 1042 567 1064 528 c 128,-1,10
 1086 489 1086 489 1128.5 412 c 128,-1,11
 1171 335 1171 335 1208 274 c 1,12,-1
 1073 274 l 1,13,14
 1066 287 1066 287 1011 393.5 c 128,-1,15
 956 500 956 500 916 562 c 128,-1,16
 876 624 876 624 839 652 c 1,17,-1
 672 652 l 1,18,-1
 672 274 l 1,19,-1
 552 274 l 1,0,-1
672 1046 m 1,20,-1
 672 767 l 1,21,-1
 838 767 l 2,22,23
 947 767 947 767 996.5 796.5 c 128,-1,24
 1046 826 1046 826 1046 909 c 0,25,26
 1046 994 1046 994 999 1020 c 128,-1,27
 952 1046 952 1046 829 1046 c 2,28,-1
 672 1046 l 1,20,-1
828 61 m 0,29,30
 978 61 978 61 1098 112 c 128,-1,31
 1218 163 1218 163 1294.5 251.5 c 128,-1,32
 1371 340 1371 340 1411.5 456.5 c 128,-1,33
 1452 573 1452 573 1452 708 c 128,-1,34
 1452 843 1452 843 1411 960 c 128,-1,35
 1370 1077 1370 1077 1293 1166.5 c 128,-1,36
 1216 1256 1216 1256 1095 1307.5 c 128,-1,37
 974 1359 974 1359 824 1359 c 0,38,39
 682 1359 682 1359 565.5 1307.5 c 128,-1,40
 449 1256 449 1256 373.5 1167.5 c 128,-1,41
 298 1079 298 1079 257.5 962 c 128,-1,42
 217 845 217 845 217 713 c 0,43,44
 217 578 217 578 257.5 460 c 128,-1,45
 298 342 298 342 374 252.5 c 128,-1,46
 450 163 450 163 567 112 c 128,-1,47
 684 61 684 61 828 61 c 0,29,30
828 -24 m 0,48,49
 719 -24 719 -24 616.5 5 c 128,-1,50
 514 34 514 34 422.5 94.5 c 128,-1,51
 331 155 331 155 262.5 240.5 c 128,-1,52
 194 326 194 326 154 447 c 128,-1,53
 114 568 114 568 114 711 c 0,54,55
 114 888 114 888 174.5 1030.5 c 128,-1,56
 235 1173 235 1173 336 1261.5 c 128,-1,57
 437 1350 437 1350 562 1396.5 c 128,-1,58
 687 1443 687 1443 824 1443 c 0,59,60
 939 1443 939 1443 1045.5 1414 c 128,-1,61
 1152 1385 1152 1385 1245 1325 c 128,-1,62
 1338 1265 1338 1265 1407 1179.5 c 128,-1,63
 1476 1094 1476 1094 1515.5 973.5 c 128,-1,64
 1555 853 1555 853 1555 711 c 0,65,66
 1555 568 1555 568 1515.5 447 c 128,-1,67
 1476 326 1476 326 1408 240 c 128,-1,68
 1340 154 1340 154 1247.5 94 c 128,-1,69
 1155 34 1155 34 1049 5 c 128,-1,70
 943 -24 943 -24 828 -24 c 0,48,49
EndSplineSet
EndChar

StartChar: macron
Encoding: 175 175 113
Width: 966
GlyphClass: 2
Flags: W
LayerCount: 2
Fore
SplineSet
181 1352 m 1,0,-1
 181 1479 l 1,1,-1
 789 1479 l 1,2,-1
 789 1352 l 1,3,-1
 181 1352 l 1,0,-1
EndSplineSet
EndChar

StartChar: degree
Encoding: 176 176 114
Width: 766
GlyphClass: 2
Flags: W
LayerCount: 2
Fore
SplineSet
382 919 m 128,-1,1
 453 919 453 919 503.5 971.5 c 128,-1,2
 554 1024 554 1024 554 1097 c 0,3,4
 554 1171 554 1171 503.5 1222 c 128,-1,5
 453 1273 453 1273 382 1273 c 0,6,7
 312 1273 312 1273 261 1222 c 128,-1,8
 210 1171 210 1171 210 1097 c 128,-1,9
 210 1023 210 1023 260.5 971 c 128,-1,0
 311 919 311 919 382 919 c 128,-1,1
381 809 m 0,10,11
 265 809 265 809 181.5 894 c 128,-1,12
 98 979 98 979 98 1097 c 128,-1,13
 98 1215 98 1215 181.5 1298.5 c 128,-1,14
 265 1382 265 1382 381 1382 c 0,15,16
 498 1382 498 1382 581.5 1298.5 c 128,-1,17
 665 1215 665 1215 665 1097 c 0,18,19
 665 981 665 981 582 895 c 128,-1,20
 499 809 499 809 381 809 c 0,10,11
EndSplineSet
EndChar

StartChar: plusminus
Encoding: 177 177 115
Width: 1126
GlyphClass: 2
Flags: W
LayerCount: 2
Fore
SplineSet
499 719 m 1,0,-1
 499 1097 l 1,1,-1
 622 1097 l 1,2,-1
 622 719 l 1,3,-1
 1003 719 l 1,4,-1
 1003 589 l 1,5,-1
 624 589 l 1,6,-1
 624 212 l 1,7,-1
 500 212 l 1,8,-1
 500 589 l 1,9,-1
 122 589 l 1,10,-1
 122 719 l 1,11,-1
 499 719 l 1,0,-1
122 0 m 1,12,-1
 122 130 l 1,13,-1
 1005 130 l 1,14,-1
 1005 0 l 1,15,-1
 122 0 l 1,12,-1
EndSplineSet
EndChar

StartChar: uni00B2
Encoding: 178 178 116
Width: 683
GlyphClass: 2
Flags: W
LayerCount: 2
Fore
SplineSet
558 592 m 1,0,-1
 120 592 l 1,1,-1
 120 700 l 1,2,3
 171 757 171 757 191.5 780.5 c 128,-1,4
 212 804 212 804 254 852 c 128,-1,5
 296 900 296 900 313.5 922.5 c 128,-1,6
 331 945 331 945 360.5 983 c 128,-1,7
 390 1021 390 1021 402.5 1043 c 128,-1,8
 415 1065 415 1065 430.5 1093.5 c 128,-1,9
 446 1122 446 1122 451.5 1144 c 128,-1,10
 457 1166 457 1166 457 1186 c 0,11,12
 457 1236 457 1236 427 1266 c 128,-1,13
 397 1296 397 1296 344 1296 c 0,14,15
 247 1296 247 1296 196 1167 c 1,16,-1
 128 1244 l 1,17,18
 155 1323 155 1323 214 1367 c 128,-1,19
 273 1411 273 1411 350 1411 c 0,20,21
 441 1411 441 1411 500.5 1349.5 c 128,-1,22
 560 1288 560 1288 560 1188 c 0,23,24
 560 1139 560 1139 544 1089 c 128,-1,25
 528 1039 528 1039 505 997 c 128,-1,26
 482 955 482 955 440 901 c 128,-1,27
 398 847 398 847 362.5 808 c 128,-1,28
 327 769 327 769 268 708 c 1,29,-1
 558 708 l 1,30,-1
 558 592 l 1,0,-1
EndSplineSet
EndChar

StartChar: uni00B3
Encoding: 179 179 117
Width: 676
GlyphClass: 2
Flags: W
LayerCount: 2
Fore
SplineSet
318 574 m 0,0,1
 199 574 199 574 119 669 c 1,2,-1
 169 763 l 1,3,4
 239 685 239 685 314 685 c 0,5,6
 373 685 373 685 412.5 722.5 c 128,-1,7
 452 760 452 760 452 822 c 0,8,9
 452 952 452 952 279 952 c 2,10,-1
 236 952 l 1,11,-1
 236 1068 l 1,12,-1
 276 1068 l 2,13,14
 434 1068 434 1068 434 1186 c 0,15,16
 434 1241 434 1241 402.5 1268.5 c 128,-1,17
 371 1296 371 1296 319 1296 c 0,18,19
 245 1296 245 1296 167 1218 c 1,20,-1
 119 1312 l 1,21,22
 157 1357 157 1357 211 1385 c 128,-1,23
 265 1413 265 1413 321 1413 c 0,24,25
 410 1413 410 1413 474.5 1351.5 c 128,-1,26
 539 1290 539 1290 539 1188 c 0,27,28
 539 1068 539 1068 452 1012 c 1,29,30
 557 955 557 955 557 818 c 0,31,32
 557 708 557 708 488 641 c 128,-1,33
 419 574 419 574 318 574 c 0,0,1
EndSplineSet
EndChar

StartChar: acute
Encoding: 180 180 118
Width: 581
GlyphClass: 2
Flags: W
LayerCount: 2
Fore
SplineSet
116 1138 m 1,0,-1
 286 1491 l 1,1,-1
 516 1491 l 1,2,-1
 220 1138 l 1,3,-1
 116 1138 l 1,0,-1
EndSplineSet
EndChar

StartChar: paragraph
Encoding: 182 182 119
Width: 1043
GlyphClass: 2
Flags: W
LayerCount: 2
Fore
SplineSet
557 -144 m 1,0,-1
 443 -144 l 1,1,-1
 443 771 l 1,2,3
 296 774 296 774 196.5 875 c 128,-1,4
 97 976 97 976 97 1103 c 0,5,6
 97 1165 97 1165 120 1220.5 c 128,-1,7
 143 1276 143 1276 190 1321.5 c 128,-1,8
 237 1367 237 1367 318 1394 c 128,-1,9
 399 1421 399 1421 505 1421 c 2,10,-1
 929 1421 l 1,11,-1
 929 1301 l 1,12,-1
 861 1301 l 1,13,-1
 861 -144 l 1,14,-1
 756 -144 l 1,15,-1
 756 1301 l 1,16,-1
 557 1301 l 1,17,-1
 557 -144 l 1,0,-1
EndSplineSet
EndChar

StartChar: periodcentered
Encoding: 183 183 120
Width: 372
GlyphClass: 2
Flags: W
LayerCount: 2
Fore
SplineSet
107 511 m 1,0,-1
 107 691 l 1,1,-1
 260 691 l 1,2,-1
 260 511 l 1,3,-1
 107 511 l 1,0,-1
EndSplineSet
EndChar

StartChar: cedilla
Encoding: 184 184 121
Width: 542
GlyphClass: 2
Flags: W
LayerCount: 2
Fore
SplineSet
104 -373 m 1,0,-1
 206 15 l 1,1,-1
 284 15 l 1,2,-1
 244 -373 l 1,3,-1
 104 -373 l 1,0,-1
EndSplineSet
EndChar

StartChar: uni00B9
Encoding: 185 185 122
Width: 569
GlyphClass: 2
Flags: W
LayerCount: 2
Fore
SplineSet
130 679 m 1,0,-1
 238 679 l 1,1,-1
 238 1282 l 1,2,3
 200 1257 200 1257 118 1214 c 1,4,-1
 118 1307 l 1,5,6
 204 1350 204 1350 254 1400 c 1,7,-1
 342 1400 l 1,8,-1
 342 679 l 1,9,-1
 455 679 l 1,10,-1
 455 592 l 1,11,-1
 130 592 l 1,12,-1
 130 679 l 1,0,-1
EndSplineSet
EndChar

StartChar: ordmasculine
Encoding: 186 186 123
Width: 788
GlyphClass: 2
Flags: W
LayerCount: 2
Fore
SplineSet
396 856 m 0,0,1
 478 856 478 856 524.5 925 c 128,-1,2
 571 994 571 994 571 1095 c 0,3,4
 571 1201 571 1201 523.5 1270.5 c 128,-1,5
 476 1340 476 1340 392 1340 c 0,6,7
 311 1340 311 1340 264 1270.5 c 128,-1,8
 217 1201 217 1201 217 1098 c 0,9,10
 217 991 217 991 263.5 923.5 c 128,-1,11
 310 856 310 856 396 856 c 0,0,1
396 752 m 0,12,13
 256 752 256 752 179.5 849.5 c 128,-1,14
 103 947 103 947 103 1101 c 0,15,16
 103 1251 103 1251 181 1349 c 128,-1,17
 259 1447 259 1447 394 1447 c 128,-1,18
 529 1447 529 1447 606 1348 c 128,-1,19
 683 1249 683 1249 683 1097 c 0,20,21
 683 948 683 948 606.5 850 c 128,-1,22
 530 752 530 752 396 752 c 0,12,13
EndSplineSet
EndChar

StartChar: guillemotright
Encoding: 187 187 124
Width: 960
GlyphClass: 2
Flags: W
LayerCount: 2
Fore
SplineSet
233 883 m 1,0,-1
 509 504 l 1,1,-1
 232 136 l 1,2,-1
 116 168 l 1,3,-1
 351 511 l 1,4,-1
 117 851 l 1,5,-1
 233 883 l 1,0,-1
592 883 m 1,6,-1
 855 504 l 1,7,-1
 589 136 l 1,8,-1
 462 168 l 1,9,-1
 708 511 l 1,10,-1
 467 851 l 1,11,-1
 592 883 l 1,6,-1
EndSplineSet
EndChar

StartChar: onequarter
Encoding: 188 188 125
Width: 1506
GlyphClass: 2
Flags: W
LayerCount: 2
Fore
SplineSet
133 679 m 1,0,-1
 240 679 l 1,1,-1
 240 1282 l 1,2,3
 198 1255 198 1255 121 1214 c 1,4,-1
 121 1307 l 1,5,6
 207 1350 207 1350 257 1400 c 1,7,-1
 345 1400 l 1,8,-1
 345 679 l 1,9,-1
 458 679 l 1,10,-1
 458 592 l 1,11,-1
 133 592 l 1,12,-1
 133 679 l 1,0,-1
1245 818 m 1,13,-1
 1354 818 l 1,14,-1
 1354 326 l 1,15,-1
 1440 326 l 1,16,-1
 1449 218 l 1,17,-1
 1352 218 l 1,18,-1
 1352 36 l 1,19,-1
 1254 36 l 1,20,-1
 1254 218 l 1,21,-1
 900 218 l 1,22,-1
 900 308 l 1,23,-1
 1245 818 l 1,13,-1
313 0 m 1,24,-1
 1150 1408 l 1,25,-1
 1273 1408 l 1,26,-1
 435 0 l 1,27,-1
 313 0 l 1,24,-1
1254 652 m 1,28,-1
 1030 326 l 1,29,-1
 1254 326 l 1,30,-1
 1254 652 l 1,28,-1
EndSplineSet
EndChar

StartChar: onehalf
Encoding: 189 189 126
Width: 1494
GlyphClass: 2
Flags: W
LayerCount: 2
Fore
SplineSet
133 679 m 1,0,-1
 240 679 l 1,1,-1
 240 1282 l 1,2,3
 198 1255 198 1255 121 1214 c 1,4,-1
 121 1307 l 1,5,6
 207 1350 207 1350 257 1400 c 1,7,-1
 345 1400 l 1,8,-1
 345 679 l 1,9,-1
 458 679 l 1,10,-1
 458 592 l 1,11,-1
 133 592 l 1,12,-1
 133 679 l 1,0,-1
1363 -27 m 1,13,-1
 860 -27 l 1,14,-1
 860 57 l 1,15,16
 875 72 875 72 905 102 c 0,17,18
 999 197 999 197 1048 247.5 c 128,-1,19
 1097 298 1097 298 1153.5 364 c 128,-1,20
 1210 430 1210 430 1233.5 476.5 c 128,-1,21
 1257 523 1257 523 1257 561 c 0,22,23
 1257 620 1257 620 1220 656 c 128,-1,24
 1183 692 1183 692 1132 692 c 0,25,26
 1080 692 1080 692 1028.5 663 c 128,-1,27
 977 634 977 634 938 577 c 1,28,-1
 868 636 l 1,29,30
 899 708 899 708 975 749 c 128,-1,31
 1051 790 1051 790 1136 790 c 0,32,33
 1236 790 1236 790 1305 734 c 128,-1,34
 1374 678 1374 678 1374 572 c 1,35,36
 1372 443 1372 443 1233 283 c 1,37,38
 1175 218 1175 218 1005 63 c 1,39,-1
 1363 63 l 1,40,-1
 1363 -27 l 1,13,-1
233 0 m 1,41,-1
 1070 1408 l 1,42,-1
 1193 1408 l 1,43,-1
 355 0 l 1,44,-1
 233 0 l 1,41,-1
EndSplineSet
EndChar

StartChar: threequarters
Encoding: 190 190 127
Width: 1530
GlyphClass: 2
Flags: W
LayerCount: 2
Fore
SplineSet
316 574 m 0,0,1
 198 574 198 574 118 669 c 1,2,-1
 166 763 l 1,3,4
 236 685 236 685 311 685 c 0,5,6
 370 685 370 685 411.5 723 c 128,-1,7
 453 761 453 761 453 822 c 0,8,9
 453 952 453 952 279 952 c 2,10,-1
 235 952 l 1,11,-1
 235 1068 l 1,12,-1
 275 1068 l 2,13,14
 433 1068 433 1068 433 1186 c 0,15,16
 433 1241 433 1241 402 1268.5 c 128,-1,17
 371 1296 371 1296 319 1296 c 0,18,19
 242 1296 242 1296 164 1218 c 1,20,-1
 118 1312 l 1,21,22
 156 1357 156 1357 210 1385 c 128,-1,23
 264 1413 264 1413 320 1413 c 0,24,25
 412 1413 412 1413 485.5 1351 c 128,-1,26
 559 1289 559 1289 559 1188 c 0,27,28
 559 1131 559 1131 532 1085 c 128,-1,29
 505 1039 505 1039 456 1012 c 1,30,31
 577 955 577 955 577 818 c 0,32,33
 577 709 577 709 498.5 641.5 c 128,-1,34
 420 574 420 574 316 574 c 0,0,1
1227 40 m 1,35,-1
 1227 223 l 1,36,-1
 870 223 l 1,37,-1
 870 312 l 1,38,-1
 1215 822 l 1,39,-1
 1325 822 l 1,40,-1
 1325 329 l 1,41,-1
 1412 329 l 1,42,-1
 1420 223 l 1,43,-1
 1324 223 l 1,44,-1
 1324 40 l 1,45,-1
 1227 40 l 1,35,-1
314 0 m 1,46,-1
 1149 1408 l 1,47,-1
 1280 1408 l 1,48,-1
 436 0 l 1,49,-1
 314 0 l 1,46,-1
1000 329 m 1,50,-1
 1224 329 l 1,51,52
 1226 532 1226 532 1227 656 c 1,53,-1
 1000 329 l 1,50,-1
EndSplineSet
EndChar

StartChar: questiondown
Encoding: 191 191 128
Width: 832
GlyphClass: 2
Flags: W
LayerCount: 2
Fore
SplineSet
436 980 m 1,0,1
 515 980 l 1,2,3
 515 909 515 909 474.5 809 c 128,-1,4
 434 709 434 709 385.5 626 c 128,-1,5
 337 543 337 543 296.5 449.5 c 128,-1,6
 256 356 256 356 256 297 c 0,7,8
 257 210 257 210 311 168 c 128,-1,9
 365 126 365 126 460 126 c 0,10,11
 575 126 575 126 696 200 c 1,12,13
 737 77 l 1,14,15
 626 -11 626 -11 436 -11 c 0,16,17
 289 -11 289 -11 198 67 c 128,-1,18
 107 145 107 145 107 284 c 0,19,20
 107 354 107 354 127.5 420.5 c 128,-1,21
 148 487 148 487 184.5 550 c 128,-1,22
 221 613 221 613 260.5 673 c 128,-1,23
 300 733 300 733 350 816.5 c 128,-1,24
 400 900 400 900 436 980 c 1,0,1
462 1387 m 128,-1,26
 519 1387 519 1387 551 1351.5 c 128,-1,27
 583 1316 583 1316 583 1267 c 128,-1,28
 583 1218 583 1218 551 1182.5 c 128,-1,29
 519 1147 519 1147 462 1147 c 128,-1,30
 405 1147 405 1147 373 1182.5 c 128,-1,31
 341 1218 341 1218 341 1267 c 128,-1,32
 341 1316 341 1316 373 1351.5 c 128,-1,25
 405 1387 405 1387 462 1387 c 128,-1,26
EndSplineSet
EndChar

StartChar: AE
Encoding: 198 198 135
Width: 1918
GlyphClass: 2
Flags: W
LayerCount: 2
Fore
SplineSet
1136 1282 m 1,0,-1
 1171 803 l 1,1,-1
 1745 803 l 1,2,-1
 1745 659 l 1,3,-1
 1189 659 l 1,4,-1
 1228 144 l 1,5,-1
 1795 144 l 1,6,-1
 1795 0 l 1,7,-1
 1083 0 l 1,8,-1
 1055 389 l 1,9,-1
 460 389 l 1,10,-1
 241 0 l 1,11,-1
 84 0 l 1,12,-1
 917 1427 l 1,13,-1
 1777 1427 l 1,14,-1
 1777 1282 l 1,15,-1
 1136 1282 l 1,0,-1
1035 536 m 1,16,-1
 979 1282 l 1,17,-1
 536 536 l 1,18,-1
 1035 536 l 1,16,-1
EndSplineSet
EndChar

StartChar: Eth
Encoding: 208 208 145
Width: 1490
GlyphClass: 2
Flags: W
LayerCount: 2
Fore
SplineSet
384 634 m 1,0,-1
 384 141 l 1,1,-1
 671 141 l 2,2,3
 925 141 925 141 1063.5 274.5 c 128,-1,4
 1202 408 1202 408 1202 668 c 0,5,6
 1202 794 1202 794 1172.5 890 c 128,-1,7
 1143 986 1143 986 1091 1048 c 128,-1,8
 1039 1110 1039 1110 960 1149 c 128,-1,9
 881 1188 881 1188 789 1204 c 128,-1,10
 697 1220 697 1220 581 1220 c 2,11,-1
 384 1220 l 1,12,-1
 384 757 l 1,13,-1
 604 757 l 1,14,-1
 604 634 l 1,15,-1
 384 634 l 1,0,-1
223 757 m 1,16,-1
 223 1361 l 1,17,-1
 561 1361 l 2,18,19
 707 1361 707 1361 826.5 1340 c 128,-1,20
 946 1319 946 1319 1049.5 1269.5 c 128,-1,21
 1153 1220 1153 1220 1223.5 1142 c 128,-1,22
 1294 1064 1294 1064 1334 945 c 128,-1,23
 1374 826 1374 826 1374 672 c 0,24,25
 1374 505 1374 505 1322 376.5 c 128,-1,26
 1270 248 1270 248 1175 166 c 128,-1,27
 1080 84 1080 84 948.5 42 c 128,-1,28
 817 0 817 0 654 0 c 2,29,-1
 223 0 l 1,30,-1
 223 634 l 1,31,-1
 116 634 l 1,32,-1
 116 757 l 1,33,-1
 223 757 l 1,16,-1
EndSplineSet
EndChar

StartChar: multiply
Encoding: 215 215 152
Width: 920
GlyphClass: 2
Flags: W
LayerCount: 2
Fore
SplineSet
373 550 m 1,0,-1
 114 848 l 1,1,-1
 210 935 l 1,2,-1
 460 649 l 1,3,-1
 709 935 l 1,4,-1
 805 848 l 1,5,-1
 546 550 l 1,6,-1
 805 253 l 1,7,-1
 707 165 l 1,8,-1
 460 450 l 1,9,-1
 212 165 l 1,10,-1
 114 253 l 1,11,-1
 373 550 l 1,0,-1
EndSplineSet
EndChar

StartChar: Oslash
Encoding: 216 216 153
Width: 1560
GlyphClass: 2
Flags: W
LayerCount: 2
Fore
SplineSet
500 -164 m 1,0,-1
 386 -125 l 1,1,-1
 456 48 l 1,2,3
 290 132 290 132 202.5 305 c 128,-1,4
 115 478 115 478 115 708 c 0,5,6
 115 1047 115 1047 290.5 1245 c 128,-1,7
 466 1443 466 1443 779 1443 c 0,8,9
 901 1443 901 1443 1006 1411 c 1,10,-1
 1077 1588 l 1,11,-1
 1196 1546 l 1,12,-1
 1121 1362 l 1,13,14
 1277 1275 1277 1275 1360 1107 c 128,-1,15
 1443 939 1443 939 1443 708 c 0,16,17
 1443 548 1443 548 1400 414.5 c 128,-1,18
 1357 281 1357 281 1275.5 183.5 c 128,-1,19
 1194 86 1194 86 1067 31.5 c 128,-1,20
 940 -23 940 -23 779 -23 c 0,21,22
 668 -23 668 -23 568 5 c 1,23,-1
 500 -164 l 1,0,-1
520 207 m 1,24,25
 944 1258 l 1,26,27
 870 1282 870 1282 779 1282 c 0,28,29
 659 1282 659 1282 564 1238 c 128,-1,30
 469 1194 469 1194 409.5 1116.5 c 128,-1,31
 350 1039 350 1039 319 936.5 c 128,-1,32
 288 834 288 834 288 714 c 0,33,34
 288 542 288 542 347 409.5 c 128,-1,35
 406 277 406 277 520 207 c 1,24,25
779 138 m 0,36,37
 900 138 900 138 994.5 182 c 128,-1,38
 1089 226 1089 226 1148.5 304.5 c 128,-1,39
 1208 383 1208 383 1238.5 487 c 128,-1,40
 1269 591 1269 591 1269 714 c 0,41,42
 1269 875 1269 875 1215 1002.5 c 128,-1,43
 1161 1130 1161 1130 1056 1203 c 1,44,-1
 631 157 l 1,45,46
 697 138 697 138 779 138 c 0,36,37
EndSplineSet
EndChar

StartChar: Thorn
Encoding: 222 222 159
Width: 1213
GlyphClass: 2
Flags: W
LayerCount: 2
Fore
SplineSet
298 1361 m 1,0,-1
 298 1107 l 1,1,-1
 592 1107 l 2,2,3
 848 1107 848 1107 975.5 1018 c 128,-1,4
 1103 929 1103 929 1103 720 c 0,5,6
 1103 529 1103 529 994 420 c 128,-1,7
 885 311 885 311 657 311 c 0,8,9
 650 311 650 311 298 318 c 1,10,-1
 298 0 l 1,11,-1
 136 0 l 1,12,-1
 136 1361 l 1,13,-1
 298 1361 l 1,0,-1
298 972 m 1,14,-1
 298 449 l 1,15,-1
 647 449 l 2,16,17
 949 449 949 449 949 712 c 0,18,19
 949 849 949 849 871 910.5 c 128,-1,20
 793 972 793 972 609 972 c 2,21,-1
 298 972 l 1,14,-1
EndSplineSet
EndChar

StartChar: germandbls
Encoding: 223 223 160
Width: 1103
GlyphClass: 2
Flags: W
LayerCount: 2
Fore
SplineSet
302 0 m 1,0,-1
 149 0 l 1,1,-1
 149 952 l 2,2,3
 149 1160 149 1160 251.5 1274 c 128,-1,4
 354 1388 354 1388 559 1388 c 0,5,6
 727 1388 727 1388 811 1307.5 c 128,-1,7
 895 1227 895 1227 895 1076 c 0,8,9
 895 1028 895 1028 877 980 c 128,-1,10
 859 932 859 932 832.5 894.5 c 128,-1,11
 806 857 806 857 780 823 c 128,-1,12
 754 789 754 789 736 756.5 c 128,-1,13
 718 724 718 724 718 699 c 0,14,15
 718 673 718 673 740 648 c 128,-1,16
 762 623 762 623 796 602 c 128,-1,17
 830 581 830 581 870.5 552.5 c 128,-1,18
 911 524 911 524 947.5 494 c 128,-1,19
 984 464 984 464 1012 417.5 c 128,-1,20
 1040 371 1040 371 1048 317 c 1,21,22
 1052 283 1052 283 1052 268 c 0,23,24
 1052 143 1052 143 967 62.5 c 128,-1,25
 882 -18 882 -18 748 -18 c 0,26,27
 657 -18 657 -18 570.5 4.5 c 128,-1,28
 484 27 484 27 436 56 c 1,29,-1
 490 187 l 1,30,31
 540 160 540 160 610.5 138 c 128,-1,32
 681 116 681 116 734 116 c 0,33,34
 805 116 805 116 844.5 157 c 128,-1,35
 884 198 884 198 884 259 c 0,36,37
 884 283 884 283 876 312 c 0,38,39
 864 354 864 354 826.5 393 c 128,-1,40
 789 432 789 432 745 463 c 128,-1,41
 701 494 701 494 658.5 526 c 128,-1,42
 616 558 616 558 588 598.5 c 128,-1,43
 560 639 560 639 560 684 c 0,44,45
 560 735 560 735 587 792 c 128,-1,46
 614 849 614 849 646.5 891 c 128,-1,47
 679 933 679 933 706 984.5 c 128,-1,48
 733 1036 733 1036 733 1077 c 0,49,50
 733 1160 733 1160 688 1204.5 c 128,-1,51
 643 1249 643 1249 559 1249 c 0,52,53
 302 1249 302 1249 302 961 c 2,54,-1
 302 0 l 1,0,-1
EndSplineSet
EndChar

StartChar: ae
Encoding: 230 230 167
Width: 1587
GlyphClass: 2
Flags: W
LayerCount: 2
Fore
SplineSet
408 -24 m 0,0,1
 278 -24 278 -24 195.5 47.5 c 128,-1,2
 113 119 113 119 113 273 c 0,3,4
 113 323 113 323 128 363.5 c 128,-1,5
 143 404 143 404 167 432 c 128,-1,6
 191 460 191 460 231 481 c 128,-1,7
 271 502 271 502 311 515 c 128,-1,8
 351 528 351 528 409 537 c 128,-1,9
 467 546 467 546 515.5 550 c 128,-1,10
 564 554 564 554 632 558 c 2,11,-1
 690 561 l 1,12,-1
 690 711 l 2,13,14
 690 804 690 804 650.5 846 c 128,-1,15
 611 888 611 888 517 888 c 0,16,17
 428 888 428 888 341 867 c 128,-1,18
 254 846 254 846 193 814 c 1,19,-1
 160 939 l 1,20,21
 219 973 219 973 317.5 998 c 128,-1,22
 416 1023 416 1023 513 1023 c 0,23,24
 626 1023 626 1023 704 978.5 c 128,-1,25
 782 934 782 934 802 848 c 1,26,27
 850 934 850 934 936 978.5 c 128,-1,28
 1022 1023 1022 1023 1125 1023 c 0,29,30
 1215 1023 1215 1023 1282.5 989.5 c 128,-1,31
 1350 956 1350 956 1388.5 898.5 c 128,-1,32
 1427 841 1427 841 1446 771.5 c 128,-1,33
 1465 702 1465 702 1465 622 c 0,34,35
 1465 575 1465 575 1453.5 549 c 128,-1,36
 1442 523 1442 523 1404.5 506 c 128,-1,37
 1367 489 1367 489 1295 486 c 2,38,-1
 843 463 l 1,39,40
 855 293 855 293 921.5 200.5 c 128,-1,41
 988 108 988 108 1127 108 c 0,42,43
 1207 108 1207 108 1285.5 138 c 128,-1,44
 1364 168 1364 168 1421 208 c 1,45,-1
 1468 98 l 1,46,47
 1328 -23 1328 -23 1117 -23 c 0,48,49
 933 -23 933 -23 819 102 c 1,50,51
 732 49 732 49 620.5 12.5 c 128,-1,52
 509 -24 509 -24 408 -24 c 0,0,1
419 103 m 0,53,54
 443 103 443 103 473 107.5 c 128,-1,55
 503 112 503 112 527 117 c 128,-1,56
 551 122 551 122 587.5 133 c 128,-1,57
 624 144 624 144 643.5 150.5 c 128,-1,58
 663 157 663 157 703.5 171 c 128,-1,59
 744 185 744 185 756 189 c 1,60,61
 694 302 694 302 687 454 c 1,62,63
 647 452 647 452 629 450 c 0,64,65
 485 439 485 439 405 415.5 c 128,-1,66
 325 392 325 392 295.5 357 c 128,-1,67
 266 322 266 322 266 265 c 0,68,69
 266 103 266 103 419 103 c 0,53,54
848 560 m 1,70,71
 1318 586 l 1,72,-1
 1318 595 l 1,73,74
 1316 750 1316 750 1269 822.5 c 128,-1,75
 1222 895 1222 895 1122 895 c 0,76,77
 992 895 992 895 924 802.5 c 128,-1,78
 856 710 856 710 848 560 c 1,70,71
EndSplineSet
EndChar

StartChar: eth
Encoding: 240 240 177
Width: 1164
GlyphClass: 2
Flags: W
LayerCount: 2
Fore
SplineSet
583 -23 m 0,0,1
 473 -23 473 -23 383 14.5 c 128,-1,2
 293 52 293 52 235 116 c 128,-1,3
 177 180 177 180 145.5 264 c 128,-1,4
 114 348 114 348 114 442 c 0,5,6
 114 641 114 641 234 763 c 128,-1,7
 354 885 354 885 552 885 c 0,8,9
 684 885 684 885 803 798 c 1,10,11
 727 942 727 942 527 1144 c 1,12,-1
 279 1042 l 1,13,-1
 240 1162 l 1,14,-1
 440 1241 l 1,15,-1
 226 1445 l 1,16,-1
 429 1445 l 1,17,-1
 561 1300 l 1,18,-1
 824 1403 l 1,19,-1
 866 1286 l 1,20,-1
 646 1201 l 1,21,22
 872 955 872 955 958 804 c 1,23,24
 1051 630 1051 630 1051 448 c 0,25,26
 1051 240 1051 240 929 108.5 c 128,-1,27
 807 -23 807 -23 583 -23 c 0,0,1
589 104 m 0,28,29
 732 104 732 104 813.5 196 c 128,-1,30
 895 288 895 288 895 430 c 0,31,32
 895 515 895 515 860 588.5 c 128,-1,33
 825 662 825 662 752.5 710 c 128,-1,34
 680 758 680 758 583 758 c 0,35,36
 443 758 443 758 361 667 c 128,-1,37
 279 576 279 576 279 441 c 0,38,39
 279 301 279 301 360.5 202.5 c 128,-1,40
 442 104 442 104 589 104 c 0,28,29
EndSplineSet
EndChar

StartChar: divide
Encoding: 247 247 184
Width: 1119
GlyphClass: 2
Flags: W
LayerCount: 2
Fore
SplineSet
460 20 m 1,0,-1
 460 227 l 1,1,-1
 633 227 l 1,2,-1
 633 20 l 1,3,-1
 460 20 l 1,0,-1
101 476 m 1,4,-1
 101 612 l 1,5,-1
 1012 612 l 1,6,-1
 1012 476 l 1,7,-1
 101 476 l 1,4,-1
460 854 m 1,8,-1
 460 1061 l 1,9,-1
 664 1061 l 1,10,-1
 664 854 l 1,11,-1
 460 854 l 1,8,-1
EndSplineSet
EndChar

StartChar: oslash
Encoding: 248 248 185
Width: 1158
GlyphClass: 2
Flags: W
LayerCount: 2
Fore
SplineSet
299 -250 m 1,0,-1
 235 -216 l 1,1,-1
 342 37 l 1,2,3
 230 101 230 101 169.5 223.5 c 128,-1,4
 109 346 109 346 109 498 c 0,5,6
 109 606 109 606 141 701 c 128,-1,7
 173 796 173 796 232 868 c 128,-1,8
 291 940 291 940 381.5 981.5 c 128,-1,9
 472 1023 472 1023 582 1023 c 0,10,11
 670 1023 670 1023 748 996 c 1,12,-1
 853 1244 l 1,13,-1
 923 1216 l 1,14,-1
 816 965 l 1,15,16
 926 901 926 901 984 778 c 128,-1,17
 1042 655 1042 655 1042 500 c 0,18,19
 1042 416 1042 416 1023 339 c 128,-1,20
 1004 262 1004 262 965 196 c 128,-1,21
 926 130 926 130 872 81 c 128,-1,22
 818 32 818 32 742.5 4.5 c 128,-1,23
 667 -23 667 -23 580 -23 c 0,24,25
 487 -23 487 -23 409 6 c 1,26,-1
 299 -250 l 1,0,-1
396 166 m 1,27,28
 697 876 l 1,29,30
 646 897 646 897 580 897 c 0,31,32
 477 897 477 897 404.5 838 c 128,-1,33
 332 779 332 779 299.5 690 c 128,-1,34
 267 601 267 601 267 495 c 0,35,36
 267 393 267 393 299.5 306 c 128,-1,37
 332 219 332 219 396 166 c 1,27,28
582 103 m 0,38,39
 660 103 660 103 720 135.5 c 128,-1,40
 780 168 780 168 814.5 224.5 c 128,-1,41
 849 281 849 281 866.5 350 c 128,-1,42
 884 419 884 419 884 498 c 0,43,44
 884 737 884 737 762 838 c 1,45,-1
 460 126 l 1,46,47
 514 103 514 103 582 103 c 0,38,39
EndSplineSet
EndChar

StartChar: thorn
Encoding: 254 254 191
Width: 1136
GlyphClass: 2
Flags: W
LayerCount: 2
Fore
SplineSet
136 1374 m 1,0,-1
 289 1374 l 1,1,-1
 289 849 l 1,2,3
 406 1023 406 1023 609 1023 c 1,4,5
 732 1022 732 1022 827 954.5 c 128,-1,6
 922 887 922 887 973 771 c 128,-1,7
 1024 655 1024 655 1024 510 c 0,8,9
 1024 408 1024 408 998 314 c 128,-1,10
 972 220 972 220 922 144 c 128,-1,11
 872 68 872 68 791 22.5 c 128,-1,12
 710 -23 710 -23 609 -23 c 0,13,14
 389 -23 389 -23 289 147 c 1,15,-1
 289 -418 l 1,16,-1
 136 -418 l 1,17,-1
 136 1374 l 1,0,-1
592 103 m 0,18,19
 668 103 668 103 724 140 c 128,-1,20
 780 177 780 177 809.5 238 c 128,-1,21
 839 299 839 299 852.5 364.5 c 128,-1,22
 866 430 866 430 866 501 c 128,-1,23
 866 572 866 572 852.5 637.5 c 128,-1,24
 839 703 839 703 810.5 763.5 c 128,-1,25
 782 824 782 824 727 860.5 c 128,-1,26
 672 897 672 897 598 897 c 0,27,28
 499 897 499 897 427 841 c 128,-1,29
 355 785 355 785 321.5 696.5 c 128,-1,30
 288 608 288 608 288 501 c 0,31,32
 288 391 288 391 317.5 304 c 128,-1,33
 347 217 347 217 417.5 160 c 128,-1,34
 488 103 488 103 592 103 c 0,18,19
EndSplineSet
EndChar

StartChar: Dcroat
Encoding: 272 272 209
Width: 1490
GlyphClass: 2
Flags: W
LayerCount: 2
Fore
SplineSet
384 634 m 1,0,-1
 384 141 l 1,1,-1
 671 141 l 2,2,3
 925 141 925 141 1063.5 274.5 c 128,-1,4
 1202 408 1202 408 1202 668 c 0,5,6
 1202 794 1202 794 1172.5 890 c 128,-1,7
 1143 986 1143 986 1091 1048 c 128,-1,8
 1039 1110 1039 1110 960 1149 c 128,-1,9
 881 1188 881 1188 789 1204 c 128,-1,10
 697 1220 697 1220 581 1220 c 2,11,-1
 384 1220 l 1,12,-1
 384 757 l 1,13,-1
 604 757 l 1,14,-1
 604 634 l 1,15,-1
 384 634 l 1,0,-1
223 757 m 1,16,-1
 223 1361 l 1,17,-1
 561 1361 l 2,18,19
 707 1361 707 1361 826.5 1340 c 128,-1,20
 946 1319 946 1319 1049.5 1269.5 c 128,-1,21
 1153 1220 1153 1220 1223.5 1142 c 128,-1,22
 1294 1064 1294 1064 1334 945 c 128,-1,23
 1374 826 1374 826 1374 672 c 0,24,25
 1374 505 1374 505 1322 376.5 c 128,-1,26
 1270 248 1270 248 1175 166 c 128,-1,27
 1080 84 1080 84 948.5 42 c 128,-1,28
 817 0 817 0 654 0 c 2,29,-1
 223 0 l 1,30,-1
 223 634 l 1,31,-1
 116 634 l 1,32,-1
 116 757 l 1,33,-1
 223 757 l 1,16,-1
EndSplineSet
EndChar

StartChar: dcroat
Encoding: 273 273 210
Width: 1193
GlyphClass: 2
Flags: W
LayerCount: 2
Fore
SplineSet
541 -21 m 0,0,1
 336 -21 336 -21 219.5 124 c 128,-1,2
 103 269 103 269 103 504 c 0,3,4
 103 732 103 732 224.5 875.5 c 128,-1,5
 346 1019 346 1019 540 1019 c 0,6,7
 638 1019 638 1019 726 976 c 128,-1,8
 814 933 814 933 864 862 c 1,9,10
 860 928 860 928 860 1053 c 2,11,-1
 860 1166 l 1,12,-1
 586 1166 l 1,13,-1
 586 1268 l 1,14,-1
 860 1268 l 1,15,-1
 860 1395 l 1,16,-1
 1035 1409 l 1,17,-1
 1035 1268 l 1,18,-1
 1153 1268 l 1,19,-1
 1153 1166 l 1,20,-1
 1035 1166 l 1,21,-1
 1035 0 l 1,22,-1
 877 0 l 1,23,-1
 860 163 l 1,24,25
 820 76 820 76 733 27.5 c 128,-1,26
 646 -21 646 -21 541 -21 c 0,0,1
568 108 m 0,27,28
 860 108 860 108 860 482 c 0,29,30
 860 685 860 685 792.5 788 c 128,-1,31
 725 891 725 891 569 891 c 0,32,33
 428 891 428 891 352.5 786 c 128,-1,34
 277 681 277 681 277 499 c 0,35,36
 277 318 277 318 351.5 213 c 128,-1,37
 426 108 426 108 568 108 c 0,27,28
EndSplineSet
EndChar

StartChar: gcommaaccent
Encoding: 291 291 228
Width: 1183
GlyphClass: 2
Flags: W
LayerCount: 2
Fore
SplineSet
585 1611 m 1,0,-1
 728 1611 l 1,1,-1
 606 1182 l 1,2,-1
 500 1182 l 1,3,-1
 585 1611 l 1,0,-1
699.5 157.5 m 128,-1,5
 758 185 758 185 792.5 233.5 c 128,-1,6
 827 282 827 282 843.5 341 c 128,-1,7
 860 400 860 400 860 470 c 2,8,-1
 860 543 l 2,9,10
 860 642 860 642 831 718 c 128,-1,11
 802 794 802 794 734 842.5 c 128,-1,12
 666 891 666 891 567 891 c 0,13,14
 489 891 489 891 430.5 855.5 c 128,-1,15
 372 820 372 820 340 761.5 c 128,-1,16
 308 703 308 703 292.5 638 c 128,-1,17
 277 573 277 573 277 504 c 0,18,19
 277 451 277 451 286.5 399.5 c 128,-1,20
 296 348 296 348 318 298.5 c 128,-1,21
 340 249 340 249 372.5 212 c 128,-1,22
 405 175 405 175 454 152.5 c 128,-1,23
 503 130 503 130 563 130 c 0,24,4
 641 130 641 130 699.5 157.5 c 128,-1,5
267 -390 m 1,25,26
 278 -262 l 1,27,28
 383 -291 383 -291 511 -291 c 0,29,30
 697 -291 697 -291 778.5 -209.5 c 128,-1,31
 860 -128 860 -128 860 73 c 2,32,-1
 860 191 l 1,33,34
 824 100 824 100 745 50 c 128,-1,35
 666 0 666 0 550 0 c 0,36,37
 443 0 443 0 356 42.5 c 128,-1,38
 269 85 269 85 215 155.5 c 128,-1,39
 161 226 161 226 132 314 c 128,-1,40
 103 402 103 402 103 496 c 0,41,42
 103 604 103 604 131 697.5 c 128,-1,43
 159 791 159 791 213 863.5 c 128,-1,44
 267 936 267 936 354.5 977.5 c 128,-1,45
 442 1019 442 1019 553 1019 c 0,46,47
 750 1019 750 1019 864 865 c 1,48,-1
 876 998 l 1,49,-1
 1035 998 l 1,50,-1
 1035 148 l 2,51,52
 1035 42 1035 42 1021.5 -41 c 128,-1,53
 1008 -124 1008 -124 973 -198 c 128,-1,54
 938 -272 938 -272 881 -320.5 c 128,-1,55
 824 -369 824 -369 734 -397 c 128,-1,56
 644 -425 644 -425 524 -425 c 0,57,58
 407 -425 407 -425 267 -390 c 1,25,26
EndSplineSet
EndChar

StartChar: Hbar
Encoding: 294 294 231
Width: 1458
GlyphClass: 2
Flags: W
LayerCount: 2
Fore
SplineSet
196 1138 m 1,0,-1
 196 1361 l 1,1,-1
 357 1361 l 1,2,-1
 357 1138 l 1,3,-1
 1100 1138 l 1,4,-1
 1100 1361 l 1,5,-1
 1261 1361 l 1,6,-1
 1261 1138 l 1,7,-1
 1343 1138 l 1,8,-1
 1343 1043 l 1,9,-1
 1261 1043 l 1,10,-1
 1261 0 l 1,11,-1
 1100 0 l 1,12,-1
 1100 633 l 1,13,-1
 357 633 l 1,14,-1
 357 0 l 1,15,-1
 196 0 l 1,16,-1
 196 1043 l 1,17,-1
 114 1043 l 1,18,-1
 114 1138 l 1,19,-1
 196 1138 l 1,0,-1
357 772 m 1,20,-1
 1100 772 l 1,21,-1
 1100 1043 l 1,22,-1
 357 1043 l 1,23,-1
 357 772 l 1,20,-1
EndSplineSet
EndChar

StartChar: hbar
Encoding: 295 295 232
Width: 1130
GlyphClass: 2
Flags: W
LayerCount: 2
Fore
SplineSet
324 1409 m 1,0,-1
 324 1271 l 1,1,-1
 509 1271 l 1,2,-1
 509 1166 l 1,3,-1
 324 1166 l 1,4,-1
 324 864 l 1,5,6
 367 938 367 938 447 978.5 c 128,-1,7
 527 1019 527 1019 631 1019 c 0,8,9
 802 1019 802 1019 883.5 917 c 128,-1,10
 965 815 965 815 965 612 c 2,11,-1
 965 0 l 1,12,-1
 790 0 l 1,13,-1
 790 623 l 2,14,15
 790 757 790 757 749.5 823 c 128,-1,16
 709 889 709 889 601 889 c 0,17,18
 448 889 448 889 386 801 c 128,-1,19
 324 713 324 713 324 546 c 2,20,-1
 324 0 l 1,21,-1
 149 0 l 1,22,-1
 149 1166 l 1,23,-1
 20 1166 l 1,24,-1
 20 1271 l 1,25,-1
 149 1271 l 1,26,-1
 149 1395 l 1,27,-1
 324 1409 l 1,0,-1
EndSplineSet
EndChar

StartChar: dotlessi
Encoding: 305 305 242
Width: 413
GlyphClass: 2
Flags: W
LayerCount: 2
Fore
SplineSet
130 0 m 1,0,-1
 130 999 l 1,1,-1
 284 999 l 1,2,-1
 284 0 l 1,3,-1
 130 0 l 1,0,-1
EndSplineSet
EndChar

StartChar: IJ
Encoding: 306 306 243
Width: 1174
GlyphClass: 2
Flags: W
LayerCount: 2
Fore
SplineSet
196 1390 m 1,0,-1
 375 1390 l 1,1,-1
 375 0 l 1,2,-1
 196 0 l 1,3,-1
 196 1390 l 1,0,-1
613 -45 m 1,4,5
 663 -45 663 -45 701 -38.5 c 128,-1,6
 739 -32 739 -32 765 -23 c 128,-1,7
 791 -14 791 -14 808.5 4 c 128,-1,8
 826 22 826 22 835 37.5 c 128,-1,9
 844 53 844 53 848.5 81.5 c 128,-1,10
 853 110 853 110 854 130 c 128,-1,11
 855 150 855 150 855 186 c 2,12,-1
 855 1408 l 1,13,-1
 1033 1408 l 1,14,-1
 1033 219 l 2,15,16
 1033 143 1033 143 1028 91 c 128,-1,17
 1023 39 1023 39 1007.5 -11 c 128,-1,18
 992 -61 992 -61 964.5 -92 c 128,-1,19
 937 -123 937 -123 892 -147 c 128,-1,20
 847 -171 847 -171 781.5 -181.5 c 128,-1,21
 716 -192 716 -192 627 -192 c 1,22,-1
 613 -45 l 1,4,5
EndSplineSet
EndChar

StartChar: ij
Encoding: 307 307 244
Width: 988
GlyphClass: 2
Flags: W
LayerCount: 2
Fore
SplineSet
178 998 m 1,0,-1
 352 998 l 1,1,-1
 352 0 l 1,2,-1
 178 0 l 1,3,-1
 178 998 l 1,0,-1
178 1361 m 1,4,-1
 352 1361 l 1,5,-1
 352 1181 l 1,6,-1
 178 1181 l 1,7,-1
 178 1361 l 1,4,-1
718 1361 m 1,8,-1
 893 1361 l 1,9,-1
 893 1181 l 1,10,-1
 718 1181 l 1,11,-1
 718 1361 l 1,8,-1
522 -257 m 1,12,-1
 570 -257 l 2,13,14
 620 -257 620 -257 650 -249.5 c 128,-1,15
 680 -242 680 -242 695 -224 c 128,-1,16
 710 -206 710 -206 714.5 -185 c 128,-1,17
 719 -164 719 -164 719 -127 c 2,18,-1
 718 998 l 1,19,-1
 893 998 l 1,20,-1
 893 -68 l 2,21,22
 893 -164 893 -164 880.5 -223.5 c 128,-1,23
 868 -283 868 -283 834 -324 c 128,-1,24
 800 -365 800 -365 742 -381.5 c 128,-1,25
 684 -398 684 -398 590 -398 c 2,26,-1
 542 -398 l 1,27,-1
 522 -257 l 1,12,-1
EndSplineSet
EndChar

StartChar: kgreenlandic
Encoding: 312 312 249
Width: 1047
GlyphClass: 2
Flags: W
LayerCount: 2
Fore
SplineSet
130 0 m 1,0,-1
 130 999 l 1,1,-1
 281 999 l 1,2,-1
 281 520 l 1,3,4
 303 544 303 544 315 557 c 0,5,6
 404 659 404 659 724 998 c 1,7,-1
 917 998 l 1,8,-1
 502 555 l 1,9,-1
 946 0 l 1,10,-1
 757 0 l 1,11,-1
 392 469 l 1,12,-1
 281 373 l 1,13,-1
 281 0 l 1,14,-1
 130 0 l 1,0,-1
EndSplineSet
EndChar

StartChar: Lslash
Encoding: 321 321 258
Width: 1096
GlyphClass: 2
Flags: W
LayerCount: 2
Fore
SplineSet
246 688 m 1,0,-1
 246 1361 l 1,1,-1
 407 1361 l 1,2,-1
 407 776 l 1,3,-1
 725 951 l 1,4,-1
 725 809 l 1,5,-1
 407 638 l 1,6,-1
 407 141 l 1,7,-1
 1005 141 l 1,8,-1
 994 0 l 1,9,-1
 246 0 l 1,10,-1
 246 551 l 1,11,-1
 111 480 l 1,12,-1
 111 614 l 1,13,-1
 246 688 l 1,0,-1
EndSplineSet
EndChar

StartChar: lslash
Encoding: 322 322 259
Width: 740
GlyphClass: 2
Flags: W
LayerCount: 2
Fore
SplineSet
480 -19 m 0,0,1
 427 -19 427 -19 388.5 -11 c 128,-1,2
 350 -3 350 -3 321.5 11 c 128,-1,3
 293 25 293 25 274 53 c 128,-1,4
 255 81 255 81 243.5 112 c 128,-1,5
 232 143 232 143 226 194.5 c 128,-1,6
 220 246 220 246 218 297 c 128,-1,7
 216 348 216 348 216 426 c 2,8,-1
 216 521 l 1,9,-1
 114 442 l 1,10,-1
 114 574 l 1,11,-1
 216 653 l 1,12,-1
 216 1356 l 1,13,-1
 369 1374 l 1,14,-1
 369 772 l 1,15,-1
 529 896 l 1,16,-1
 529 763 l 1,17,-1
 369 640 l 1,18,-1
 369 392 l 2,19,20
 369 343 369 343 369.5 317 c 128,-1,21
 370 291 370 291 371.5 256.5 c 128,-1,22
 373 222 373 222 376.5 205.5 c 128,-1,23
 380 189 380 189 386.5 168.5 c 128,-1,24
 393 148 393 148 402.5 139.5 c 128,-1,25
 412 131 412 131 426.5 122 c 128,-1,26
 441 113 441 113 459 110 c 128,-1,27
 477 107 477 107 502 107 c 128,-1,28
 527 107 527 107 628 116 c 1,29,-1
 642 -7 l 1,30,31
 532 -19 532 -19 480 -19 c 0,0,1
EndSplineSet
EndChar

StartChar: Eng
Encoding: 330 330 267
Width: 1292
GlyphClass: 2
Flags: W
LayerCount: 2
Fore
SplineSet
769 -298 m 0,0,1
 708 -298 708 -298 587 -286 c 1,2,-1
 566 -151 l 1,3,4
 708 -159 708 -159 728 -159 c 0,5,6
 783 -159 783 -159 822.5 -154 c 128,-1,7
 862 -149 862 -149 892 -140.5 c 128,-1,8
 922 -132 922 -132 941 -113 c 128,-1,9
 960 -94 960 -94 972.5 -73 c 128,-1,10
 985 -52 985 -52 991 -14.5 c 128,-1,11
 997 23 997 23 999 60 c 128,-1,12
 1001 97 1001 97 1001 156 c 2,13,-1
 1001 913 l 2,14,15
 1001 1094 1001 1094 943 1165 c 128,-1,16
 885 1236 885 1236 737 1236 c 0,17,18
 597 1236 597 1236 482.5 1166.5 c 128,-1,19
 368 1097 368 1097 298 991 c 1,20,-1
 298 0 l 1,21,-1
 138 0 l 1,22,-1
 136 1361 l 1,23,-1
 282 1361 l 1,24,-1
 298 1168 l 1,25,26
 412 1291 412 1291 530.5 1337 c 128,-1,27
 649 1383 649 1383 785 1383 c 0,28,29
 970 1383 970 1383 1065 1264 c 128,-1,30
 1160 1145 1160 1145 1160 918 c 2,31,-1
 1160 150 l 2,32,33
 1160 60 1160 60 1151 -5 c 128,-1,34
 1142 -70 1142 -70 1117 -128 c 128,-1,35
 1092 -186 1092 -186 1049 -221.5 c 128,-1,36
 1006 -257 1006 -257 936 -277.5 c 128,-1,37
 866 -298 866 -298 769 -298 c 0,0,1
EndSplineSet
EndChar

StartChar: eng
Encoding: 331 331 268
Width: 1096
GlyphClass: 2
Flags: W
LayerCount: 2
Fore
SplineSet
653 -275 m 2,0,1
 589 -275 l 1,2,-1
 578 -128 l 1,3,-1
 617 -128 l 2,4,5
 659 -128 659 -128 684.5 -125.5 c 128,-1,6
 710 -123 710 -123 731 -113 c 128,-1,7
 752 -103 752 -103 762.5 -90 c 128,-1,8
 773 -77 773 -77 780 -49 c 128,-1,9
 787 -21 787 -21 788.5 10.5 c 128,-1,10
 790 42 790 42 790 95 c 2,11,-1
 790 623 l 2,12,13
 790 757 790 757 749.5 823 c 128,-1,14
 709 889 709 889 601 889 c 0,15,16
 386 889 386 889 333 686 c 1,17,18
 324 622 324 622 324 546 c 2,19,-1
 324 0 l 1,20,-1
 149 0 l 1,21,-1
 149 998 l 1,22,-1
 298 998 l 1,23,-1
 317 855 l 1,24,25
 426 1019 426 1019 635 1019 c 0,26,27
 805 1019 805 1019 885 917.5 c 128,-1,28
 965 816 965 816 965 612 c 2,29,-1
 965 144 l 2,30,31
 965 54 965 54 958.5 -7 c 128,-1,32
 952 -68 952 -68 933 -122.5 c 128,-1,33
 914 -177 914 -177 879.5 -208.5 c 128,-1,34
 845 -240 845 -240 789 -257.5 c 128,-1,35
 733 -275 733 -275 653 -275 c 2,0,1
EndSplineSet
EndChar

StartChar: OE
Encoding: 338 338 275
Width: 1866
GlyphClass: 2
Flags: W
LayerCount: 2
Fore
SplineSet
770 -21 m 0,0,1
 611 -21 611 -21 485.5 31.5 c 128,-1,2
 360 84 360 84 279 179.5 c 128,-1,3
 198 275 198 275 155.5 407.5 c 128,-1,4
 113 540 113 540 113 702 c 1,5,6
 117 899 117 899 199 1055 c 128,-1,7
 281 1211 281 1211 425 1299 c 128,-1,8
 569 1387 569 1387 749 1387 c 0,9,10
 847 1387 847 1387 930 1359.5 c 128,-1,11
 1013 1332 1013 1332 1066 1286 c 1,12,-1
 1066 1360 l 1,13,-1
 1726 1360 l 1,14,-1
 1711 1220 l 1,15,-1
 1227 1220 l 1,16,-1
 1227 769 l 1,17,-1
 1678 769 l 1,18,-1
 1678 630 l 1,19,-1
 1227 630 l 1,20,-1
 1227 142 l 1,21,-1
 1748 142 l 1,22,-1
 1734 0 l 1,23,-1
 1066 0 l 1,24,-1
 1066 75 l 1,25,26
 1036 42 1036 42 941.5 10.5 c 128,-1,27
 847 -21 847 -21 770 -21 c 0,0,1
771 117 m 0,28,29
 848 117 848 117 933.5 145.5 c 128,-1,30
 1019 174 1019 174 1066 202 c 1,31,-1
 1066 1146 l 1,32,33
 940 1249 940 1249 763 1249 c 0,34,35
 546 1249 546 1249 418.5 1097.5 c 128,-1,36
 291 946 291 946 286 703 c 1,37,38
 286 577 286 577 312.5 475 c 128,-1,39
 339 373 339 373 394.5 291.5 c 128,-1,40
 450 210 450 210 545.5 164 c 128,-1,41
 641 118 641 118 771 117 c 0,28,29
EndSplineSet
EndChar

StartChar: oe
Encoding: 339 339 276
Width: 1821
GlyphClass: 2
Flags: W
LayerCount: 2
Fore
SplineSet
569 -23 m 0,0,1
 423 -23 423 -23 317 48 c 128,-1,2
 211 119 211 119 160 235.5 c 128,-1,3
 109 352 109 352 109 498 c 128,-1,4
 109 644 109 644 160.5 761 c 128,-1,5
 212 878 212 878 318.5 950.5 c 128,-1,6
 425 1023 425 1023 571 1023 c 0,7,8
 704 1023 704 1023 799 966.5 c 128,-1,9
 894 910 894 910 949 809 c 1,10,11
 1005 906 1005 906 1104 962.5 c 128,-1,12
 1203 1019 1203 1019 1321 1023 c 1,13,14
 1505 1023 1505 1023 1604.5 894 c 128,-1,15
 1704 765 1704 765 1704 541 c 0,16,17
 1704 534 1704 534 1703 507.5 c 128,-1,18
 1702 481 1702 481 1702 472 c 1,19,-1
 1029 472 l 1,20,21
 1029 306 1029 306 1115.5 207 c 128,-1,22
 1202 108 1202 108 1336 108 c 0,23,24
 1432 108 1432 108 1503.5 135.5 c 128,-1,25
 1575 163 1575 163 1642 208 c 1,26,-1
 1689 97 l 1,27,28
 1548 -23 1548 -23 1331 -23 c 0,29,30
 1200 -23 1200 -23 1101.5 33 c 128,-1,31
 1003 89 1003 89 945 192 c 1,32,33
 888 92 888 92 792.5 34.5 c 128,-1,34
 697 -23 697 -23 569 -23 c 0,0,1
571 103 m 0,35,36
 649 103 649 103 709 135.5 c 128,-1,37
 769 168 769 168 803.5 224.5 c 128,-1,38
 838 281 838 281 855.5 350 c 128,-1,39
 873 419 873 419 873 498 c 0,40,41
 873 581 873 581 856.5 650.5 c 128,-1,42
 840 720 840 720 805.5 776.5 c 128,-1,43
 771 833 771 833 710.5 865 c 128,-1,44
 650 897 650 897 569 897 c 0,45,46
 491 897 491 897 431.5 863.5 c 128,-1,47
 372 830 372 830 337 772 c 128,-1,48
 302 714 302 714 284.5 644 c 128,-1,49
 267 574 267 574 267 495 c 0,50,51
 267 417 267 417 284.5 348.5 c 128,-1,52
 302 280 302 280 337 224 c 128,-1,53
 372 168 372 168 432 135.5 c 128,-1,54
 492 103 492 103 571 103 c 0,35,36
1035 577 m 1,55,56
 1556 577 l 1,57,-1
 1556 589 l 1,58,59
 1553 740 1553 740 1488.5 819.5 c 128,-1,60
 1424 899 1424 899 1312 899 c 0,61,62
 1198 899 1198 899 1123 811.5 c 128,-1,63
 1048 724 1048 724 1035 577 c 1,55,56
EndSplineSet
EndChar

StartChar: Tbar
Encoding: 358 358 295
Width: 1131
GlyphClass: 2
Flags: W
LayerCount: 2
Fore
SplineSet
484 595 m 1,0,-1
 484 1220 l 1,1,-1
 77 1220 l 1,2,-1
 77 1361 l 1,3,-1
 1053 1361 l 1,4,-1
 1053 1220 l 1,5,-1
 645 1220 l 1,6,-1
 645 595 l 1,7,-1
 793 595 l 1,8,-1
 793 483 l 1,9,-1
 645 483 l 1,10,-1
 645 0 l 1,11,-1
 484 0 l 1,12,-1
 484 483 l 1,13,-1
 330 483 l 1,14,-1
 330 595 l 1,15,-1
 484 595 l 1,0,-1
EndSplineSet
EndChar

StartChar: tbar
Encoding: 359 359 296
Width: 815
GlyphClass: 2
Flags: W
LayerCount: 2
Fore
SplineSet
528 -18 m 0,0,1
 476 -18 476 -18 437 -10 c 128,-1,2
 398 -2 398 -2 370 12 c 128,-1,3
 342 26 342 26 323 53.5 c 128,-1,4
 304 81 304 81 292.5 110 c 128,-1,5
 281 139 281 139 275.5 188.5 c 128,-1,6
 270 238 270 238 268 285 c 128,-1,7
 266 332 266 332 266 405 c 2,8,-1
 266 581 l 1,9,-1
 125 581 l 1,10,-1
 125 695 l 1,11,-1
 266 695 l 1,12,-1
 266 892 l 1,13,-1
 114 892 l 1,14,-1
 126 999 l 1,15,-1
 266 999 l 1,16,-1
 306 1225 l 1,17,-1
 419 1233 l 1,18,-1
 419 999 l 1,19,-1
 683 999 l 1,20,-1
 683 892 l 1,21,-1
 419 892 l 1,22,-1
 419 695 l 1,23,-1
 609 695 l 1,24,-1
 609 581 l 1,25,-1
 419 581 l 1,26,-1
 419 334 l 2,27,28
 419 193 419 193 445.5 150 c 128,-1,29
 472 107 472 107 563 107 c 0,30,31
 570 107 570 107 585 108.5 c 128,-1,32
 600 110 600 110 629 112.5 c 128,-1,33
 658 115 658 115 687 117 c 1,34,-1
 701 -6 l 1,35,36
 564 -18 564 -18 528 -18 c 0,0,1
EndSplineSet
EndChar

StartChar: uni018F
Encoding: 399 399 320
Width: 1398
GlyphClass: 2
Flags: W
LayerCount: 2
Fore
SplineSet
681 -21 m 0,0,1
 563 -21 563 -21 466.5 15.5 c 128,-1,2
 370 52 370 52 307.5 111.5 c 128,-1,3
 245 171 245 171 201 251 c 128,-1,4
 157 331 157 331 137 413 c 128,-1,5
 117 495 117 495 113 583 c 1,6,7
 113 624 113 624 119 707 c 1,8,-1
 1110 707 l 1,9,10
 1108 794 1108 794 1090.5 871.5 c 128,-1,11
 1073 949 1073 949 1035 1019 c 128,-1,12
 997 1089 997 1089 941.5 1139.5 c 128,-1,13
 886 1190 886 1190 803 1219.5 c 128,-1,14
 720 1249 720 1249 618 1249 c 0,15,16
 448 1249 448 1249 278 1138 c 1,17,-1
 217 1259 l 1,18,19
 308 1326 308 1326 402 1357 c 128,-1,20
 496 1388 496 1388 631 1388 c 0,21,22
 787 1388 787 1388 912.5 1333 c 128,-1,23
 1038 1278 1038 1278 1118 1182.5 c 128,-1,24
 1198 1087 1198 1087 1240 961 c 128,-1,25
 1282 835 1282 835 1282 689 c 0,26,27
 1282 486 1282 486 1207 324.5 c 128,-1,28
 1132 163 1132 163 994.5 71 c 128,-1,29
 857 -21 857 -21 681 -21 c 0,0,1
684 117 m 0,30,31
 800 117 800 117 891.5 178.5 c 128,-1,32
 983 240 983 240 1035.5 342 c 128,-1,33
 1088 444 1088 444 1103 574 c 1,34,-1
 277 574 l 1,35,36
 281 508 281 508 292.5 451 c 128,-1,37
 304 394 304 394 332.5 330 c 128,-1,38
 361 266 361 266 403.5 221 c 128,-1,39
 446 176 446 176 518.5 146.5 c 128,-1,40
 591 117 591 117 684 117 c 0,30,31
EndSplineSet
EndChar

StartChar: florin
Encoding: 402 402 321
Width: 949
GlyphClass: 2
Flags: W
LayerCount: 2
Fore
SplineSet
136 -326 m 0,0,1
 112 -326 112 -326 53 -308 c 1,2,-1
 63 -175 l 1,3,4
 103 -191 103 -191 126 -191 c 0,5,6
 179 -191 179 -191 209.5 -139 c 128,-1,7
 240 -87 240 -87 259 5 c 1,8,9
 293 153 293 153 343.5 448 c 128,-1,10
 394 743 394 743 402 787 c 1,11,-1
 258 787 l 1,12,-1
 268 924 l 1,13,-1
 426 924 l 1,14,-1
 446 1072 l 1,15,16
 494 1408 494 1408 740 1408 c 0,17,18
 785 1408 785 1408 856 1388 c 1,19,-1
 849 1246 l 1,20,21
 801 1268 801 1268 762 1268 c 0,22,23
 694 1268 694 1268 664 1231.5 c 128,-1,24
 634 1195 634 1195 622 1117 c 1,25,-1
 587 924 l 1,26,-1
 756 924 l 1,27,-1
 746 787 l 1,28,-1
 567 787 l 1,29,-1
 446 118 l 2,30,31
 433 51 433 51 421.5 3 c 128,-1,32
 410 -45 410 -45 392.5 -100 c 128,-1,33
 375 -155 375 -155 352 -192.5 c 128,-1,34
 329 -230 329 -230 299 -262 c 128,-1,35
 269 -294 269 -294 227.5 -310 c 128,-1,36
 186 -326 186 -326 136 -326 c 0,0,1
EndSplineSet
EndChar

StartChar: Ohorn
Encoding: 416 416 322
Width: 1507
GlyphClass: 2
Flags: W
LayerCount: 2
Fore
SplineSet
1547 1099 m 2,0,1
 1546 1099 l 1,2,-1
 1546 1099 l 1,3,-1
 1545 1099 l 1,4,-1
 1545 1099 l 1,5,-1
 1544 1099 l 1,6,-1
 1544 1099 l 1,7,-1
 1543 1099 l 1,8,-1
 1543 1099 l 1,9,-1
 1542 1099 l 1,10,-1
 1542 1099 l 1,11,-1
 1541 1099 l 1,12,-1
 1540 1099 l 1,13,-1
 1538 1099 l 1,14,-1
 1537 1099 l 2,15,16
 1534 1099 1534 1099 1531 1099 c 0,17,18
 1529 1099 1529 1099 1527 1099 c 0,19,20
 1490 1099 1490 1099 1443 1104 c 1,21,-1
 1443 1190 l 1,22,23
 1447 1190 1447 1190 1453 1190 c 1,24,-1
 1453 1190 l 1,25,26
 1454 1190 1454 1190 1456 1190 c 1,27,-1
 1456 1190 l 1,28,-1
 1457 1190 l 1,29,-1
 1457 1190 l 1,30,-1
 1458 1190 l 1,31,-1
 1458 1190 l 1,32,-1
 1459 1190 l 1,33,-1
 1459 1190 l 1,34,-1
 1460 1190 l 1,35,-1
 1460 1190 l 1,36,-1
 1461 1190 l 1,37,-1
 1461 1190 l 1,38,-1
 1462 1190 l 1,39,-1
 1462 1190 l 1,40,-1
 1463 1190 l 1,41,-1
 1463 1190 l 1,42,43
 1470 1190 1470 1190 1485 1189 c 0,44,45
 1491 1189 1491 1189 1496 1188 c 0,46,47
 1557 1193 1557 1193 1557 1279 c 0,48,49
 1557 1342 1557 1342 1530 1413 c 1,50,-1
 1540 1413 l 1,51,-1
 1543 1413 l 1,52,-1
 1544 1413 l 1,53,-1
 1545 1413 l 1,54,-1
 1546 1413 l 1,55,-1
 1547 1413 l 1,56,-1
 1548 1413 l 1,57,-1
 1549 1413 l 1,58,-1
 1550 1413 l 1,59,-1
 1636 1413 l 1,60,-1
 1646 1413 l 1,61,-1
 1649 1413 l 1,62,-1
 1650 1413 l 1,63,-1
 1651 1413 l 1,64,-1
 1652 1413 l 1,65,-1
 1653 1413 l 1,66,-1
 1654 1413 l 1,67,-1
 1655 1413 l 1,68,-1
 1656 1413 l 1,69,70
 1685 1344 1685 1344 1685 1276 c 0,71,72
 1685 1200 1685 1200 1649 1149.5 c 128,-1,73
 1613 1099 1613 1099 1547 1099 c 2,0,1
1541 1099 m 1,74,-1
 1541 1099 l 1,75,-1
 1541 1099 l 1,74,-1
1335 330 m 128,-1,77
 1260 170 1260 170 1110.5 76 c 128,-1,78
 961 -18 961 -18 757 -18 c 0,79,80
 601 -18 601 -18 476.5 35 c 128,-1,81
 352 88 352 88 270.5 183.5 c 128,-1,82
 189 279 189 279 146 410 c 128,-1,83
 103 541 103 541 103 698 c 0,84,85
 103 912 103 912 179 1072.5 c 128,-1,86
 255 1233 255 1233 404 1323 c 128,-1,87
 553 1413 553 1413 758 1413 c 0,88,89
 959 1413 959 1413 1107.5 1322.5 c 128,-1,90
 1256 1232 1256 1232 1333 1070.5 c 128,-1,91
 1410 909 1410 909 1410 697 c 0,92,76
 1410 490 1410 490 1335 330 c 128,-1,77
967 165 m 128,-1,94
 1059 210 1059 210 1116 289.5 c 128,-1,95
 1173 369 1173 369 1202 472.5 c 128,-1,96
 1231 576 1231 576 1231 697 c 0,97,98
 1231 865 1231 865 1180 993.5 c 128,-1,99
 1129 1122 1129 1122 1020.5 1198.5 c 128,-1,100
 912 1275 912 1275 758 1275 c 0,101,102
 642 1275 642 1275 550.5 1231.5 c 128,-1,103
 459 1188 459 1188 400.5 1110 c 128,-1,104
 342 1032 342 1032 312 927 c 128,-1,105
 282 822 282 822 282 697 c 0,106,107
 282 600 282 600 300 514.5 c 128,-1,108
 318 429 318 429 356 356.5 c 128,-1,109
 394 284 394 284 449.5 231.5 c 128,-1,110
 505 179 505 179 583.5 149.5 c 128,-1,111
 662 120 662 120 757 120 c 0,112,93
 875 120 875 120 967 165 c 128,-1,94
EndSplineSet
EndChar

StartChar: ohorn
Encoding: 417 417 323
Width: 1138
GlyphClass: 2
Flags: W
LayerCount: 2
Fore
SplineSet
230.5 125 m 128,-1,1
 103 271 103 271 103 499 c 0,2,3
 103 732 103 732 227.5 875.5 c 128,-1,4
 352 1019 352 1019 569 1019 c 128,-1,5
 786 1019 786 1019 910.5 875.5 c 128,-1,6
 1035 732 1035 732 1035 499 c 0,7,8
 1035 271 1035 271 907.5 125 c 128,-1,9
 780 -21 780 -21 569 -21 c 128,-1,0
 358 -21 358 -21 230.5 125 c 128,-1,1
788.5 217.5 m 128,-1,11
 860 323 860 323 860 497 c 0,12,13
 860 612 860 612 831 697 c 128,-1,14
 802 782 802 782 735.5 834 c 128,-1,15
 669 886 669 886 569 886 c 128,-1,16
 469 886 469 886 402 834 c 128,-1,17
 335 782 335 782 306 697 c 128,-1,18
 277 612 277 612 277 497 c 0,19,20
 277 323 277 323 349 217.5 c 128,-1,21
 421 112 421 112 569 112 c 128,-1,10
 717 112 717 112 788.5 217.5 c 128,-1,11
1096 710 m 1,22,23
 1096 796 l 1,24,25
 1103 796 1103 796 1118 795 c 128,-1,26
 1133 794 1133 794 1141 794 c 0,27,28
 1210 794 1210 794 1210 885 c 0,29,30
 1210 948 1210 948 1183 1019 c 1,31,-1
 1289 1019 l 1,32,33
 1318 950 1318 950 1318 882 c 0,34,35
 1318 806 1318 806 1282 755.5 c 128,-1,36
 1246 705 1246 705 1180 705 c 0,37,38
 1143 705 1143 705 1096 710 c 1,22,23
EndSplineSet
EndChar

StartChar: Uhorn
Encoding: 431 431 324
Width: 1327
GlyphClass: 2
Flags: W
LayerCount: 2
Fore
SplineSet
663 -18 m 0,0,1
 399 -18 399 -18 265.5 121.5 c 128,-1,2
 132 261 132 261 132 495 c 2,3,-1
 132 1390 l 1,4,-1
 309 1390 l 1,5,-1
 309 492 l 2,6,7
 309 306 309 306 395 213 c 128,-1,8
 481 120 481 120 663 120 c 0,9,10
 1018 120 1018 120 1018 492 c 2,11,-1
 1018 1390 l 1,12,-1
 1195 1390 l 1,13,-1
 1195 493 l 2,14,15
 1195 380 1195 380 1162.5 287.5 c 128,-1,16
 1130 195 1130 195 1066 126 c 128,-1,17
 1002 57 1002 57 899.5 19.5 c 128,-1,18
 797 -18 797 -18 663 -18 c 0,0,1
1360 1099 m 0,19,20
 1323 1099 1323 1099 1276 1104 c 1,21,-1
 1276 1190 l 1,22,23
 1283 1190 1283 1190 1298.5 1189 c 128,-1,24
 1314 1188 1314 1188 1322 1188 c 0,25,26
 1390 1188 1390 1188 1390 1279 c 0,27,28
 1390 1342 1390 1342 1364 1413 c 1,29,-1
 1470 1413 l 1,30,31
 1498 1344 1498 1344 1498 1276 c 0,32,33
 1498 1200 1498 1200 1462.5 1149.5 c 128,-1,34
 1427 1099 1427 1099 1360 1099 c 0,19,20
EndSplineSet
EndChar

StartChar: uhorn
Encoding: 432 432 325
Width: 1124
GlyphClass: 2
Flags: W
LayerCount: 2
Fore
SplineSet
977 998 m 1,0,-1
 977 796 l 1,1,2
 984 796 984 796 996 795 c 0,3,4
 1012 794 1012 794 1020 794 c 0,5,6
 1088 794 1088 794 1088 885 c 0,7,8
 1088 948 1088 948 1062 1019 c 1,9,-1
 1168 1019 l 1,10,11
 1196 950 1196 950 1196 882 c 0,12,13
 1196 806 1196 806 1160.5 755.5 c 128,-1,14
 1125 705 1125 705 1058 705 c 0,15,16
 1022 705 1022 705 977 710 c 1,17,-1
 977 0 l 1,18,-1
 829 0 l 1,19,-1
 810 143 l 1,20,21
 771 60 771 60 683.5 19.5 c 128,-1,22
 596 -21 596 -21 482 -21 c 0,23,24
 138 -21 138 -21 138 387 c 2,25,-1
 138 998 l 1,26,-1
 312 998 l 1,27,-1
 312 375 l 2,28,29
 312 243 312 243 357 176 c 128,-1,30
 402 109 402 109 512 109 c 0,31,32
 802 109 802 109 802 452 c 2,33,-1
 802 998 l 1,34,-1
 977 998 l 1,0,-1
EndSplineSet
EndChar

StartChar: uni01C4
Encoding: 452 452 326
Width: 2562
GlyphClass: 2
Flags: W
LayerCount: 2
Fore
SplineSet
356 1252 m 1,0,-1
 356 137 l 1,1,-1
 581 137 l 2,2,3
 848 137 848 137 988.5 282 c 128,-1,4
 1129 427 1129 427 1129 694 c 0,5,6
 1129 1252 1129 1252 554 1252 c 2,7,-1
 356 1252 l 1,0,-1
178 0 m 1,8,-1
 178 1390 l 1,9,-1
 558 1390 l 2,10,11
 728 1390 728 1390 865 1347 c 128,-1,12
 1002 1304 1002 1304 1101 1220 c 128,-1,13
 1200 1136 1200 1136 1253.5 1003 c 128,-1,14
 1307 870 1307 870 1307 698 c 0,15,16
 1307 366 1307 366 1115.5 183 c 128,-1,17
 924 0 924 0 586 0 c 2,18,-1
 178 0 l 1,8,-1
1553 1390 m 1,19,-1
 2465 1390 l 1,20,-1
 2465 1272 l 1,21,-1
 1727 138 l 1,22,-1
 2472 138 l 1,23,-1
 2466 0 l 1,24,-1
 1526 0 l 1,25,-1
 1526 124 l 1,26,-1
 2260 1252 l 1,27,-1
 1553 1252 l 1,28,-1
 1553 1390 l 1,19,-1
1902 1576 m 1,29,-1
 1732 1929 l 1,30,-1
 1851 1929 l 1,31,-1
 1998 1646 l 1,32,-1
 2145 1929 l 1,33,-1
 2266 1929 l 1,34,-1
 2096 1576 l 1,35,-1
 1902 1576 l 1,29,-1
EndSplineSet
EndChar

StartChar: uni01C5
Encoding: 453 453 327
Width: 2212
GlyphClass: 2
Flags: W
LayerCount: 2
Fore
SplineSet
356 1252 m 1,0,-1
 356 137 l 1,1,-1
 581 137 l 2,2,3
 848 137 848 137 988.5 282 c 128,-1,4
 1129 427 1129 427 1129 694 c 0,5,6
 1129 1252 1129 1252 554 1252 c 2,7,-1
 356 1252 l 1,0,-1
178 0 m 1,8,-1
 178 1390 l 1,9,-1
 558 1390 l 2,10,11
 728 1390 728 1390 865 1347 c 128,-1,12
 1002 1304 1002 1304 1101 1220 c 128,-1,13
 1200 1136 1200 1136 1253.5 1003 c 128,-1,14
 1307 870 1307 870 1307 698 c 0,15,16
 1307 366 1307 366 1115.5 183 c 128,-1,17
 924 0 924 0 586 0 c 2,18,-1
 178 0 l 1,8,-1
1520 998 m 1,19,-1
 2187 998 l 1,20,-1
 2187 873 l 1,21,-1
 1678 120 l 1,22,-1
 2204 120 l 1,23,-1
 2204 0 l 1,24,-1
 1499 0 l 1,25,-1
 1499 117 l 1,26,-1
 2017 878 l 1,27,-1
 1520 878 l 1,28,-1
 1520 998 l 1,19,-1
1754 1182 m 1,29,-1
 1584 1535 l 1,30,-1
 1704 1535 l 1,31,-1
 1850 1252 l 1,32,-1
 1998 1535 l 1,33,-1
 2118 1535 l 1,34,-1
 1948 1182 l 1,35,-1
 1754 1182 l 1,29,-1
EndSplineSet
EndChar

StartChar: uni01C6
Encoding: 454 454 328
Width: 1973
GlyphClass: 2
Flags: W
LayerCount: 2
Fore
SplineSet
541 -21 m 0,0,1
 336 -21 336 -21 219.5 124 c 128,-1,2
 103 269 103 269 103 504 c 0,3,4
 103 732 103 732 224.5 875.5 c 128,-1,5
 346 1019 346 1019 540 1019 c 0,6,7
 638 1019 638 1019 726 976 c 128,-1,8
 814 933 814 933 864 862 c 1,9,10
 860 928 860 928 860 1053 c 2,11,-1
 860 1395 l 1,12,-1
 1035 1409 l 1,13,-1
 1035 0 l 1,14,-1
 877 0 l 1,15,-1
 860 163 l 1,16,17
 820 76 820 76 733 27.5 c 128,-1,18
 646 -21 646 -21 541 -21 c 0,0,1
568 108 m 0,19,20
 860 108 860 108 860 482 c 0,21,22
 860 685 860 685 792.5 788 c 128,-1,23
 725 891 725 891 569 891 c 0,24,25
 428 891 428 891 352.5 786 c 128,-1,26
 277 681 277 681 277 499 c 0,27,28
 277 318 277 318 351.5 213 c 128,-1,29
 426 108 426 108 568 108 c 0,19,20
1281 998 m 1,30,-1
 1948 998 l 1,31,-1
 1948 873 l 1,32,-1
 1439 120 l 1,33,-1
 1965 120 l 1,34,-1
 1965 0 l 1,35,-1
 1260 0 l 1,36,-1
 1260 117 l 1,37,-1
 1778 878 l 1,38,-1
 1281 878 l 1,39,-1
 1281 998 l 1,30,-1
1516 1182 m 1,40,-1
 1346 1535 l 1,41,-1
 1464 1535 l 1,42,-1
 1612 1252 l 1,43,-1
 1758 1535 l 1,44,-1
 1880 1535 l 1,45,-1
 1710 1182 l 1,46,-1
 1516 1182 l 1,40,-1
EndSplineSet
EndChar

StartChar: uni01C7
Encoding: 455 455 329
Width: 1627
GlyphClass: 2
Flags: W
LayerCount: 2
Fore
SplineSet
945 140 m 1,0,-1
 938 0 l 1,1,-1
 178 0 l 1,2,-1
 178 1390 l 1,3,-1
 357 1390 l 1,4,-1
 357 140 l 1,5,-1
 945 140 l 1,0,-1
1072 -192 m 1,6,7
 1058 -45 l 1,8,9
 1108 -45 1108 -45 1146 -38.5 c 128,-1,10
 1184 -32 1184 -32 1210 -23 c 128,-1,11
 1236 -14 1236 -14 1253.5 4 c 128,-1,12
 1271 22 1271 22 1280 37.5 c 128,-1,13
 1289 53 1289 53 1293.5 81.5 c 128,-1,14
 1298 110 1298 110 1299 130 c 128,-1,15
 1300 150 1300 150 1300 186 c 2,16,17
 1300 1408 l 1,18,-1
 1478 1408 l 1,19,-1
 1478 219 l 2,20,21
 1478 143 1478 143 1473 91 c 128,-1,22
 1468 39 1468 39 1452.5 -11 c 128,-1,23
 1437 -61 1437 -61 1409.5 -92 c 128,-1,24
 1382 -123 1382 -123 1337 -147 c 128,-1,25
 1292 -171 1292 -171 1226.5 -181.5 c 128,-1,26
 1161 -192 1161 -192 1072 -192 c 1,6,7
EndSplineSet
EndChar

StartChar: uni01C8
Encoding: 456 456 330
Width: 1473
GlyphClass: 2
Flags: W
LayerCount: 2
Fore
SplineSet
945 140 m 1,0,-1
 938 0 l 1,1,-1
 178 0 l 1,2,-1
 178 1390 l 1,3,-1
 357 1390 l 1,4,-1
 357 140 l 1,5,-1
 945 140 l 1,0,-1
1203 1181 m 1,6,-1
 1203 1361 l 1,7,-1
 1378 1361 l 1,8,-1
 1378 1181 l 1,9,-1
 1203 1181 l 1,6,-1
1027 -398 m 1,10,-1
 1007 -257 l 1,11,-1
 1055 -257 l 2,12,13
 1105 -257 1105 -257 1135 -249.5 c 128,-1,14
 1165 -242 1165 -242 1180 -224 c 128,-1,15
 1195 -206 1195 -206 1199.5 -185 c 128,-1,16
 1204 -164 1204 -164 1204 -127 c 2,17,-1
 1203 998 l 1,18,-1
 1378 998 l 1,19,-1
 1378 -68 l 2,20,21
 1378 -164 1378 -164 1365.5 -223.5 c 128,-1,22
 1353 -283 1353 -283 1319 -324 c 128,-1,23
 1285 -365 1285 -365 1227 -381.5 c 128,-1,24
 1169 -398 1169 -398 1075 -398 c 2,25,-1
 1027 -398 l 1,10,-1
EndSplineSet
EndChar

StartChar: uni01C9
Encoding: 457 457 331
Width: 1043
GlyphClass: 2
Flags: W
LayerCount: 2
Fore
SplineSet
404 -18 m 0,0,1
 321 -18 321 -18 273.5 8 c 128,-1,2
 226 34 226 34 200 105.5 c 128,-1,3
 174 177 174 177 174 305 c 2,4,-1
 174 1395 l 1,5,-1
 349 1409 l 1,6,-1
 349 345 l 2,7,8
 349 246 349 246 356 199 c 128,-1,9
 363 152 363 152 381.5 134 c 128,-1,10
 400 116 400 116 439 116 c 2,11,-1
 503 116 l 1,12,-1
 514 -9 l 1,13,14
 452 -18 452 -18 404 -18 c 0,0,1
773 1181 m 1,15,-1
 773 1361 l 1,16,-1
 948 1361 l 1,17,-1
 948 1181 l 1,18,-1
 773 1181 l 1,15,-1
597 -398 m 1,19,-1
 577 -257 l 1,20,-1
 625 -257 l 2,21,22
 675 -257 675 -257 705 -249.5 c 128,-1,23
 735 -242 735 -242 750 -224 c 128,-1,24
 765 -206 765 -206 769.5 -185 c 128,-1,25
 774 -164 774 -164 774 -127 c 2,26,-1
 773 998 l 1,27,-1
 948 998 l 1,28,-1
 948 -68 l 2,29,30
 948 -164 948 -164 935.5 -223.5 c 128,-1,31
 923 -283 923 -283 889 -324 c 128,-1,32
 855 -365 855 -365 797 -381.5 c 128,-1,33
 739 -398 739 -398 645 -398 c 2,34,-1
 597 -398 l 1,19,-1
EndSplineSet
EndChar

StartChar: uni01CA
Encoding: 458 458 332
Width: 2121
GlyphClass: 2
Flags: W
LayerCount: 2
Fore
SplineSet
1156 208 m 1,0,-1
 1151 555 l 1,1,-1
 1151 1390 l 1,2,-1
 1307 1390 l 1,3,-1
 1307 0 l 1,4,-1
 1124 0 l 1,5,-1
 329 1181 l 1,6,-1
 334 830 l 1,7,-1
 334 0 l 1,8,-1
 178 0 l 1,9,-1
 178 1390 l 1,10,-1
 357 1390 l 1,11,-1
 1156 208 l 1,0,-1
1566 -192 m 1,12,13
 1552 -45 l 1,14,15
 1602 -45 1602 -45 1640 -38.5 c 128,-1,16
 1678 -32 1678 -32 1704 -23 c 128,-1,17
 1730 -14 1730 -14 1747.5 4 c 128,-1,18
 1765 22 1765 22 1774 37.5 c 128,-1,19
 1783 53 1783 53 1787.5 81.5 c 128,-1,20
 1792 110 1792 110 1793 130 c 128,-1,21
 1794 150 1794 150 1794 186 c 2,22,23
 1794 1408 l 1,24,-1
 1972 1408 l 1,25,-1
 1972 219 l 2,26,27
 1972 143 1972 143 1967 91 c 128,-1,28
 1962 39 1962 39 1946.5 -11 c 128,-1,29
 1931 -61 1931 -61 1903.5 -92 c 128,-1,30
 1876 -123 1876 -123 1831 -147 c 128,-1,31
 1786 -171 1786 -171 1720.5 -181.5 c 128,-1,32
 1655 -192 1655 -192 1566 -192 c 1,12,13
EndSplineSet
EndChar

StartChar: uni01CB
Encoding: 459 459 333
Width: 1967
GlyphClass: 2
Flags: W
LayerCount: 2
Fore
SplineSet
1156 208 m 1,0,-1
 1151 555 l 1,1,-1
 1151 1390 l 1,2,-1
 1307 1390 l 1,3,-1
 1307 0 l 1,4,-1
 1124 0 l 1,5,-1
 329 1181 l 1,6,-1
 334 830 l 1,7,-1
 334 0 l 1,8,-1
 178 0 l 1,9,-1
 178 1390 l 1,10,-1
 357 1390 l 1,11,-1
 1156 208 l 1,0,-1
1697 1181 m 1,12,-1
 1697 1361 l 1,13,-1
 1872 1361 l 1,14,-1
 1872 1181 l 1,15,-1
 1697 1181 l 1,12,-1
1521 -398 m 1,16,-1
 1501 -257 l 1,17,-1
 1549 -257 l 2,18,19
 1599 -257 1599 -257 1629 -249.5 c 128,-1,20
 1659 -242 1659 -242 1674 -224 c 128,-1,21
 1689 -206 1689 -206 1693.5 -185 c 128,-1,22
 1698 -164 1698 -164 1698 -127 c 2,23,-1
 1697 998 l 1,24,-1
 1872 998 l 1,25,-1
 1872 -68 l 2,26,27
 1872 -164 1872 -164 1859.5 -223.5 c 128,-1,28
 1847 -283 1847 -283 1813 -324 c 128,-1,29
 1779 -365 1779 -365 1721 -381.5 c 128,-1,30
 1663 -398 1663 -398 1569 -398 c 2,31,-1
 1521 -398 l 1,16,-1
EndSplineSet
EndChar

StartChar: uni01CC
Encoding: 460 460 334
Width: 1585
GlyphClass: 2
Flags: W
LayerCount: 2
Fore
SplineSet
147 0 m 1,0,-1
 147 998 l 1,1,-1
 296 998 l 1,2,-1
 315 855 l 1,3,4
 424 1019 424 1019 641 1019 c 0,5,6
 986 1019 986 1019 986 612 c 2,7,-1
 986 0 l 1,8,-1
 811 0 l 1,9,-1
 811 623 l 2,10,11
 811 754 811 754 764 821.5 c 128,-1,12
 717 889 717 889 607 889 c 0,13,14
 453 889 453 889 387.5 800 c 128,-1,15
 322 711 322 711 322 546 c 2,16,-1
 322 0 l 1,17,-1
 147 0 l 1,0,-1
1315 1181 m 1,18,-1
 1315 1361 l 1,19,-1
 1490 1361 l 1,20,-1
 1490 1181 l 1,21,-1
 1315 1181 l 1,18,-1
1139 -398 m 1,22,-1
 1119 -257 l 1,23,-1
 1167 -257 l 2,24,25
 1217 -257 1217 -257 1247 -249.5 c 128,-1,26
 1277 -242 1277 -242 1292 -224 c 128,-1,27
 1307 -206 1307 -206 1311.5 -185 c 128,-1,28
 1316 -164 1316 -164 1316 -127 c 2,29,-1
 1315 998 l 1,30,-1
 1490 998 l 1,31,-1
 1490 -68 l 2,32,33
 1490 -164 1490 -164 1477.5 -223.5 c 128,-1,34
 1465 -283 1465 -283 1431 -324 c 128,-1,35
 1397 -365 1397 -365 1339 -381.5 c 128,-1,36
 1281 -398 1281 -398 1187 -398 c 2,37,-1
 1139 -398 l 1,22,-1
EndSplineSet
EndChar

StartChar: uni01F1
Encoding: 497 497 366
Width: 2562
GlyphClass: 2
Flags: W
LayerCount: 2
Fore
SplineSet
356 1252 m 1,0,-1
 356 137 l 1,1,-1
 581 137 l 2,2,3
 848 137 848 137 988.5 282 c 128,-1,4
 1129 427 1129 427 1129 694 c 0,5,6
 1129 1252 1129 1252 554 1252 c 2,7,-1
 356 1252 l 1,0,-1
178 0 m 1,8,-1
 178 1390 l 1,9,-1
 558 1390 l 2,10,11
 728 1390 728 1390 865 1347 c 128,-1,12
 1002 1304 1002 1304 1101 1220 c 128,-1,13
 1200 1136 1200 1136 1253.5 1003 c 128,-1,14
 1307 870 1307 870 1307 698 c 0,15,16
 1307 366 1307 366 1115.5 183 c 128,-1,17
 924 0 924 0 586 0 c 2,18,-1
 178 0 l 1,8,-1
1553 1390 m 1,19,-1
 2465 1390 l 1,20,-1
 2465 1272 l 1,21,-1
 1727 138 l 1,22,-1
 2472 138 l 1,23,-1
 2466 0 l 1,24,-1
 1526 0 l 1,25,-1
 1526 124 l 1,26,-1
 2260 1252 l 1,27,-1
 1553 1252 l 1,28,-1
 1553 1390 l 1,19,-1
EndSplineSet
EndChar

StartChar: uni01F2
Encoding: 498 498 367
Width: 2212
GlyphClass: 2
Flags: W
LayerCount: 2
Fore
SplineSet
356 1252 m 1,0,-1
 356 137 l 1,1,-1
 581 137 l 2,2,3
 848 137 848 137 988.5 282 c 128,-1,4
 1129 427 1129 427 1129 694 c 0,5,6
 1129 1252 1129 1252 554 1252 c 2,7,-1
 356 1252 l 1,0,-1
178 0 m 1,8,-1
 178 1390 l 1,9,-1
 558 1390 l 2,10,11
 728 1390 728 1390 865 1347 c 128,-1,12
 1002 1304 1002 1304 1101 1220 c 128,-1,13
 1200 1136 1200 1136 1253.5 1003 c 128,-1,14
 1307 870 1307 870 1307 698 c 0,15,16
 1307 366 1307 366 1115.5 183 c 128,-1,17
 924 0 924 0 586 0 c 2,18,-1
 178 0 l 1,8,-1
1520 998 m 1,19,-1
 2187 998 l 1,20,-1
 2187 873 l 1,21,-1
 1678 120 l 1,22,-1
 2204 120 l 1,23,-1
 2204 0 l 1,24,-1
 1499 0 l 1,25,-1
 1499 117 l 1,26,-1
 2017 878 l 1,27,-1
 1520 878 l 1,28,-1
 1520 998 l 1,19,-1
EndSplineSet
EndChar

StartChar: uni01F3
Encoding: 499 499 368
Width: 1973
GlyphClass: 2
Flags: W
LayerCount: 2
Fore
SplineSet
541 -21 m 0,0,1
 336 -21 336 -21 219.5 124 c 128,-1,2
 103 269 103 269 103 504 c 0,3,4
 103 732 103 732 224.5 875.5 c 128,-1,5
 346 1019 346 1019 540 1019 c 0,6,7
 638 1019 638 1019 726 976 c 128,-1,8
 814 933 814 933 864 862 c 1,9,10
 860 928 860 928 860 1053 c 2,11,-1
 860 1395 l 1,12,-1
 1035 1409 l 1,13,-1
 1035 0 l 1,14,-1
 877 0 l 1,15,-1
 860 163 l 1,16,17
 820 76 820 76 733 27.5 c 128,-1,18
 646 -21 646 -21 541 -21 c 0,0,1
568 108 m 0,19,20
 860 108 860 108 860 482 c 0,21,22
 860 685 860 685 792.5 788 c 128,-1,23
 725 891 725 891 569 891 c 0,24,25
 428 891 428 891 352.5 786 c 128,-1,26
 277 681 277 681 277 499 c 0,27,28
 277 318 277 318 351.5 213 c 128,-1,29
 426 108 426 108 568 108 c 0,19,20
1281 998 m 1,30,-1
 1948 998 l 1,31,-1
 1948 873 l 1,32,-1
 1439 120 l 1,33,-1
 1965 120 l 1,34,-1
 1965 0 l 1,35,-1
 1260 0 l 1,36,-1
 1260 117 l 1,37,-1
 1778 878 l 1,38,-1
 1281 878 l 1,39,-1
 1281 998 l 1,30,-1
EndSplineSet
EndChar

StartChar: uni0237
Encoding: 567 567 423
Width: 417
GlyphClass: 2
Flags: W
LayerCount: 2
Fore
SplineSet
-53 -398 m 1,0,-1
 -73 -257 l 1,1,-1
 -25 -257 l 2,2,3
 26 -257 26 -257 55.5 -250.5 c 128,-1,4
 85 -244 85 -244 100 -226 c 128,-1,5
 115 -208 115 -208 119 -186 c 128,-1,6
 123 -164 123 -164 123 -122 c 2,7,-1
 123 -52 l 1,8,-1
 123 998 l 1,9,-1
 298 998 l 1,10,-1
 298 -68 l 2,11,12
 298 -164 298 -164 285.5 -223.5 c 128,-1,13
 273 -283 273 -283 239 -324 c 128,-1,14
 205 -365 205 -365 147 -381.5 c 128,-1,15
 89 -398 89 -398 -5 -398 c 2,16,-1
 -53 -398 l 1,0,-1
EndSplineSet
EndChar

StartChar: uni0259
Encoding: 601 601 424
Width: 1108
GlyphClass: 2
Flags: W
LayerCount: 2
Fore
SplineSet
751 416 m 1,0,1
 216 416 l 1,2,3
 220 264 220 264 274.5 187 c 128,-1,4
 329 110 329 110 447 110 c 0,5,6
 567 110 567 110 653 193.5 c 128,-1,7
 739 277 739 277 751 416 c 1,0,1
433 1019 m 0,8,9
 653 1019 653 1019 790 879 c 128,-1,10
 927 739 927 739 927 502 c 0,11,12
 927 274 927 274 789.5 126.5 c 128,-1,13
 652 -21 652 -21 452 -21 c 0,14,15
 262 -21 262 -21 157 105.5 c 128,-1,16
 52 232 52 232 52 445 c 0,17,18
 52 468 52 468 58 529 c 1,19,-1
 755 529 l 1,20,21
 752 696 752 696 654 791 c 128,-1,22
 556 886 556 886 408 886 c 0,23,24
 261 886 261 886 98 801 c 1,25,-1
 74 933 l 1,26,27
 216 1019 216 1019 433 1019 c 0,8,9
EndSplineSet
EndChar

StartChar: afii57929
Encoding: 700 700 425
Width: 458
GlyphClass: 2
Flags: W
LayerCount: 2
Fore
SplineSet
121 1003 m 1,0,-1
 206 1432 l 1,1,-1
 349 1432 l 1,2,-1
 227 1003 l 1,3,-1
 121 1003 l 1,0,-1
EndSplineSet
EndChar

StartChar: circumflex
Encoding: 710 710 426
Width: 728
GlyphClass: 2
Flags: W
LayerCount: 2
Fore
SplineSet
98 1138 m 1,0,-1
 268 1491 l 1,1,-1
 462 1491 l 1,2,-1
 632 1138 l 1,3,-1
 511 1138 l 1,4,-1
 364 1386 l 1,5,-1
 217 1138 l 1,6,-1
 98 1138 l 1,0,-1
EndSplineSet
EndChar

StartChar: caron
Encoding: 711 711 427
Width: 728
GlyphClass: 2
Flags: W
LayerCount: 2
Fore
SplineSet
268 1138 m 1,0,-1
 98 1491 l 1,1,-1
 217 1491 l 1,2,-1
 364 1208 l 1,3,-1
 511 1491 l 1,4,-1
 632 1491 l 1,5,-1
 462 1138 l 1,6,-1
 268 1138 l 1,0,-1
EndSplineSet
EndChar

StartChar: breve
Encoding: 728 728 428
Width: 686
GlyphClass: 2
Flags: W
LayerCount: 2
Fore
SplineSet
573 1404 m 1,0,1
 573 1294 573 1294 505 1238 c 128,-1,2
 437 1182 437 1182 343 1182 c 0,3,4
 250 1182 250 1182 183 1238 c 128,-1,5
 116 1294 116 1294 116 1404 c 1,6,-1
 222 1404 l 1,7,8
 222 1342 222 1342 256 1309 c 128,-1,9
 290 1276 290 1276 343 1276 c 128,-1,10
 396 1276 396 1276 431.5 1309 c 128,-1,11
 467 1342 467 1342 467 1404 c 1,12,-1
 573 1404 l 1,0,1
EndSplineSet
EndChar

StartChar: dotaccent
Encoding: 729 729 429
Width: 374
GlyphClass: 2
Flags: W
LayerCount: 2
Fore
SplineSet
111 1181 m 1,0,-1
 111 1361 l 1,1,-1
 264 1361 l 1,2,-1
 264 1181 l 1,3,-1
 111 1181 l 1,0,-1
EndSplineSet
EndChar

StartChar: ring
Encoding: 730 730 430
Width: 576
GlyphClass: 2
Flags: W
LayerCount: 2
Fore
SplineSet
291 1210 m 0,0,1
 326 1210 326 1210 352.5 1240 c 128,-1,2
 379 1270 379 1270 379 1312 c 0,3,4
 379 1355 379 1355 353.5 1386 c 128,-1,5
 328 1417 328 1417 291 1417 c 0,6,7
 256 1417 256 1417 228.5 1385.5 c 128,-1,8
 201 1354 201 1354 201 1312 c 0,9,10
 201 1266 201 1266 225 1238 c 128,-1,11
 249 1210 249 1210 291 1210 c 0,0,1
293 1144 m 0,12,13
 219 1144 219 1144 166.5 1190 c 128,-1,14
 114 1236 114 1236 114 1312 c 0,15,16
 114 1390 114 1390 166.5 1440.5 c 128,-1,17
 219 1491 219 1491 291 1491 c 128,-1,18
 363 1491 363 1491 415.5 1439 c 128,-1,19
 468 1387 468 1387 468 1312 c 0,20,21
 468 1236 468 1236 416 1190 c 128,-1,22
 364 1144 364 1144 293 1144 c 0,12,13
EndSplineSet
EndChar

StartChar: ogonek
Encoding: 731 731 431
Width: 536
GlyphClass: 2
Flags: W
LayerCount: 2
Fore
SplineSet
283 -381 m 0,0,1
 206 -381 206 -381 156.5 -338.5 c 128,-1,2
 107 -296 107 -296 107 -221 c 0,3,4
 107 -97 107 -97 281 5 c 1,5,-1
 385 5 l 1,6,7
 221 -116 221 -116 221 -195 c 0,8,9
 221 -229 221 -229 246 -252.5 c 128,-1,10
 271 -276 271 -276 301 -276 c 0,11,12
 353 -276 353 -276 426 -246 c 1,13,-1
 426 -352 l 1,14,15
 358 -381 358 -381 283 -381 c 0,0,1
EndSplineSet
EndChar

StartChar: tilde
Encoding: 732 732 432
Width: 805
GlyphClass: 2
Flags: W
LayerCount: 2
Fore
SplineSet
105 1175 m 1,0,1
 105 1275 105 1275 145.5 1324.5 c 128,-1,2
 186 1374 186 1374 261 1374 c 0,3,4
 311 1374 311 1374 382.5 1350.5 c 128,-1,5
 454 1327 454 1327 483.5 1313 c 128,-1,6
 513 1299 513 1299 530 1289 c 1,7,8
 547 1290 547 1290 556.5 1305.5 c 128,-1,9
 566 1321 566 1321 568 1334 c 128,-1,10
 570 1347 570 1347 572 1374 c 1,11,-1
 672 1374 l 1,12,13
 672 1175 672 1175 536 1175 c 0,14,15
 454 1175 454 1175 252 1263 c 1,16,17
 230 1262 230 1262 217 1238 c 128,-1,18
 204 1214 204 1214 202 1175 c 1,19,-1
 105 1175 l 1,0,1
EndSplineSet
EndChar

StartChar: hungarumlaut
Encoding: 733 733 433
Width: 743
GlyphClass: 2
Flags: W
LayerCount: 2
Fore
SplineSet
116 1146 m 1,0,-1
 297 1451 l 1,1,-1
 436 1451 l 1,2,-1
 207 1146 l 1,3,-1
 116 1146 l 1,0,-1
329 1146 m 1,4,-1
 512 1451 l 1,5,-1
 649 1451 l 1,6,-1
 421 1146 l 1,7,-1
 329 1146 l 1,4,-1
EndSplineSet
EndChar

StartChar: uni0307
Encoding: 775 775 434
Width: 349
GlyphClass: 2
Flags: W
LayerCount: 2
Fore
SplineSet
97 1181 m 1,0,-1
 97 1361 l 1,1,-1
 250 1361 l 1,2,-1
 250 1181 l 1,3,-1
 97 1181 l 1,0,-1
EndSplineSet
EndChar

StartChar: uni030F
Encoding: 783 783 435
Width: 738
GlyphClass: 2
Flags: W
LayerCount: 2
Fore
SplineSet
303 1146 m 1,0,-1
 76 1451 l 1,1,-1
 212 1451 l 1,2,-1
 396 1146 l 1,3,-1
 303 1146 l 1,0,-1
547 1146 m 1,4,-1
 322 1451 l 1,5,-1
 460 1451 l 1,6,-1
 640 1146 l 1,7,-1
 547 1146 l 1,4,-1
EndSplineSet
EndChar

StartChar: uni0311
Encoding: 785 785 436
Width: 648
GlyphClass: 2
Flags: W
LayerCount: 2
Fore
SplineSet
200 1182 m 1,0,1
 95 1182 l 1,2,3
 95 1293 95 1293 162.5 1355 c 128,-1,4
 230 1417 230 1417 321 1417 c 0,5,6
 413 1417 413 1417 482 1355 c 128,-1,7
 551 1293 551 1293 551 1182 c 1,8,-1
 445 1182 l 1,9,10
 445 1244 445 1244 409.5 1277 c 128,-1,11
 374 1310 374 1310 321 1310 c 128,-1,12
 268 1310 268 1310 234 1277 c 128,-1,13
 200 1244 200 1244 200 1182 c 1,0,1
EndSplineSet
EndChar

StartChar: uni031B
Encoding: 795 795 437
Width: 437
GlyphClass: 2
Flags: W
LayerCount: 2
Fore
SplineSet
190 142 m 0,0,1
 153 142 153 142 106 147 c 1,2,-1
 106 233 l 1,3,4
 113 233 113 233 128 232 c 128,-1,5
 143 231 143 231 151 231 c 0,6,7
 220 231 220 231 220 322 c 0,8,9
 220 385 220 385 193 456 c 1,10,-1
 299 456 l 1,11,12
 328 387 328 387 328 319 c 0,13,14
 328 243 328 243 292 192.5 c 128,-1,15
 256 142 256 142 190 142 c 0,0,1
EndSplineSet
EndChar

StartChar: uni0326
Encoding: 806 806 438
Width: 369
GlyphClass: 2
Flags: W
LayerCount: 2
Fore
SplineSet
57 -612 m 1,0,-1
 143 -158 l 1,1,-1
 294 -158 l 1,2,-1
 164 -612 l 1,3,-1
 57 -612 l 1,0,-1
EndSplineSet
EndChar

StartChar: tonos
Encoding: 900 900 439
Width: 425
GlyphClass: 2
Flags: W
LayerCount: 2
Fore
SplineSet
216 484 m 128,-1,1
 159 484 159 484 127 519.5 c 128,-1,2
 95 555 95 555 95 604 c 128,-1,3
 95 653 95 653 127 688.5 c 128,-1,4
 159 724 159 724 216 724 c 128,-1,5
 273 724 273 724 305 688.5 c 128,-1,6
 337 653 337 653 337 604 c 128,-1,7
 337 555 337 555 305 519.5 c 128,-1,0
 273 484 273 484 216 484 c 128,-1,1
EndSplineSet
EndChar

StartChar: dieresistonos
Encoding: 901 901 440
Width: 425
GlyphClass: 2
Flags: W
LayerCount: 2
Fore
SplineSet
216 484 m 128,-1,1
 159 484 159 484 127 519.5 c 128,-1,2
 95 555 95 555 95 604 c 128,-1,3
 95 653 95 653 127 688.5 c 128,-1,4
 159 724 159 724 216 724 c 128,-1,5
 273 724 273 724 305 688.5 c 128,-1,6
 337 653 337 653 337 604 c 128,-1,7
 337 555 337 555 305 519.5 c 128,-1,0
 273 484 273 484 216 484 c 128,-1,1
EndSplineSet
EndChar

StartChar: Alphatonos
Encoding: 902 902 441
Width: 451
GlyphClass: 2
Flags: W
LayerCount: 2
Fore
SplineSet
223 484 m 128,-1,1
 166 484 166 484 134 519.5 c 128,-1,2
 102 555 102 555 102 604 c 128,-1,3
 102 653 102 653 134 688.5 c 128,-1,4
 166 724 166 724 223 724 c 128,-1,5
 280 724 280 724 312 688.5 c 128,-1,6
 344 653 344 653 344 604 c 128,-1,7
 344 555 344 555 312 519.5 c 128,-1,0
 280 484 280 484 223 484 c 128,-1,1
EndSplineSet
EndChar

StartChar: Epsilontonos
Encoding: 904 904 442
Width: 451
GlyphClass: 2
Flags: W
LayerCount: 2
Fore
SplineSet
223 484 m 128,-1,1
 166 484 166 484 134 519.5 c 128,-1,2
 102 555 102 555 102 604 c 128,-1,3
 102 653 102 653 134 688.5 c 128,-1,4
 166 724 166 724 223 724 c 128,-1,5
 280 724 280 724 312 688.5 c 128,-1,6
 344 653 344 653 344 604 c 128,-1,7
 344 555 344 555 312 519.5 c 128,-1,0
 280 484 280 484 223 484 c 128,-1,1
EndSplineSet
EndChar

StartChar: Etatonos
Encoding: 905 905 443
Width: 451
GlyphClass: 2
Flags: W
LayerCount: 2
Fore
SplineSet
223 484 m 128,-1,1
 166 484 166 484 134 519.5 c 128,-1,2
 102 555 102 555 102 604 c 128,-1,3
 102 653 102 653 134 688.5 c 128,-1,4
 166 724 166 724 223 724 c 128,-1,5
 280 724 280 724 312 688.5 c 128,-1,6
 344 653 344 653 344 604 c 128,-1,7
 344 555 344 555 312 519.5 c 128,-1,0
 280 484 280 484 223 484 c 128,-1,1
EndSplineSet
EndChar

StartChar: Iotatonos
Encoding: 906 906 444
Width: 451
GlyphClass: 2
Flags: W
LayerCount: 2
Fore
SplineSet
223 484 m 128,-1,1
 166 484 166 484 134 519.5 c 128,-1,2
 102 555 102 555 102 604 c 128,-1,3
 102 653 102 653 134 688.5 c 128,-1,4
 166 724 166 724 223 724 c 128,-1,5
 280 724 280 724 312 688.5 c 128,-1,6
 344 653 344 653 344 604 c 128,-1,7
 344 555 344 555 312 519.5 c 128,-1,0
 280 484 280 484 223 484 c 128,-1,1
EndSplineSet
EndChar

StartChar: Omicrontonos
Encoding: 908 908 445
Width: 451
GlyphClass: 2
Flags: W
LayerCount: 2
Fore
SplineSet
223 484 m 128,-1,1
 166 484 166 484 134 519.5 c 128,-1,2
 102 555 102 555 102 604 c 128,-1,3
 102 653 102 653 134 688.5 c 128,-1,4
 166 724 166 724 223 724 c 128,-1,5
 280 724 280 724 312 688.5 c 128,-1,6
 344 653 344 653 344 604 c 128,-1,7
 344 555 344 555 312 519.5 c 128,-1,0
 280 484 280 484 223 484 c 128,-1,1
EndSplineSet
EndChar

StartChar: Upsilontonos
Encoding: 910 910 446
Width: 451
GlyphClass: 2
Flags: W
LayerCount: 2
Fore
SplineSet
223 484 m 128,-1,1
 166 484 166 484 134 519.5 c 128,-1,2
 102 555 102 555 102 604 c 128,-1,3
 102 653 102 653 134 688.5 c 128,-1,4
 166 724 166 724 223 724 c 128,-1,5
 280 724 280 724 312 688.5 c 128,-1,6
 344 653 344 653 344 604 c 128,-1,7
 344 555 344 555 312 519.5 c 128,-1,0
 280 484 280 484 223 484 c 128,-1,1
EndSplineSet
EndChar

StartChar: Omegatonos
Encoding: 911 911 447
Width: 451
GlyphClass: 2
Flags: W
LayerCount: 2
Fore
SplineSet
223 484 m 128,-1,1
 166 484 166 484 134 519.5 c 128,-1,2
 102 555 102 555 102 604 c 128,-1,3
 102 653 102 653 134 688.5 c 128,-1,4
 166 724 166 724 223 724 c 128,-1,5
 280 724 280 724 312 688.5 c 128,-1,6
 344 653 344 653 344 604 c 128,-1,7
 344 555 344 555 312 519.5 c 128,-1,0
 280 484 280 484 223 484 c 128,-1,1
EndSplineSet
EndChar

StartChar: iotadieresistonos
Encoding: 912 912 448
Width: 517
GlyphClass: 2
Flags: W
LayerCount: 2
Fore
SplineSet
230 1134 m 128,-1,1
 173 1134 173 1134 141 1169.5 c 128,-1,2
 109 1205 109 1205 109 1254 c 128,-1,3
 109 1303 109 1303 141 1338.5 c 128,-1,4
 173 1374 173 1374 230 1374 c 128,-1,5
 287 1374 287 1374 319 1338.5 c 128,-1,6
 351 1303 351 1303 351 1254 c 128,-1,7
 351 1205 351 1205 319 1169.5 c 128,-1,0
 287 1134 287 1134 230 1134 c 128,-1,1
279 484 m 128,-1,9
 222 484 222 484 190 519.5 c 128,-1,10
 158 555 158 555 158 604 c 128,-1,11
 158 653 158 653 190 688.5 c 128,-1,12
 222 724 222 724 279 724 c 128,-1,13
 336 724 336 724 368 688.5 c 128,-1,14
 400 653 400 653 400 604 c 128,-1,15
 400 555 400 555 368 519.5 c 128,-1,8
 336 484 336 484 279 484 c 128,-1,9
EndSplineSet
EndChar

StartChar: Alpha
Encoding: 913 913 449
Width: 1344
GlyphClass: 2
Flags: W
LayerCount: 2
Fore
SplineSet
474 561 m 1,0,1
 885 561 l 1,2,-1
 836 702 l 2,3,4
 787 843 787 843 734 999 c 128,-1,5
 681 1155 681 1155 672 1186 c 1,6,7
 654 1126 654 1126 474 561 c 1,0,1
1090 0 m 1,8,-1
 935 430 l 1,9,-1
 421 430 l 1,10,-1
 264 0 l 1,11,-1
 90 0 l 1,12,-1
 574 1346 l 1,13,-1
 772 1346 l 1,14,-1
 1255 0 l 1,15,-1
 1090 0 l 1,8,-1
EndSplineSet
EndChar

StartChar: Beta
Encoding: 914 914 450
Width: 1201
GlyphClass: 2
Flags: W
LayerCount: 2
Fore
SplineSet
136 0 m 1,0,-1
 136 1346 l 1,1,-1
 522 1346 l 2,2,3
 782 1346 782 1346 907 1267 c 128,-1,4
 1032 1188 1032 1188 1032 1015 c 0,5,6
 1032 989 1032 989 1029 964 c 128,-1,7
 1026 939 1026 939 1012.5 900 c 128,-1,8
 999 861 999 861 976.5 828.5 c 128,-1,9
 954 796 954 796 909.5 764 c 128,-1,10
 865 732 865 732 806 713 c 1,11,12
 941 688 941 688 1011.5 598.5 c 128,-1,13
 1082 509 1082 509 1082 383 c 0,14,15
 1082 201 1082 201 962 100.5 c 128,-1,16
 842 0 842 0 606 0 c 2,17,-1
 136 0 l 1,0,-1
294 641 m 1,18,-1
 294 129 l 1,19,-1
 575 129 l 2,20,21
 747 129 747 129 832 192.5 c 128,-1,22
 917 256 917 256 917 389 c 0,23,24
 917 528 917 528 824.5 584.5 c 128,-1,25
 732 641 732 641 537 641 c 2,26,-1
 294 641 l 1,18,-1
294 1213 m 1,27,-1
 294 767 l 1,28,-1
 582 767 l 2,29,30
 723 767 723 767 795 816 c 128,-1,31
 867 865 867 865 867 991 c 128,-1,32
 867 1117 867 1117 781.5 1165 c 128,-1,33
 696 1213 696 1213 514 1213 c 2,34,-1
 294 1213 l 1,27,-1
EndSplineSet
EndChar

StartChar: Gamma
Encoding: 915 915 451
Width: 1005
GlyphClass: 2
Flags: W
LayerCount: 2
Fore
SplineSet
298 1220 m 1,0,-1
 298 0 l 1,1,-1
 136 0 l 1,2,-1
 136 1361 l 1,3,-1
 930 1361 l 1,4,-1
 916 1220 l 1,5,-1
 298 1220 l 1,0,-1
EndSplineSet
EndChar

StartChar: Delta
Encoding: 916 916 452
Width: 1347
GlyphClass: 2
Flags: W
LayerCount: 2
Fore
SplineSet
90 0 m 1,0,-1
 590 1361 l 1,1,-1
 758 1361 l 1,2,-1
 1259 0 l 1,3,-1
 90 0 l 1,0,-1
1044 141 m 1,4,-1
 674 1188 l 1,5,-1
 309 141 l 1,6,-1
 1044 141 l 1,4,-1
EndSplineSet
EndChar

StartChar: Epsilon
Encoding: 917 917 453
Width: 1074
GlyphClass: 2
Flags: W
LayerCount: 2
Fore
SplineSet
311 1207 m 1,0,-1
 311 766 l 1,1,-1
 894 766 l 1,2,-1
 894 629 l 1,3,-1
 311 629 l 1,4,-1
 311 139 l 1,5,-1
 952 139 l 1,6,-1
 945 0 l 1,7,-1
 136 0 l 1,8,-1
 136 1346 l 1,9,-1
 952 1346 l 1,10,-1
 945 1207 l 1,11,-1
 311 1207 l 1,0,-1
EndSplineSet
EndChar

StartChar: Zeta
Encoding: 918 918 454
Width: 1159
GlyphClass: 2
Flags: W
LayerCount: 2
Fore
SplineSet
137 1346 m 1,0,-1
 1044 1346 l 1,1,-1
 1044 1228 l 1,2,-1
 308 140 l 1,3,-1
 1050 140 l 1,4,-1
 1045 0 l 1,5,-1
 111 0 l 1,6,-1
 111 124 l 1,7,-1
 843 1206 l 1,8,-1
 137 1206 l 1,9,-1
 137 1346 l 1,0,-1
EndSplineSet
EndChar

StartChar: Eta
Encoding: 919 919 455
Width: 1320
GlyphClass: 2
Flags: W
LayerCount: 2
Fore
SplineSet
1010 768 m 1,0,-1
 1010 1346 l 1,1,-1
 1185 1346 l 1,2,-1
 1185 0 l 1,3,-1
 1010 0 l 1,4,-1
 1010 630 l 1,5,-1
 311 630 l 1,6,-1
 311 0 l 1,7,-1
 136 0 l 1,8,-1
 136 1346 l 1,9,-1
 311 1346 l 1,10,-1
 311 768 l 1,11,-1
 1010 768 l 1,0,-1
EndSplineSet
EndChar

StartChar: Theta
Encoding: 920 920 456
Width: 451
GlyphClass: 2
Flags: W
LayerCount: 2
Fore
SplineSet
223 484 m 128,-1,1
 166 484 166 484 134 519.5 c 128,-1,2
 102 555 102 555 102 604 c 128,-1,3
 102 653 102 653 134 688.5 c 128,-1,4
 166 724 166 724 223 724 c 128,-1,5
 280 724 280 724 312 688.5 c 128,-1,6
 344 653 344 653 344 604 c 128,-1,7
 344 555 344 555 312 519.5 c 128,-1,0
 280 484 280 484 223 484 c 128,-1,1
EndSplineSet
EndChar

StartChar: Iota
Encoding: 921 921 457
Width: 446
GlyphClass: 2
Flags: W
LayerCount: 2
Fore
SplineSet
136 0 m 1,0,-1
 136 1346 l 1,1,-1
 311 1346 l 1,2,-1
 311 0 l 1,3,-1
 136 0 l 1,0,-1
EndSplineSet
EndChar

StartChar: Kappa
Encoding: 922 922 458
Width: 1220
GlyphClass: 2
Flags: W
LayerCount: 2
Fore
SplineSet
878 1346 m 1,0,-1
 1098 1346 l 1,1,-1
 553 743 l 1,2,-1
 1127 0 l 1,3,-1
 908 0 l 1,4,-1
 415 646 l 1,5,-1
 311 543 l 1,6,-1
 311 0 l 1,7,-1
 136 0 l 1,8,-1
 136 1346 l 1,9,-1
 311 1346 l 1,10,-1
 311 732 l 1,11,-1
 878 1346 l 1,0,-1
EndSplineSet
EndChar

StartChar: Lambda
Encoding: 923 923 459
Width: 1347
GlyphClass: 2
Flags: W
LayerCount: 2
Fore
SplineSet
1094 0 m 1,0,-1
 674 1188 l 1,1,-1
 260 0 l 1,2,-1
 90 0 l 1,3,-1
 590 1361 l 1,4,-1
 758 1361 l 1,5,-1
 1259 0 l 1,6,-1
 1094 0 l 1,0,-1
EndSplineSet
EndChar

StartChar: Mu
Encoding: 924 924 460
Width: 1611
GlyphClass: 2
Flags: W
LayerCount: 2
Fore
SplineSet
1278 1346 m 1,0,-1
 1476 1346 l 1,1,-1
 1476 0 l 1,2,-1
 1323 0 l 1,3,-1
 1323 810 l 1,4,-1
 1330 1132 l 1,5,-1
 1296 1040 l 1,6,-1
 885 83 l 1,7,-1
 731 83 l 1,8,-1
 312 1044 l 1,9,-1
 278 1136 l 1,10,-1
 289 806 l 1,11,-1
 289 0 l 1,12,-1
 136 0 l 1,13,-1
 136 1346 l 1,14,-1
 340 1346 l 1,15,-1
 807 274 l 1,16,-1
 1278 1346 l 1,0,-1
EndSplineSet
EndChar

StartChar: Nu
Encoding: 925 925 461
Width: 1378
GlyphClass: 2
Flags: W
LayerCount: 2
Fore
SplineSet
1096 219 m 1,0,1
 1090 555 l 1,2,-1
 1090 1346 l 1,3,-1
 1243 1346 l 1,4,-1
 1243 0 l 1,5,-1
 1065 0 l 1,6,7
 971 137 971 137 700 524.5 c 128,-1,8
 429 912 429 912 284 1127 c 1,9,-1
 289 786 l 1,10,-1
 289 0 l 1,11,-1
 136 0 l 1,12,-1
 136 1346 l 1,13,-1
 312 1346 l 1,14,15
 403 1215 403 1215 676 824.5 c 128,-1,16
 949 434 949 434 1096 219 c 1,0,1
EndSplineSet
EndChar

StartChar: Xi
Encoding: 926 926 462
Width: 451
GlyphClass: 2
Flags: W
LayerCount: 2
Fore
SplineSet
223 484 m 128,-1,1
 166 484 166 484 134 519.5 c 128,-1,2
 102 555 102 555 102 604 c 128,-1,3
 102 653 102 653 134 688.5 c 128,-1,4
 166 724 166 724 223 724 c 128,-1,5
 280 724 280 724 312 688.5 c 128,-1,6
 344 653 344 653 344 604 c 128,-1,7
 344 555 344 555 312 519.5 c 128,-1,0
 280 484 280 484 223 484 c 128,-1,1
EndSplineSet
EndChar

StartChar: Omicron
Encoding: 927 927 463
Width: 1511
GlyphClass: 2
Flags: W
LayerCount: 2
Fore
SplineSet
754 -20 m 0,0,1
 448 -20 448 -20 281 165 c 128,-1,2
 114 350 114 350 114 668 c 0,3,4
 114 991 114 991 283 1178.5 c 128,-1,5
 452 1366 452 1366 755 1366 c 0,6,7
 1054 1366 1054 1366 1224.5 1177 c 128,-1,8
 1395 988 1395 988 1395 667 c 0,9,10
 1395 461 1395 461 1321 307 c 128,-1,11
 1247 153 1247 153 1101 66.5 c 128,-1,12
 955 -20 955 -20 754 -20 c 0,0,1
754 118 m 128,-1,14
 909 118 909 118 1015.5 190 c 128,-1,15
 1122 262 1122 262 1171 383 c 128,-1,16
 1220 504 1220 504 1220 667 c 0,17,18
 1220 835 1220 835 1169.5 959.5 c 128,-1,19
 1119 1084 1119 1084 1013 1156 c 128,-1,20
 907 1228 907 1228 755 1228 c 0,21,22
 528 1228 528 1228 408 1075.5 c 128,-1,23
 288 923 288 923 288 667 c 0,24,25
 288 504 288 504 337 383 c 128,-1,26
 386 262 386 262 492.5 190 c 128,-1,13
 599 118 599 118 754 118 c 128,-1,14
EndSplineSet
EndChar

StartChar: Pi
Encoding: 928 928 464
Width: 1337
GlyphClass: 2
Flags: W
LayerCount: 2
Fore
SplineSet
1041 0 m 1,0,-1
 1041 1223 l 1,1,-1
 298 1223 l 1,2,-1
 298 0 l 1,3,-1
 136 0 l 1,4,-1
 136 1361 l 1,5,-1
 1202 1361 l 1,6,-1
 1202 0 l 1,7,-1
 1041 0 l 1,0,-1
EndSplineSet
EndChar

StartChar: Rho
Encoding: 929 929 465
Width: 1120
GlyphClass: 2
Flags: W
LayerCount: 2
Fore
SplineSet
136 0 m 1,0,-1
 136 1346 l 1,1,-1
 546 1346 l 2,2,3
 678 1346 678 1346 781 1306.5 c 128,-1,4
 884 1267 884 1267 947 1182.5 c 128,-1,5
 1010 1098 1010 1098 1010 979 c 0,6,7
 1010 783 1010 783 890.5 676 c 128,-1,8
 771 569 771 569 525 569 c 0,9,10
 449 569 449 569 311 581 c 1,11,-1
 311 0 l 1,12,-1
 136 0 l 1,0,-1
533 700 m 1,13,14
 694 700 694 700 764.5 768.5 c 128,-1,15
 835 837 835 837 835 976 c 0,16,17
 835 1092 835 1092 755.5 1146.5 c 128,-1,18
 676 1201 676 1201 542 1201 c 2,19,-1
 311 1201 l 1,20,-1
 311 710 l 1,21,-1
 533 700 l 1,13,14
EndSplineSet
EndChar

StartChar: Sigma
Encoding: 931 931 466
Width: 1074
GlyphClass: 2
Flags: W
LayerCount: 2
Fore
SplineSet
311 1207 m 1,0,-1
 311 766 l 1,1,-1
 894 766 l 1,2,-1
 894 629 l 1,3,-1
 311 629 l 1,4,-1
 311 139 l 1,5,-1
 952 139 l 1,6,-1
 945 0 l 1,7,-1
 136 0 l 1,8,-1
 136 1346 l 1,9,-1
 952 1346 l 1,10,-1
 945 1207 l 1,11,-1
 311 1207 l 1,0,-1
EndSplineSet
EndChar

StartChar: Tau
Encoding: 932 932 467
Width: 1147
GlyphClass: 2
Flags: W
LayerCount: 2
Fore
SplineSet
1067 1346 m 1,0,-1
 1067 1207 l 1,1,-1
 660 1207 l 1,2,-1
 660 0 l 1,3,-1
 485 0 l 1,4,-1
 485 1207 l 1,5,-1
 77 1207 l 1,6,-1
 77 1346 l 1,7,-1
 1067 1346 l 1,0,-1
EndSplineSet
EndChar

StartChar: Upsilon
Encoding: 933 933 468
Width: 1248
GlyphClass: 2
Flags: W
LayerCount: 2
Fore
SplineSet
623 683 m 1,0,-1
 1002 1346 l 1,1,-1
 1177 1346 l 1,2,-1
 711 537 l 1,3,-1
 711 0 l 1,4,-1
 536 0 l 1,5,-1
 536 533 l 1,6,-1
 70 1346 l 1,7,-1
 245 1346 l 1,8,-1
 623 683 l 1,0,-1
EndSplineSet
EndChar

StartChar: Phi
Encoding: 934 934 469
Width: 1547
GlyphClass: 2
Flags: W
LayerCount: 2
Fore
SplineSet
851 0 m 1,0,-1
 690 0 l 1,1,-1
 690 155 l 1,2,3
 504 169 504 169 371 244.5 c 128,-1,4
 238 320 238 320 173 437.5 c 128,-1,5
 108 555 108 555 108 703 c 0,6,7
 108 929 108 929 262 1073 c 128,-1,8
 416 1217 416 1217 690 1236 c 1,9,-1
 690 1361 l 1,10,-1
 851 1361 l 1,11,-1
 851 1236 l 1,12,13
 1127 1217 1127 1217 1281.5 1073.5 c 128,-1,14
 1436 930 1436 930 1436 703 c 0,15,16
 1436 592 1436 592 1398 497 c 128,-1,17
 1360 402 1360 402 1288 329 c 128,-1,18
 1216 256 1216 256 1104 210.5 c 128,-1,19
 992 165 992 165 851 155 c 1,20,-1
 851 0 l 1,0,-1
690 294 m 1,21,22
 690 1097 l 1,23,24
 490 1079 490 1079 385 974.5 c 128,-1,25
 280 870 280 870 280 703 c 0,26,27
 280 537 280 537 383 425 c 128,-1,28
 486 313 486 313 690 294 c 1,21,22
851 1097 m 1,29,-1
 851 294 l 1,30,31
 1057 313 1057 313 1160.5 424.5 c 128,-1,32
 1264 536 1264 536 1264 703 c 128,-1,33
 1264 870 1264 870 1159 974.5 c 128,-1,34
 1054 1079 1054 1079 851 1097 c 1,29,-1
EndSplineSet
EndChar

StartChar: Chi
Encoding: 935 935 470
Width: 1279
GlyphClass: 2
Flags: W
LayerCount: 2
Fore
SplineSet
733 679 m 1,0,-1
 1181 0 l 1,1,-1
 999 0 l 1,2,-1
 642 542 l 1,3,-1
 286 0 l 1,4,-1
 104 0 l 1,5,-1
 551 679 l 1,6,-1
 104 1346 l 1,7,-1
 286 1346 l 1,8,-1
 642 816 l 1,9,-1
 999 1346 l 1,10,-1
 1181 1346 l 1,11,-1
 733 679 l 1,0,-1
EndSplineSet
EndChar

StartChar: Psi
Encoding: 936 936 471
Width: 451
GlyphClass: 2
Flags: W
LayerCount: 2
Fore
SplineSet
223 484 m 128,-1,1
 166 484 166 484 134 519.5 c 128,-1,2
 102 555 102 555 102 604 c 128,-1,3
 102 653 102 653 134 688.5 c 128,-1,4
 166 724 166 724 223 724 c 128,-1,5
 280 724 280 724 312 688.5 c 128,-1,6
 344 653 344 653 344 604 c 128,-1,7
 344 555 344 555 312 519.5 c 128,-1,0
 280 484 280 484 223 484 c 128,-1,1
EndSplineSet
EndChar

StartChar: Omega
Encoding: 937 937 472
Width: 1511
GlyphClass: 2
Flags: W
LayerCount: 2
Fore
SplineSet
754 -20 m 0,0,1
 448 -20 448 -20 281 165 c 128,-1,2
 114 350 114 350 114 668 c 0,3,4
 114 991 114 991 283 1178.5 c 128,-1,5
 452 1366 452 1366 755 1366 c 0,6,7
 1054 1366 1054 1366 1224.5 1177 c 128,-1,8
 1395 988 1395 988 1395 667 c 0,9,10
 1395 461 1395 461 1321 307 c 128,-1,11
 1247 153 1247 153 1101 66.5 c 128,-1,12
 955 -20 955 -20 754 -20 c 0,0,1
754 118 m 128,-1,14
 909 118 909 118 1015.5 190 c 128,-1,15
 1122 262 1122 262 1171 383 c 128,-1,16
 1220 504 1220 504 1220 667 c 0,17,18
 1220 835 1220 835 1169.5 959.5 c 128,-1,19
 1119 1084 1119 1084 1013 1156 c 128,-1,20
 907 1228 907 1228 755 1228 c 0,21,22
 528 1228 528 1228 408 1075.5 c 128,-1,23
 288 923 288 923 288 667 c 0,24,25
 288 504 288 504 337 383 c 128,-1,26
 386 262 386 262 492.5 190 c 128,-1,13
 599 118 599 118 754 118 c 128,-1,14
EndSplineSet
EndChar

StartChar: Iotadieresis
Encoding: 938 938 473
Width: 446
GlyphClass: 2
Flags: W
LayerCount: 2
Fore
SplineSet
136 0 m 1,0,-1
 136 1346 l 1,1,-1
 311 1346 l 1,2,-1
 311 0 l 1,3,-1
 136 0 l 1,0,-1
-24 1576 m 1,4,-1
 -24 1769 l 1,5,-1
 116 1769 l 1,6,-1
 116 1576 l 1,7,-1
 -24 1576 l 1,4,-1
330 1576 m 1,8,-1
 330 1769 l 1,9,-1
 472 1769 l 1,10,-1
 472 1576 l 1,11,-1
 330 1576 l 1,8,-1
EndSplineSet
EndChar

StartChar: Upsilondieresis
Encoding: 939 939 474
Width: 1248
GlyphClass: 2
Flags: W
LayerCount: 2
Fore
SplineSet
623 683 m 1,0,-1
 1002 1346 l 1,1,-1
 1177 1346 l 1,2,-1
 711 537 l 1,3,-1
 711 0 l 1,4,-1
 536 0 l 1,5,-1
 536 533 l 1,6,-1
 70 1346 l 1,7,-1
 245 1346 l 1,8,-1
 623 683 l 1,0,-1
376 1576 m 1,9,-1
 376 1769 l 1,10,-1
 516 1769 l 1,11,-1
 516 1576 l 1,12,-1
 376 1576 l 1,9,-1
730 1576 m 1,13,-1
 730 1769 l 1,14,-1
 872 1769 l 1,15,-1
 872 1576 l 1,16,-1
 730 1576 l 1,13,-1
EndSplineSet
EndChar

StartChar: alphatonos
Encoding: 940 940 475
Width: 451
GlyphClass: 2
Flags: W
LayerCount: 2
Fore
SplineSet
223 484 m 128,-1,1
 166 484 166 484 134 519.5 c 128,-1,2
 102 555 102 555 102 604 c 128,-1,3
 102 653 102 653 134 688.5 c 128,-1,4
 166 724 166 724 223 724 c 128,-1,5
 280 724 280 724 312 688.5 c 128,-1,6
 344 653 344 653 344 604 c 128,-1,7
 344 555 344 555 312 519.5 c 128,-1,0
 280 484 280 484 223 484 c 128,-1,1
EndSplineSet
EndChar

StartChar: epsilontonos
Encoding: 941 941 476
Width: 451
GlyphClass: 2
Flags: W
LayerCount: 2
Fore
SplineSet
223 484 m 128,-1,1
 166 484 166 484 134 519.5 c 128,-1,2
 102 555 102 555 102 604 c 128,-1,3
 102 653 102 653 134 688.5 c 128,-1,4
 166 724 166 724 223 724 c 128,-1,5
 280 724 280 724 312 688.5 c 128,-1,6
 344 653 344 653 344 604 c 128,-1,7
 344 555 344 555 312 519.5 c 128,-1,0
 280 484 280 484 223 484 c 128,-1,1
EndSplineSet
EndChar

StartChar: etatonos
Encoding: 942 942 477
Width: 451
GlyphClass: 2
Flags: W
LayerCount: 2
Fore
SplineSet
223 484 m 128,-1,1
 166 484 166 484 134 519.5 c 128,-1,2
 102 555 102 555 102 604 c 128,-1,3
 102 653 102 653 134 688.5 c 128,-1,4
 166 724 166 724 223 724 c 128,-1,5
 280 724 280 724 312 688.5 c 128,-1,6
 344 653 344 653 344 604 c 128,-1,7
 344 555 344 555 312 519.5 c 128,-1,0
 280 484 280 484 223 484 c 128,-1,1
EndSplineSet
EndChar

StartChar: iotatonos
Encoding: 943 943 478
Width: 451
GlyphClass: 2
Flags: W
LayerCount: 2
Fore
SplineSet
223 484 m 128,-1,1
 166 484 166 484 134 519.5 c 128,-1,2
 102 555 102 555 102 604 c 128,-1,3
 102 653 102 653 134 688.5 c 128,-1,4
 166 724 166 724 223 724 c 128,-1,5
 280 724 280 724 312 688.5 c 128,-1,6
 344 653 344 653 344 604 c 128,-1,7
 344 555 344 555 312 519.5 c 128,-1,0
 280 484 280 484 223 484 c 128,-1,1
EndSplineSet
EndChar

StartChar: upsilondieresistonos
Encoding: 944 944 479
Width: 451
GlyphClass: 2
Flags: W
LayerCount: 2
Fore
SplineSet
223 484 m 128,-1,1
 166 484 166 484 134 519.5 c 128,-1,2
 102 555 102 555 102 604 c 128,-1,3
 102 653 102 653 134 688.5 c 128,-1,4
 166 724 166 724 223 724 c 128,-1,5
 280 724 280 724 312 688.5 c 128,-1,6
 344 653 344 653 344 604 c 128,-1,7
 344 555 344 555 312 519.5 c 128,-1,0
 280 484 280 484 223 484 c 128,-1,1
EndSplineSet
EndChar

StartChar: alpha
Encoding: 945 945 480
Width: 451
GlyphClass: 2
Flags: W
LayerCount: 2
Fore
SplineSet
223 484 m 128,-1,1
 166 484 166 484 134 519.5 c 128,-1,2
 102 555 102 555 102 604 c 128,-1,3
 102 653 102 653 134 688.5 c 128,-1,4
 166 724 166 724 223 724 c 128,-1,5
 280 724 280 724 312 688.5 c 128,-1,6
 344 653 344 653 344 604 c 128,-1,7
 344 555 344 555 312 519.5 c 128,-1,0
 280 484 280 484 223 484 c 128,-1,1
EndSplineSet
EndChar

StartChar: beta
Encoding: 946 946 481
Width: 451
GlyphClass: 2
Flags: W
LayerCount: 2
Fore
SplineSet
223 484 m 128,-1,1
 166 484 166 484 134 519.5 c 128,-1,2
 102 555 102 555 102 604 c 128,-1,3
 102 653 102 653 134 688.5 c 128,-1,4
 166 724 166 724 223 724 c 128,-1,5
 280 724 280 724 312 688.5 c 128,-1,6
 344 653 344 653 344 604 c 128,-1,7
 344 555 344 555 312 519.5 c 128,-1,0
 280 484 280 484 223 484 c 128,-1,1
EndSplineSet
EndChar

StartChar: gamma
Encoding: 947 947 482
Width: 451
GlyphClass: 2
Flags: W
LayerCount: 2
Fore
SplineSet
223 484 m 128,-1,1
 166 484 166 484 134 519.5 c 128,-1,2
 102 555 102 555 102 604 c 128,-1,3
 102 653 102 653 134 688.5 c 128,-1,4
 166 724 166 724 223 724 c 128,-1,5
 280 724 280 724 312 688.5 c 128,-1,6
 344 653 344 653 344 604 c 128,-1,7
 344 555 344 555 312 519.5 c 128,-1,0
 280 484 280 484 223 484 c 128,-1,1
EndSplineSet
EndChar

StartChar: delta
Encoding: 948 948 483
Width: 451
GlyphClass: 2
Flags: W
LayerCount: 2
Fore
SplineSet
223 484 m 128,-1,1
 166 484 166 484 134 519.5 c 128,-1,2
 102 555 102 555 102 604 c 128,-1,3
 102 653 102 653 134 688.5 c 128,-1,4
 166 724 166 724 223 724 c 128,-1,5
 280 724 280 724 312 688.5 c 128,-1,6
 344 653 344 653 344 604 c 128,-1,7
 344 555 344 555 312 519.5 c 128,-1,0
 280 484 280 484 223 484 c 128,-1,1
EndSplineSet
EndChar

StartChar: epsilon
Encoding: 949 949 484
Width: 451
GlyphClass: 2
Flags: W
LayerCount: 2
Fore
SplineSet
223 484 m 128,-1,1
 166 484 166 484 134 519.5 c 128,-1,2
 102 555 102 555 102 604 c 128,-1,3
 102 653 102 653 134 688.5 c 128,-1,4
 166 724 166 724 223 724 c 128,-1,5
 280 724 280 724 312 688.5 c 128,-1,6
 344 653 344 653 344 604 c 128,-1,7
 344 555 344 555 312 519.5 c 128,-1,0
 280 484 280 484 223 484 c 128,-1,1
EndSplineSet
EndChar

StartChar: zeta
Encoding: 950 950 485
Width: 451
GlyphClass: 2
Flags: W
LayerCount: 2
Fore
SplineSet
223 484 m 128,-1,1
 166 484 166 484 134 519.5 c 128,-1,2
 102 555 102 555 102 604 c 128,-1,3
 102 653 102 653 134 688.5 c 128,-1,4
 166 724 166 724 223 724 c 128,-1,5
 280 724 280 724 312 688.5 c 128,-1,6
 344 653 344 653 344 604 c 128,-1,7
 344 555 344 555 312 519.5 c 128,-1,0
 280 484 280 484 223 484 c 128,-1,1
EndSplineSet
EndChar

StartChar: eta
Encoding: 951 951 486
Width: 451
GlyphClass: 2
Flags: W
LayerCount: 2
Fore
SplineSet
223 484 m 128,-1,1
 166 484 166 484 134 519.5 c 128,-1,2
 102 555 102 555 102 604 c 128,-1,3
 102 653 102 653 134 688.5 c 128,-1,4
 166 724 166 724 223 724 c 128,-1,5
 280 724 280 724 312 688.5 c 128,-1,6
 344 653 344 653 344 604 c 128,-1,7
 344 555 344 555 312 519.5 c 128,-1,0
 280 484 280 484 223 484 c 128,-1,1
EndSplineSet
EndChar

StartChar: theta
Encoding: 952 952 487
Width: 451
GlyphClass: 2
Flags: W
LayerCount: 2
Fore
SplineSet
223 484 m 128,-1,1
 166 484 166 484 134 519.5 c 128,-1,2
 102 555 102 555 102 604 c 128,-1,3
 102 653 102 653 134 688.5 c 128,-1,4
 166 724 166 724 223 724 c 128,-1,5
 280 724 280 724 312 688.5 c 128,-1,6
 344 653 344 653 344 604 c 128,-1,7
 344 555 344 555 312 519.5 c 128,-1,0
 280 484 280 484 223 484 c 128,-1,1
EndSplineSet
EndChar

StartChar: iota
Encoding: 953 953 488
Width: 451
GlyphClass: 2
Flags: W
LayerCount: 2
Fore
SplineSet
223 484 m 128,-1,1
 166 484 166 484 134 519.5 c 128,-1,2
 102 555 102 555 102 604 c 128,-1,3
 102 653 102 653 134 688.5 c 128,-1,4
 166 724 166 724 223 724 c 128,-1,5
 280 724 280 724 312 688.5 c 128,-1,6
 344 653 344 653 344 604 c 128,-1,7
 344 555 344 555 312 519.5 c 128,-1,0
 280 484 280 484 223 484 c 128,-1,1
EndSplineSet
EndChar

StartChar: kappa
Encoding: 954 954 489
Width: 1047
GlyphClass: 2
Flags: W
LayerCount: 2
Fore
SplineSet
130 0 m 1,0,-1
 130 999 l 1,1,-1
 281 999 l 1,2,-1
 281 520 l 1,3,4
 303 544 303 544 315 557 c 0,5,6
 404 659 404 659 724 998 c 1,7,-1
 917 998 l 1,8,-1
 502 555 l 1,9,-1
 946 0 l 1,10,-1
 757 0 l 1,11,-1
 392 469 l 1,12,-1
 281 373 l 1,13,-1
 281 0 l 1,14,-1
 130 0 l 1,0,-1
EndSplineSet
EndChar

StartChar: lambda
Encoding: 955 955 490
Width: 451
GlyphClass: 2
Flags: W
LayerCount: 2
Fore
SplineSet
223 484 m 128,-1,1
 166 484 166 484 134 519.5 c 128,-1,2
 102 555 102 555 102 604 c 128,-1,3
 102 653 102 653 134 688.5 c 128,-1,4
 166 724 166 724 223 724 c 128,-1,5
 280 724 280 724 312 688.5 c 128,-1,6
 344 653 344 653 344 604 c 128,-1,7
 344 555 344 555 312 519.5 c 128,-1,0
 280 484 280 484 223 484 c 128,-1,1
EndSplineSet
EndChar

StartChar: mu
Encoding: 956 956 491
Width: 451
GlyphClass: 2
Flags: W
LayerCount: 2
Fore
SplineSet
223 484 m 128,-1,1
 166 484 166 484 134 519.5 c 128,-1,2
 102 555 102 555 102 604 c 128,-1,3
 102 653 102 653 134 688.5 c 128,-1,4
 166 724 166 724 223 724 c 128,-1,5
 280 724 280 724 312 688.5 c 128,-1,6
 344 653 344 653 344 604 c 128,-1,7
 344 555 344 555 312 519.5 c 128,-1,0
 280 484 280 484 223 484 c 128,-1,1
EndSplineSet
EndChar

StartChar: nu
Encoding: 957 957 492
Width: 451
GlyphClass: 2
Flags: W
LayerCount: 2
Fore
SplineSet
223 484 m 128,-1,1
 166 484 166 484 134 519.5 c 128,-1,2
 102 555 102 555 102 604 c 128,-1,3
 102 653 102 653 134 688.5 c 128,-1,4
 166 724 166 724 223 724 c 128,-1,5
 280 724 280 724 312 688.5 c 128,-1,6
 344 653 344 653 344 604 c 128,-1,7
 344 555 344 555 312 519.5 c 128,-1,0
 280 484 280 484 223 484 c 128,-1,1
EndSplineSet
EndChar

StartChar: xi
Encoding: 958 958 493
Width: 451
GlyphClass: 2
Flags: W
LayerCount: 2
Fore
SplineSet
223 484 m 128,-1,1
 166 484 166 484 134 519.5 c 128,-1,2
 102 555 102 555 102 604 c 128,-1,3
 102 653 102 653 134 688.5 c 128,-1,4
 166 724 166 724 223 724 c 128,-1,5
 280 724 280 724 312 688.5 c 128,-1,6
 344 653 344 653 344 604 c 128,-1,7
 344 555 344 555 312 519.5 c 128,-1,0
 280 484 280 484 223 484 c 128,-1,1
EndSplineSet
EndChar

StartChar: omicron
Encoding: 959 959 494
Width: 1152
GlyphClass: 2
Flags: W
LayerCount: 2
Fore
SplineSet
575 -21 m 128,-1,1
 364 -21 364 -21 236.5 125 c 128,-1,2
 109 271 109 271 109 499 c 0,3,4
 109 732 109 732 233.5 875.5 c 128,-1,5
 358 1019 358 1019 575 1019 c 128,-1,6
 792 1019 792 1019 916.5 875.5 c 128,-1,7
 1041 732 1041 732 1041 499 c 0,8,9
 1041 271 1041 271 913.5 125 c 128,-1,0
 786 -21 786 -21 575 -21 c 128,-1,1
575 886 m 128,-1,11
 475 886 475 886 408.5 834 c 128,-1,12
 342 782 342 782 313 697 c 128,-1,13
 284 612 284 612 284 497 c 0,14,15
 284 323 284 323 355.5 217.5 c 128,-1,16
 427 112 427 112 575 112 c 128,-1,17
 723 112 723 112 794.5 217.5 c 128,-1,18
 866 323 866 323 866 497 c 0,19,20
 866 612 866 612 837 697 c 128,-1,21
 808 782 808 782 741.5 834 c 128,-1,10
 675 886 675 886 575 886 c 128,-1,11
EndSplineSet
EndChar

StartChar: pi
Encoding: 960 960 495
Width: 1253
GlyphClass: 2
Flags: W
LayerCount: 2
Fore
SplineSet
1014 -7 m 0,0,1
 920 -7 920 -7 883 56.5 c 128,-1,2
 846 120 846 120 846 274 c 2,3,-1
 846 888 l 1,4,-1
 477 888 l 1,5,6
 448 159 448 159 364 0 c 1,7,-1
 229 0 l 1,8,9
 323 202 323 202 340 888 c 1,10,11
 201 884 201 884 118 829 c 1,12,-1
 104 958 l 1,13,14
 142 994 142 994 206 1006.5 c 128,-1,15
 270 1019 270 1019 386 1019 c 2,16,-1
 1138 1019 l 1,17,-1
 1138 888 l 1,18,-1
 972 888 l 1,19,-1
 972 284 l 2,20,21
 972 261 972 261 972.5 246.5 c 128,-1,22
 973 232 973 232 977.5 210.5 c 128,-1,23
 982 189 982 189 990 176 c 128,-1,24
 998 163 998 163 1014 153.5 c 128,-1,25
 1030 144 1030 144 1052 144 c 0,26,27
 1073 144 1073 144 1121 157 c 1,28,-1
 1121 5 l 1,29,30
 1051 -7 1051 -7 1014 -7 c 0,0,1
EndSplineSet
EndChar

StartChar: rho
Encoding: 961 961 496
Width: 1174
GlyphClass: 2
Flags: W
LayerCount: 2
Fore
SplineSet
130 998 m 1,0,-1
 288 998 l 1,1,-1
 305 835 l 1,2,3
 345 922 345 922 431.5 970.5 c 128,-1,4
 518 1019 518 1019 623 1019 c 0,5,6
 828 1019 828 1019 945 874 c 128,-1,7
 1062 729 1062 729 1062 494 c 0,8,9
 1062 269 1062 269 940 124 c 128,-1,10
 818 -21 818 -21 624 -21 c 0,11,12
 526 -21 526 -21 438 22 c 128,-1,13
 350 65 350 65 300 136 c 1,14,15
 305 53 305 53 305 -55 c 2,16,-1
 305 -423 l 1,17,-1
 130 -433 l 1,18,-1
 130 998 l 1,0,-1
596 107 m 0,19,20
 737 107 737 107 812 212 c 128,-1,21
 887 317 887 317 887 500 c 0,22,23
 887 681 887 681 813 785.5 c 128,-1,24
 739 890 739 890 597 890 c 0,25,26
 305 890 305 890 305 516 c 0,27,28
 305 313 305 313 372.5 210 c 128,-1,29
 440 107 440 107 596 107 c 0,19,20
EndSplineSet
EndChar

StartChar: sigma1
Encoding: 962 962 497
Width: 451
GlyphClass: 2
Flags: W
LayerCount: 2
Fore
SplineSet
223 484 m 128,-1,1
 166 484 166 484 134 519.5 c 128,-1,2
 102 555 102 555 102 604 c 128,-1,3
 102 653 102 653 134 688.5 c 128,-1,4
 166 724 166 724 223 724 c 128,-1,5
 280 724 280 724 312 688.5 c 128,-1,6
 344 653 344 653 344 604 c 128,-1,7
 344 555 344 555 312 519.5 c 128,-1,0
 280 484 280 484 223 484 c 128,-1,1
EndSplineSet
EndChar

StartChar: sigma
Encoding: 963 963 498
Width: 451
GlyphClass: 2
Flags: W
LayerCount: 2
Fore
SplineSet
223 484 m 128,-1,1
 166 484 166 484 134 519.5 c 128,-1,2
 102 555 102 555 102 604 c 128,-1,3
 102 653 102 653 134 688.5 c 128,-1,4
 166 724 166 724 223 724 c 128,-1,5
 280 724 280 724 312 688.5 c 128,-1,6
 344 653 344 653 344 604 c 128,-1,7
 344 555 344 555 312 519.5 c 128,-1,0
 280 484 280 484 223 484 c 128,-1,1
EndSplineSet
EndChar

StartChar: tau
Encoding: 964 964 499
Width: 451
GlyphClass: 2
Flags: W
LayerCount: 2
Fore
SplineSet
223 484 m 128,-1,1
 166 484 166 484 134 519.5 c 128,-1,2
 102 555 102 555 102 604 c 128,-1,3
 102 653 102 653 134 688.5 c 128,-1,4
 166 724 166 724 223 724 c 128,-1,5
 280 724 280 724 312 688.5 c 128,-1,6
 344 653 344 653 344 604 c 128,-1,7
 344 555 344 555 312 519.5 c 128,-1,0
 280 484 280 484 223 484 c 128,-1,1
EndSplineSet
EndChar

StartChar: upsilon
Encoding: 965 965 500
Width: 451
GlyphClass: 2
Flags: W
LayerCount: 2
Fore
SplineSet
223 484 m 128,-1,1
 166 484 166 484 134 519.5 c 128,-1,2
 102 555 102 555 102 604 c 128,-1,3
 102 653 102 653 134 688.5 c 128,-1,4
 166 724 166 724 223 724 c 128,-1,5
 280 724 280 724 312 688.5 c 128,-1,6
 344 653 344 653 344 604 c 128,-1,7
 344 555 344 555 312 519.5 c 128,-1,0
 280 484 280 484 223 484 c 128,-1,1
EndSplineSet
EndChar

StartChar: phi
Encoding: 966 966 501
Width: 451
GlyphClass: 2
Flags: W
LayerCount: 2
Fore
SplineSet
223 484 m 128,-1,1
 166 484 166 484 134 519.5 c 128,-1,2
 102 555 102 555 102 604 c 128,-1,3
 102 653 102 653 134 688.5 c 128,-1,4
 166 724 166 724 223 724 c 128,-1,5
 280 724 280 724 312 688.5 c 128,-1,6
 344 653 344 653 344 604 c 128,-1,7
 344 555 344 555 312 519.5 c 128,-1,0
 280 484 280 484 223 484 c 128,-1,1
EndSplineSet
EndChar

StartChar: chi
Encoding: 967 967 502
Width: 1147
GlyphClass: 2
Flags: W
LayerCount: 2
Fore
SplineSet
572 623 m 1,0,-1
 840 998 l 1,1,-1
 1032 998 l 1,2,-1
 671 506 l 1,3,-1
 1041 0 l 1,4,-1
 854 0 l 1,5,-1
 573 396 l 1,6,-1
 292 0 l 1,7,-1
 108 0 l 1,8,-1
 474 508 l 1,9,-1
 122 998 l 1,10,-1
 306 998 l 1,11,-1
 572 623 l 1,0,-1
EndSplineSet
EndChar

StartChar: psi
Encoding: 968 968 503
Width: 451
GlyphClass: 2
Flags: W
LayerCount: 2
Fore
SplineSet
223 484 m 128,-1,1
 166 484 166 484 134 519.5 c 128,-1,2
 102 555 102 555 102 604 c 128,-1,3
 102 653 102 653 134 688.5 c 128,-1,4
 166 724 166 724 223 724 c 128,-1,5
 280 724 280 724 312 688.5 c 128,-1,6
 344 653 344 653 344 604 c 128,-1,7
 344 555 344 555 312 519.5 c 128,-1,0
 280 484 280 484 223 484 c 128,-1,1
EndSplineSet
EndChar

StartChar: omega
Encoding: 969 969 504
Width: 451
GlyphClass: 2
Flags: W
LayerCount: 2
Fore
SplineSet
223 484 m 128,-1,1
 166 484 166 484 134 519.5 c 128,-1,2
 102 555 102 555 102 604 c 128,-1,3
 102 653 102 653 134 688.5 c 128,-1,4
 166 724 166 724 223 724 c 128,-1,5
 280 724 280 724 312 688.5 c 128,-1,6
 344 653 344 653 344 604 c 128,-1,7
 344 555 344 555 312 519.5 c 128,-1,0
 280 484 280 484 223 484 c 128,-1,1
EndSplineSet
EndChar

StartChar: iotadieresis
Encoding: 970 970 505
Width: 697
GlyphClass: 2
Flags: W
LayerCount: 2
Fore
SplineSet
394 484 m 128,-1,1
 337 484 337 484 305 519.5 c 128,-1,2
 273 555 273 555 273 604 c 128,-1,3
 273 653 273 653 305 688.5 c 128,-1,4
 337 724 337 724 394 724 c 128,-1,5
 451 724 451 724 483 688.5 c 128,-1,6
 515 653 515 653 515 604 c 128,-1,7
 515 555 515 555 483 519.5 c 128,-1,0
 451 484 451 484 394 484 c 128,-1,1
235 1334 m 1,8,-1
 235 1141 l 1,9,-1
 95 1141 l 1,10,-1
 95 1334 l 1,11,-1
 235 1334 l 1,8,-1
590 1334 m 1,12,-1
 590 1141 l 1,13,-1
 450 1141 l 1,14,-1
 450 1334 l 1,15,-1
 590 1334 l 1,12,-1
EndSplineSet
EndChar

StartChar: upsilondieresis
Encoding: 971 971 506
Width: 451
GlyphClass: 2
Flags: W
LayerCount: 2
Fore
SplineSet
223 484 m 128,-1,1
 166 484 166 484 134 519.5 c 128,-1,2
 102 555 102 555 102 604 c 128,-1,3
 102 653 102 653 134 688.5 c 128,-1,4
 166 724 166 724 223 724 c 128,-1,5
 280 724 280 724 312 688.5 c 128,-1,6
 344 653 344 653 344 604 c 128,-1,7
 344 555 344 555 312 519.5 c 128,-1,0
 280 484 280 484 223 484 c 128,-1,1
EndSplineSet
EndChar

StartChar: omicrontonos
Encoding: 972 972 507
Width: 451
GlyphClass: 2
Flags: W
LayerCount: 2
Fore
SplineSet
223 484 m 128,-1,1
 166 484 166 484 134 519.5 c 128,-1,2
 102 555 102 555 102 604 c 128,-1,3
 102 653 102 653 134 688.5 c 128,-1,4
 166 724 166 724 223 724 c 128,-1,5
 280 724 280 724 312 688.5 c 128,-1,6
 344 653 344 653 344 604 c 128,-1,7
 344 555 344 555 312 519.5 c 128,-1,0
 280 484 280 484 223 484 c 128,-1,1
EndSplineSet
EndChar

StartChar: upsilontonos
Encoding: 973 973 508
Width: 451
GlyphClass: 2
Flags: W
LayerCount: 2
Fore
SplineSet
223 484 m 128,-1,1
 166 484 166 484 134 519.5 c 128,-1,2
 102 555 102 555 102 604 c 128,-1,3
 102 653 102 653 134 688.5 c 128,-1,4
 166 724 166 724 223 724 c 128,-1,5
 280 724 280 724 312 688.5 c 128,-1,6
 344 653 344 653 344 604 c 128,-1,7
 344 555 344 555 312 519.5 c 128,-1,0
 280 484 280 484 223 484 c 128,-1,1
EndSplineSet
EndChar

StartChar: omegatonos
Encoding: 974 974 509
Width: 451
GlyphClass: 2
Flags: W
LayerCount: 2
Fore
SplineSet
223 484 m 128,-1,1
 166 484 166 484 134 519.5 c 128,-1,2
 102 555 102 555 102 604 c 128,-1,3
 102 653 102 653 134 688.5 c 128,-1,4
 166 724 166 724 223 724 c 128,-1,5
 280 724 280 724 312 688.5 c 128,-1,6
 344 653 344 653 344 604 c 128,-1,7
 344 555 344 555 312 519.5 c 128,-1,0
 280 484 280 484 223 484 c 128,-1,1
EndSplineSet
EndChar

StartChar: uni0400
Encoding: 1024 1024 510
Width: 1067
GlyphClass: 2
Flags: W
LayerCount: 2
Fore
SplineSet
536 1576 m 1,0,-1
 242 1929 l 1,1,-1
 470 1929 l 1,2,-1
 638 1576 l 1,3,-1
 536 1576 l 1,0,-1
356 799 m 1,4,-1
 936 799 l 1,5,-1
 936 662 l 1,6,-1
 356 662 l 1,7,-1
 356 139 l 1,8,-1
 996 139 l 1,9,-1
 988 0 l 1,10,-1
 178 0 l 1,11,-1
 178 1390 l 1,12,-1
 996 1390 l 1,13,-1
 989 1251 l 1,14,-1
 356 1251 l 1,15,-1
 356 799 l 1,4,-1
EndSplineSet
EndChar

StartChar: afii10023
Encoding: 1025 1025 511
Width: 1067
GlyphClass: 2
Flags: W
LayerCount: 2
Fore
SplineSet
339 1576 m 1,0,-1
 339 1769 l 1,1,-1
 480 1769 l 1,2,-1
 480 1576 l 1,3,-1
 339 1576 l 1,0,-1
694 1576 m 1,4,-1
 694 1769 l 1,5,-1
 835 1769 l 1,6,-1
 835 1576 l 1,7,-1
 694 1576 l 1,4,-1
356 799 m 1,8,-1
 936 799 l 1,9,-1
 936 662 l 1,10,-1
 356 662 l 1,11,-1
 356 139 l 1,12,-1
 996 139 l 1,13,-1
 988 0 l 1,14,-1
 178 0 l 1,15,-1
 178 1390 l 1,16,-1
 996 1390 l 1,17,-1
 989 1251 l 1,18,-1
 356 1251 l 1,19,-1
 356 799 l 1,8,-1
EndSplineSet
EndChar

StartChar: afii10051
Encoding: 1026 1026 512
Width: 1088
GlyphClass: 2
Flags: W
LayerCount: 2
Fore
SplineSet
1049 1251 m 1,0,-1
 633 1251 l 1,1,-1
 633 0 l 1,2,-1
 454 0 l 1,3,-1
 454 1251 l 1,4,-1
 39 1251 l 1,5,-1
 39 1390 l 1,6,-1
 1049 1390 l 1,7,-1
 1049 1251 l 1,0,-1
EndSplineSet
EndChar

StartChar: afii10052
Encoding: 1027 1027 513
Width: 1047
GlyphClass: 2
Flags: W
LayerCount: 2
Fore
SplineSet
995 1205 m 1,0,-1
 334 1205 l 1,1,-1
 334 0 l 1,2,-1
 160 0 l 1,3,-1
 160 1346 l 1,4,-1
 1008 1346 l 1,5,-1
 995 1205 l 1,0,-1
EndSplineSet
EndChar

StartChar: afii10053
Encoding: 1028 1028 514
Width: 1268
GlyphClass: 2
Flags: W
LayerCount: 2
Fore
SplineSet
754 -21 m 0,0,1
 600 -21 600 -21 477.5 33 c 128,-1,2
 355 87 355 87 276 183 c 128,-1,3
 197 279 197 279 155.5 408 c 128,-1,4
 114 537 114 537 114 689 c 0,5,6
 114 835 114 835 155.5 961 c 128,-1,7
 197 1087 197 1087 276 1182.5 c 128,-1,8
 355 1278 355 1278 479.5 1333 c 128,-1,9
 604 1388 604 1388 760 1388 c 0,10,11
 1024 1388 1024 1388 1158 1269 c 1,12,-1
 1105 1138 l 1,13,14
 1044 1186 1044 1186 957 1217.5 c 128,-1,15
 870 1249 870 1249 773 1249 c 0,16,17
 675 1249 675 1249 595.5 1222 c 128,-1,18
 516 1195 516 1195 462 1148.5 c 128,-1,19
 408 1102 408 1102 369.5 1037 c 128,-1,20
 331 972 331 972 312 899.5 c 128,-1,21
 293 827 293 827 288 744 c 1,22,-1
 916 744 l 1,23,-1
 916 604 l 1,24,-1
 289 604 l 1,25,26
 299 502 299 502 333.5 414.5 c 128,-1,27
 368 327 368 327 426 260 c 128,-1,28
 484 193 484 193 570.5 155 c 128,-1,29
 657 117 657 117 763 117 c 0,30,31
 862 117 862 117 952 148 c 128,-1,32
 1042 179 1042 179 1104 226 c 1,33,-1
 1162 103 l 1,34,35
 1009 -21 1009 -21 754 -21 c 0,0,1
EndSplineSet
EndChar

StartChar: afii10054
Encoding: 1029 1029 515
Width: 1200
GlyphClass: 2
Flags: W
LayerCount: 2
Fore
SplineSet
607 -20 m 0,0,1
 445 -20 445 -20 319 13 c 128,-1,2
 193 46 193 46 119 91 c 1,3,-1
 167 222 l 1,4,5
 378 118 378 118 617 118 c 0,6,7
 915 118 915 118 915 388 c 0,8,9
 915 475 915 475 867 528.5 c 128,-1,10
 819 582 819 582 695 614 c 2,11,-1
 428 682 l 1,12,13
 121 759 121 759 121 1009 c 0,14,15
 121 1106 121 1106 156 1176 c 128,-1,16
 191 1246 191 1246 258.5 1287 c 128,-1,17
 326 1328 326 1328 414 1347 c 128,-1,18
 502 1366 502 1366 618 1366 c 0,19,20
 884 1366 884 1366 1025 1278 c 1,21,-1
 979 1155 l 1,22,23
 828 1228 828 1228 623 1228 c 0,24,25
 454 1228 454 1228 371 1179.5 c 128,-1,26
 288 1131 288 1131 288 1020 c 0,27,28
 288 942 288 942 337 895.5 c 128,-1,29
 386 849 386 849 487 824 c 2,30,-1
 743 763 l 2,31,32
 908 723 908 723 995 637 c 128,-1,33
 1082 551 1082 551 1082 393 c 0,34,35
 1082 188 1082 188 953.5 84 c 128,-1,36
 825 -20 825 -20 607 -20 c 0,0,1
EndSplineSet
EndChar

StartChar: afii10055
Encoding: 1030 1030 516
Width: 432
GlyphClass: 2
Flags: W
LayerCount: 2
Fore
SplineSet
136 0 m 1,0,-1
 136 1362 l 1,1,-1
 297 1362 l 1,2,-1
 297 0 l 1,3,-1
 136 0 l 1,0,-1
EndSplineSet
EndChar

StartChar: afii10056
Encoding: 1031 1031 517
Width: 432
GlyphClass: 2
Flags: W
LayerCount: 2
Fore
SplineSet
136 0 m 1,0,-1
 136 1362 l 1,1,-1
 297 1362 l 1,2,-1
 297 0 l 1,3,-1
 136 0 l 1,0,-1
-32 1576 m 1,4,-1
 -32 1769 l 1,5,-1
 110 1769 l 1,6,-1
 110 1576 l 1,7,-1
 -32 1576 l 1,4,-1
324 1576 m 1,8,-1
 324 1769 l 1,9,-1
 464 1769 l 1,10,-1
 464 1576 l 1,11,-1
 324 1576 l 1,8,-1
EndSplineSet
EndChar

StartChar: afii10057
Encoding: 1032 1032 518
Width: 632
GlyphClass: 2
Flags: W
LayerCount: 2
Fore
SplineSet
100 -195 m 1,0,-1
 81 -45 l 1,1,-1
 148 -45 l 2,2,3
 197 -45 197 -45 230 -33 c 128,-1,4
 263 -21 263 -21 281.5 -3.5 c 128,-1,5
 300 14 300 14 309.5 47 c 128,-1,6
 319 80 319 80 321 109 c 128,-1,7
 323 138 323 138 323 186 c 2,8,-1
 323 1346 l 1,9,-1
 498 1346 l 1,10,-1
 498 219 l 2,11,12
 498 143 498 143 493 90.5 c 128,-1,13
 488 38 488 38 474 -12 c 128,-1,14
 460 -62 460 -62 435 -93.5 c 128,-1,15
 410 -125 410 -125 369.5 -149.5 c 128,-1,16
 329 -174 329 -174 270.5 -184.5 c 128,-1,17
 212 -195 212 -195 132 -195 c 2,18,-1
 100 -195 l 1,0,-1
EndSplineSet
EndChar

StartChar: afii10058
Encoding: 1033 1033 519
Width: 1755
GlyphClass: 2
Flags: W
LayerCount: 2
Fore
SplineSet
78 -24 m 1,0,-1
 78 119 l 1,1,-1
 120 119 l 2,2,3
 168 119 168 119 201 131 c 128,-1,4
 234 143 234 143 252.5 160.5 c 128,-1,5
 271 178 271 178 280.5 211 c 128,-1,6
 290 244 290 244 292 272.5 c 128,-1,7
 294 301 294 301 294 349 c 2,8,-1
 294 1346 l 1,9,-1
 992 1346 l 1,10,-1
 992 793 l 1,11,-1
 1227 793 l 2,12,13
 1425 793 1425 793 1539 694.5 c 128,-1,14
 1653 596 1653 596 1653 389 c 0,15,16
 1653 197 1653 197 1539.5 98.5 c 128,-1,17
 1426 0 1426 0 1227 0 c 2,18,-1
 818 0 l 1,19,-1
 818 1205 l 1,20,-1
 468 1205 l 1,21,-1
 468 394 l 2,22,23
 468 302 468 302 461 242 c 128,-1,24
 454 182 454 182 432 127 c 128,-1,25
 410 72 410 72 370 41.5 c 128,-1,26
 330 11 330 11 264.5 -6.5 c 128,-1,27
 199 -24 199 -24 104 -24 c 2,28,-1
 78 -24 l 1,0,-1
992 652 m 1,29,-1
 992 141 l 1,30,-1
 1227 141 l 2,31,32
 1341 141 1341 141 1410 207.5 c 128,-1,33
 1479 274 1479 274 1479 392 c 0,34,35
 1479 512 1479 512 1411 582 c 128,-1,36
 1343 652 1343 652 1227 652 c 2,37,-1
 992 652 l 1,29,-1
EndSplineSet
EndChar

StartChar: afii10059
Encoding: 1034 1034 520
Width: 1853
GlyphClass: 2
Flags: W
LayerCount: 2
Fore
SplineSet
1335 653 m 2,0,1
 1120 653 l 1,2,-1
 1120 129 l 1,3,-1
 1343 129 l 2,4,5
 1627 129 1627 129 1627 392 c 0,6,7
 1627 526 1627 526 1554 589.5 c 128,-1,8
 1481 653 1481 653 1335 653 c 2,0,1
334 630 m 1,9,-1
 334 0 l 1,10,-1
 160 0 l 1,11,-1
 160 1346 l 1,12,-1
 334 1346 l 1,13,-1
 334 768 l 1,14,-1
 946 768 l 1,15,-1
 946 1346 l 1,16,-1
 1120 1346 l 1,17,-1
 1120 779 l 1,18,-1
 1340 779 l 2,19,20
 1792 779 1792 779 1792 393 c 0,21,22
 1792 0 1792 0 1334 0 c 2,23,-1
 946 0 l 1,24,-1
 946 630 l 1,25,-1
 334 630 l 1,9,-1
EndSplineSet
EndChar

StartChar: afii10060
Encoding: 1035 1035 521
Width: 1088
GlyphClass: 2
Flags: W
LayerCount: 2
Fore
SplineSet
1049 1251 m 1,0,-1
 633 1251 l 1,1,-1
 633 0 l 1,2,-1
 454 0 l 1,3,-1
 454 1251 l 1,4,-1
 39 1251 l 1,5,-1
 39 1390 l 1,6,-1
 1049 1390 l 1,7,-1
 1049 1251 l 1,0,-1
EndSplineSet
EndChar

StartChar: afii10061
Encoding: 1036 1036 522
Width: 1243
GlyphClass: 2
Flags: W
LayerCount: 2
Fore
SplineSet
334 0 m 1,0,-1
 160 0 l 1,1,-1
 160 1346 l 1,2,-1
 334 1346 l 1,3,-1
 334 739 l 1,4,-1
 881 1346 l 1,5,-1
 1101 1346 l 1,6,-1
 496 672 l 1,7,-1
 1130 0 l 1,8,-1
 895 0 l 1,9,-1
 334 607 l 1,10,-1
 334 0 l 1,0,-1
593 1576 m 1,11,-1
 763 1929 l 1,12,-1
 993 1929 l 1,13,-1
 697 1576 l 1,14,-1
 593 1576 l 1,11,-1
EndSplineSet
EndChar

StartChar: uni040D
Encoding: 1037 1037 523
Width: 1426
GlyphClass: 2
Flags: W
LayerCount: 2
Fore
SplineSet
308 219 m 1,0,1
 456 436 456 436 731.5 830.5 c 128,-1,2
 1007 1225 1007 1225 1091 1346 c 1,3,-1
 1267 1346 l 1,4,-1
 1267 0 l 1,5,-1
 1114 0 l 1,6,-1
 1114 786 l 2,7,8
 1114 894 1114 894 1119 1127 c 1,9,10
 973 911 973 911 701 521 c 128,-1,11
 429 131 429 131 339 0 c 1,12,-1
 160 0 l 1,13,-1
 160 1346 l 1,14,-1
 313 1346 l 1,15,-1
 313 555 l 2,16,17
 313 509 313 509 308 219 c 1,0,1
662 1576 m 1,18,-1
 368 1929 l 1,19,-1
 596 1929 l 1,20,-1
 764 1576 l 1,21,-1
 662 1576 l 1,18,-1
EndSplineSet
EndChar

StartChar: afii10062
Encoding: 1038 1038 524
Width: 1248
GlyphClass: 2
Flags: W
LayerCount: 2
Fore
SplineSet
255 1346 m 1,0,-1
 670 580 l 1,1,-1
 1029 1346 l 1,2,-1
 1217 1346 l 1,3,-1
 577 0 l 1,4,-1
 390 0 l 1,5,-1
 567 424 l 1,6,-1
 64 1346 l 1,7,-1
 255 1346 l 1,0,-1
869 1798 m 1,8,9
 869 1688 869 1688 801 1632 c 128,-1,10
 733 1576 733 1576 639 1576 c 0,11,12
 546 1576 546 1576 479 1632 c 128,-1,13
 412 1688 412 1688 412 1798 c 1,14,-1
 518 1798 l 1,15,16
 518 1736 518 1736 552 1703 c 128,-1,17
 586 1670 586 1670 639 1670 c 128,-1,18
 692 1670 692 1670 727.5 1703 c 128,-1,19
 763 1736 763 1736 763 1798 c 1,20,-1
 869 1798 l 1,8,9
EndSplineSet
EndChar

StartChar: afii10145
Encoding: 1039 1039 525
Width: 1327
GlyphClass: 2
Flags: W
LayerCount: 2
Fore
SplineSet
760 0 m 1,0,-1
 760 -275 l 1,1,-1
 601 -275 l 1,2,-1
 601 0 l 1,3,-1
 160 0 l 1,4,-1
 160 1346 l 1,5,-1
 334 1346 l 1,6,-1
 334 138 l 1,7,-1
 993 138 l 1,8,-1
 993 1346 l 1,9,-1
 1167 1346 l 1,10,-1
 1167 0 l 1,11,-1
 760 0 l 1,0,-1
EndSplineSet
EndChar

StartChar: afii10017
Encoding: 1040 1040 526
Width: 1224
GlyphClass: 2
Flags: W
LayerCount: 2
Fore
SplineSet
870 561 m 1,0,-1
 641 1223 l 1,1,-1
 426 561 l 1,2,-1
 870 561 l 1,0,-1
541 1390 m 1,3,-1
 743 1390 l 1,4,-1
 1246 0 l 1,5,-1
 1078 0 l 1,6,-1
 919 430 l 1,7,-1
 375 430 l 1,8,-1
 215 0 l 1,9,-1
 37 0 l 1,10,-1
 541 1390 l 1,3,-1
EndSplineSet
EndChar

StartChar: afii10018
Encoding: 1041 1041 527
Width: 1174
GlyphClass: 2
Flags: W
LayerCount: 2
Fore
SplineSet
334 653 m 1,0,-1
 334 129 l 1,1,-1
 639 129 l 2,2,3
 779 129 779 129 846.5 193 c 128,-1,4
 914 257 914 257 914 392 c 128,-1,5
 914 527 914 527 845 590 c 128,-1,6
 776 653 776 653 631 653 c 2,7,-1
 334 653 l 1,0,-1
1088 393 m 0,8,9
 1088 0 1088 0 630 0 c 2,10,-1
 160 0 l 1,11,-1
 160 1346 l 1,12,-1
 974 1346 l 1,13,-1
 974 1213 l 1,14,-1
 334 1213 l 1,15,-1
 334 779 l 1,16,-1
 636 779 l 2,17,18
 1088 779 1088 779 1088 393 c 0,8,9
EndSplineSet
EndChar

StartChar: afii10019
Encoding: 1042 1042 528
Width: 1194
GlyphClass: 2
Flags: W
LayerCount: 2
Fore
SplineSet
178 1390 m 1,0,-1
 571 1390 l 2,1,2
 835 1390 835 1390 963 1309.5 c 128,-1,3
 1091 1229 1091 1229 1091 1055 c 0,4,5
 1091 1029 1091 1029 1088 1003 c 128,-1,6
 1085 977 1085 977 1071 936 c 128,-1,7
 1057 895 1057 895 1034 861.5 c 128,-1,8
 1011 828 1011 828 966 795 c 128,-1,9
 921 762 921 762 861 743 c 1,10,11
 999 718 999 718 1070.5 628.5 c 128,-1,12
 1142 539 1142 539 1142 413 c 0,13,14
 1142 227 1142 227 1018 113.5 c 128,-1,15
 894 0 894 0 657 0 c 2,16,-1
 178 0 l 1,17,-1
 178 1390 l 1,0,-1
625 129 m 2,18,19
 796 129 796 129 885 205.5 c 128,-1,20
 974 282 974 282 974 419 c 0,21,22
 974 558 974 558 880 614.5 c 128,-1,23
 786 671 786 671 587 671 c 2,24,-1
 339 671 l 1,25,-1
 339 129 l 1,26,-1
 625 129 l 2,18,19
632 797 m 2,27,28
 773 797 773 797 848 850.5 c 128,-1,29
 923 904 923 904 923 1031 c 128,-1,30
 923 1158 923 1158 835 1207.5 c 128,-1,31
 747 1257 747 1257 563 1257 c 2,32,-1
 339 1257 l 1,33,-1
 339 797 l 1,34,-1
 632 797 l 2,27,28
EndSplineSet
EndChar

StartChar: afii10020
Encoding: 1043 1043 529
Width: 1047
GlyphClass: 2
Flags: W
LayerCount: 2
Fore
SplineSet
995 1205 m 1,0,-1
 334 1205 l 1,1,-1
 334 0 l 1,2,-1
 160 0 l 1,3,-1
 160 1346 l 1,4,-1
 1008 1346 l 1,5,-1
 995 1205 l 1,0,-1
EndSplineSet
EndChar

StartChar: afii10021
Encoding: 1044 1044 530
Width: 1368
GlyphClass: 2
Flags: W
LayerCount: 2
Fore
SplineSet
482 1205 m 1,0,-1
 482 1202 l 1,1,2
 457 957 457 957 456 938 c 0,3,4
 455 923 455 923 452 894 c 0,5,6
 415 521 415 521 390.5 369 c 128,-1,7
 366 217 366 217 317 138 c 1,8,-1
 978 138 l 1,9,-1
 978 1205 l 1,10,-1
 482 1205 l 1,0,-1
126 -275 m 1,11,-1
 -38 -275 l 1,12,-1
 -38 138 l 1,13,-1
 112 138 l 1,14,15
 156 169 156 169 183 253.5 c 128,-1,16
 210 338 210 338 232 500 c 128,-1,17
 254 662 254 662 289 1019 c 0,18,19
 312 1252 312 1252 321 1346 c 1,20,-1
 1152 1346 l 1,21,-1
 1152 138 l 1,22,-1
 1306 138 l 1,23,-1
 1306 -275 l 1,24,-1
 1145 -275 l 1,25,-1
 1145 0 l 1,26,-1
 126 0 l 1,27,-1
 126 -275 l 1,11,-1
EndSplineSet
EndChar

StartChar: afii10022
Encoding: 1045 1045 531
Width: 1067
GlyphClass: 2
Flags: W
LayerCount: 2
Fore
SplineSet
356 799 m 1,0,-1
 936 799 l 1,1,-1
 936 662 l 1,2,-1
 356 662 l 1,3,-1
 356 139 l 1,4,-1
 996 139 l 1,5,-1
 988 0 l 1,6,-1
 178 0 l 1,7,-1
 178 1390 l 1,8,-1
 996 1390 l 1,9,-1
 989 1251 l 1,10,-1
 356 1251 l 1,11,-1
 356 799 l 1,0,-1
EndSplineSet
EndChar

StartChar: afii10024
Encoding: 1046 1046 532
Width: 1851
GlyphClass: 2
Flags: W
LayerCount: 2
Fore
SplineSet
832 0 m 1,0,-1
 832 599 l 1,1,-1
 304 0 l 1,2,-1
 95 0 l 1,3,-1
 692 668 l 1,4,-1
 166 1346 l 1,5,-1
 362 1346 l 1,6,-1
 832 735 l 1,7,-1
 832 1346 l 1,8,-1
 1006 1346 l 1,9,-1
 1006 733 l 1,10,-1
 1477 1346 l 1,11,-1
 1673 1346 l 1,12,-1
 1147 668 l 1,13,-1
 1744 0 l 1,14,-1
 1535 0 l 1,15,-1
 1006 600 l 1,16,-1
 1006 0 l 1,17,-1
 832 0 l 1,0,-1
EndSplineSet
EndChar

StartChar: afii10025
Encoding: 1047 1047 533
Width: 1111
GlyphClass: 2
Flags: W
LayerCount: 2
Fore
SplineSet
991 363 m 0,0,1
 991 189 991 189 873 85.5 c 128,-1,2
 755 -18 755 -18 540 -18 c 0,3,4
 415 -18 415 -18 306.5 13.5 c 128,-1,5
 198 45 198 45 127 95 c 1,6,-1
 183 223 l 1,7,8
 241 182 241 182 337 151 c 128,-1,9
 433 120 433 120 527 120 c 0,10,11
 657 120 657 120 737 185.5 c 128,-1,12
 817 251 817 251 817 377 c 0,13,14
 817 478 817 478 745.5 552.5 c 128,-1,15
 674 627 674 627 550 627 c 2,16,-1
 425 627 l 1,17,-1
 425 770 l 1,18,-1
 545 770 l 2,19,20
 662 770 662 770 723.5 840.5 c 128,-1,21
 785 911 785 911 785 999 c 0,22,23
 785 1113 785 1113 719 1170.5 c 128,-1,24
 653 1228 653 1228 546 1228 c 0,25,26
 463 1228 463 1228 375.5 1202 c 128,-1,27
 288 1176 288 1176 218 1134 c 1,28,-1
 159 1259 l 1,29,30
 250 1313 250 1313 339 1339.5 c 128,-1,31
 428 1366 428 1366 556 1366 c 0,32,33
 645 1366 645 1366 716 1344.5 c 128,-1,34
 787 1323 787 1323 831.5 1288.5 c 128,-1,35
 876 1254 876 1254 905.5 1208 c 128,-1,36
 935 1162 935 1162 947 1117 c 128,-1,37
 959 1072 959 1072 959 1026 c 0,38,39
 959 907 959 907 895 823 c 128,-1,40
 831 739 831 739 719 706 c 1,41,42
 769 695 769 695 814 670.5 c 128,-1,43
 859 646 859 646 900.5 606 c 128,-1,44
 942 566 942 566 966.5 503 c 128,-1,45
 991 440 991 440 991 363 c 0,0,1
EndSplineSet
EndChar

StartChar: afii10026
Encoding: 1048 1048 534
Width: 1426
GlyphClass: 2
Flags: W
LayerCount: 2
Fore
SplineSet
308 219 m 1,0,1
 456 436 456 436 731.5 830.5 c 128,-1,2
 1007 1225 1007 1225 1091 1346 c 1,3,-1
 1267 1346 l 1,4,-1
 1267 0 l 1,5,-1
 1114 0 l 1,6,-1
 1114 786 l 2,7,8
 1114 894 1114 894 1119 1127 c 1,9,10
 973 911 973 911 701 521 c 128,-1,11
 429 131 429 131 339 0 c 1,12,-1
 160 0 l 1,13,-1
 160 1346 l 1,14,-1
 313 1346 l 1,15,-1
 313 555 l 2,16,17
 313 509 313 509 308 219 c 1,0,1
EndSplineSet
EndChar

StartChar: afii10027
Encoding: 1049 1049 535
Width: 1426
GlyphClass: 2
Flags: W
LayerCount: 2
Fore
SplineSet
308 219 m 1,0,1
 456 436 456 436 731.5 830.5 c 128,-1,2
 1007 1225 1007 1225 1091 1346 c 1,3,-1
 1267 1346 l 1,4,-1
 1267 0 l 1,5,-1
 1114 0 l 1,6,-1
 1114 786 l 2,7,8
 1114 894 1114 894 1119 1127 c 1,9,10
 973 911 973 911 701 521 c 128,-1,11
 429 131 429 131 339 0 c 1,12,-1
 160 0 l 1,13,-1
 160 1346 l 1,14,-1
 313 1346 l 1,15,-1
 313 555 l 2,16,17
 313 509 313 509 308 219 c 1,0,1
942 1798 m 1,18,19
 942 1688 942 1688 874 1632 c 128,-1,20
 806 1576 806 1576 712 1576 c 0,21,22
 619 1576 619 1576 552 1632 c 128,-1,23
 485 1688 485 1688 485 1798 c 1,24,-1
 591 1798 l 1,25,26
 591 1736 591 1736 625 1703 c 128,-1,27
 659 1670 659 1670 712 1670 c 128,-1,28
 765 1670 765 1670 800.5 1703 c 128,-1,29
 836 1736 836 1736 836 1798 c 1,30,-1
 942 1798 l 1,18,19
EndSplineSet
EndChar

StartChar: afii10028
Encoding: 1050 1050 536
Width: 1243
GlyphClass: 2
Flags: W
LayerCount: 2
Fore
SplineSet
334 0 m 1,0,-1
 160 0 l 1,1,-1
 160 1346 l 1,2,-1
 334 1346 l 1,3,-1
 334 739 l 1,4,-1
 881 1346 l 1,5,-1
 1101 1346 l 1,6,-1
 496 672 l 1,7,-1
 1130 0 l 1,8,-1
 895 0 l 1,9,-1
 334 607 l 1,10,-1
 334 0 l 1,0,-1
EndSplineSet
EndChar

StartChar: afii10029
Encoding: 1051 1051 537
Width: 1248
GlyphClass: 2
Flags: W
LayerCount: 2
Fore
SplineSet
914 0 m 1,0,-1
 914 1205 l 1,1,-1
 391 1205 l 1,2,3
 390 1175 390 1175 384.5 1069 c 128,-1,4
 379 963 379 963 378 939 c 0,5,6
 369 756 369 756 363.5 661.5 c 128,-1,7
 358 567 358 567 346.5 448 c 128,-1,8
 335 329 335 329 324 276.5 c 128,-1,9
 313 224 313 224 291 156.5 c 128,-1,10
 269 89 269 89 243.5 64.5 c 128,-1,11
 218 40 218 40 176.5 10.5 c 128,-1,12
 135 -19 135 -19 87 -29 c 128,-1,13
 39 -39 39 -39 -30 -46 c 1,14,-1
 -60 91 l 1,15,16
 -49 94 -49 94 -28 99 c 0,17,18
 14 109 14 109 31.5 114 c 128,-1,19
 49 119 49 119 76 138.5 c 128,-1,20
 103 158 103 158 112 177.5 c 128,-1,21
 121 197 121 197 137.5 248.5 c 128,-1,22
 154 300 154 300 159.5 354.5 c 128,-1,23
 165 409 165 409 175.5 513.5 c 128,-1,24
 186 618 186 618 192 729.5 c 128,-1,25
 198 841 198 841 207 1019 c 0,26,27
 218 1220 218 1220 224 1346 c 1,28,-1
 1088 1346 l 1,29,-1
 1088 0 l 1,30,-1
 914 0 l 1,0,-1
EndSplineSet
EndChar

StartChar: afii10030
Encoding: 1052 1052 538
Width: 1648
GlyphClass: 2
Flags: W
LayerCount: 2
Fore
SplineSet
1485 1390 m 1,0,-1
 1485 0 l 1,1,-1
 1330 0 l 1,2,-1
 1330 843 l 1,3,-1
 1337 1163 l 1,4,-1
 911 108 l 1,5,-1
 753 108 l 1,6,-1
 322 1167 l 1,7,-1
 333 839 l 1,8,-1
 333 0 l 1,9,-1
 178 0 l 1,10,-1
 178 1390 l 1,11,-1
 391 1390 l 1,12,-1
 832 305 l 1,13,-1
 1278 1390 l 1,14,-1
 1485 1390 l 1,0,-1
EndSplineSet
EndChar

StartChar: afii10031
Encoding: 1053 1053 539
Width: 1435
GlyphClass: 2
Flags: W
LayerCount: 2
Fore
SplineSet
356 766 m 1,0,-1
 1079 766 l 1,1,-1
 1079 1390 l 1,2,-1
 1257 1390 l 1,3,-1
 1257 0 l 1,4,-1
 1079 0 l 1,5,-1
 1079 634 l 1,6,-1
 356 634 l 1,7,-1
 356 0 l 1,8,-1
 178 0 l 1,9,-1
 178 1390 l 1,10,-1
 356 1390 l 1,11,-1
 356 766 l 1,0,-1
EndSplineSet
EndChar

StartChar: afii10032
Encoding: 1054 1054 540
Width: 1507
GlyphClass: 2
Flags: W
LayerCount: 2
Fore
SplineSet
1335 330 m 128,-1,1
 1260 170 1260 170 1110.5 76 c 128,-1,2
 961 -18 961 -18 757 -18 c 0,3,4
 601 -18 601 -18 476.5 35 c 128,-1,5
 352 88 352 88 270.5 183.5 c 128,-1,6
 189 279 189 279 146 410 c 128,-1,7
 103 541 103 541 103 698 c 0,8,9
 103 912 103 912 179 1072.5 c 128,-1,10
 255 1233 255 1233 404 1323 c 128,-1,11
 553 1413 553 1413 758 1413 c 0,12,13
 959 1413 959 1413 1107.5 1322.5 c 128,-1,14
 1256 1232 1256 1232 1333 1070.5 c 128,-1,15
 1410 909 1410 909 1410 697 c 0,16,0
 1410 490 1410 490 1335 330 c 128,-1,1
967 165 m 128,-1,18
 1059 210 1059 210 1116 289.5 c 128,-1,19
 1173 369 1173 369 1202 472.5 c 128,-1,20
 1231 576 1231 576 1231 697 c 0,21,22
 1231 865 1231 865 1180 993.5 c 128,-1,23
 1129 1122 1129 1122 1020.5 1198.5 c 128,-1,24
 912 1275 912 1275 758 1275 c 0,25,26
 642 1275 642 1275 550.5 1231.5 c 128,-1,27
 459 1188 459 1188 400.5 1110 c 128,-1,28
 342 1032 342 1032 312 927 c 128,-1,29
 282 822 282 822 282 697 c 0,30,31
 282 600 282 600 300 514.5 c 128,-1,32
 318 429 318 429 356 356.5 c 128,-1,33
 394 284 394 284 449.5 231.5 c 128,-1,34
 505 179 505 179 583.5 149.5 c 128,-1,35
 662 120 662 120 757 120 c 0,36,17
 875 120 875 120 967 165 c 128,-1,18
EndSplineSet
EndChar

StartChar: afii10033
Encoding: 1055 1055 541
Width: 1368
GlyphClass: 2
Flags: W
LayerCount: 2
Fore
SplineSet
334 1208 m 1,0,-1
 334 0 l 1,1,-1
 160 0 l 1,2,-1
 160 1346 l 1,3,-1
 1208 1346 l 1,4,-1
 1208 0 l 1,5,-1
 1034 0 l 1,6,-1
 1034 1208 l 1,7,-1
 334 1208 l 1,0,-1
EndSplineSet
EndChar

StartChar: afii10034
Encoding: 1056 1056 542
Width: 1166
GlyphClass: 2
Flags: W
LayerCount: 2
Fore
SplineSet
178 0 m 1,0,-1
 178 1390 l 1,1,-1
 628 1390 l 2,2,3
 833 1390 833 1390 959.5 1295.5 c 128,-1,4
 1086 1201 1086 1201 1086 1023 c 0,5,6
 1086 613 1086 613 607 613 c 0,7,8
 410 613 410 613 357 616 c 1,9,-1
 357 0 l 1,10,-1
 178 0 l 1,0,-1
615 744 m 1,11,12
 777 744 777 744 842 811.5 c 128,-1,13
 907 879 907 879 907 1020 c 0,14,15
 907 1138 907 1138 832 1195.5 c 128,-1,16
 757 1253 757 1253 624 1253 c 2,17,-1
 357 1253 l 1,18,-1
 357 746 l 1,19,-1
 615 744 l 1,11,12
EndSplineSet
EndChar

StartChar: afii10035
Encoding: 1057 1057 543
Width: 1183
GlyphClass: 2
Flags: W
LayerCount: 2
Fore
SplineSet
403.5 84 m 128,-1,1
 257 183 257 183 180 350 c 128,-1,2
 103 517 103 517 103 725 c 0,3,4
 103 928 103 928 181 1083 c 128,-1,5
 259 1238 259 1238 409 1325.5 c 128,-1,6
 559 1413 559 1413 761 1413 c 0,7,8
 993 1413 993 1413 1151 1313 c 1,9,-1
 1097 1189 l 1,10,11
 952 1275 952 1275 763 1275 c 0,12,13
 532 1275 532 1275 403.5 1120.5 c 128,-1,14
 275 966 275 966 275 719 c 0,15,16
 275 623 275 623 294.5 535 c 128,-1,17
 314 447 314 447 355 371 c 128,-1,18
 396 295 396 295 455 239.5 c 128,-1,19
 514 184 514 184 597 152 c 128,-1,20
 680 120 680 120 779 120 c 0,21,22
 945 120 945 120 1105 196 c 1,23,-1
 1131 68 l 1,24,25
 1076 34 1076 34 969 8 c 128,-1,26
 862 -18 862 -18 743 -18 c 1,27,0
 550 -15 550 -15 403.5 84 c 128,-1,1
EndSplineSet
EndChar

StartChar: afii10036
Encoding: 1058 1058 544
Width: 1088
GlyphClass: 2
Flags: W
LayerCount: 2
Fore
SplineSet
1049 1251 m 1,0,-1
 633 1251 l 1,1,-1
 633 0 l 1,2,-1
 454 0 l 1,3,-1
 454 1251 l 1,4,-1
 39 1251 l 1,5,-1
 39 1390 l 1,6,-1
 1049 1390 l 1,7,-1
 1049 1251 l 1,0,-1
EndSplineSet
EndChar

StartChar: afii10037
Encoding: 1059 1059 545
Width: 1248
GlyphClass: 2
Flags: W
LayerCount: 2
Fore
SplineSet
255 1346 m 1,0,-1
 670 580 l 1,1,-1
 1029 1346 l 1,2,-1
 1217 1346 l 1,3,-1
 577 0 l 1,4,-1
 390 0 l 1,5,-1
 567 424 l 1,6,-1
 64 1346 l 1,7,-1
 255 1346 l 1,0,-1
EndSplineSet
EndChar

StartChar: afii10038
Encoding: 1060 1060 546
Width: 1566
GlyphClass: 2
Flags: W
LayerCount: 2
Fore
SplineSet
850 0 m 1,0,-1
 702 0 l 1,1,-1
 702 116 l 1,2,3
 408 141 408 141 248.5 288.5 c 128,-1,4
 89 436 89 436 89 678 c 128,-1,5
 89 920 89 920 248.5 1067 c 128,-1,6
 408 1214 408 1214 702 1239 c 1,7,-1
 702 1361 l 1,8,-1
 850 1361 l 1,9,-1
 850 1241 l 1,10,11
 1145 1221 1145 1221 1311 1075.5 c 128,-1,12
 1477 930 1477 930 1477 678 c 128,-1,13
 1477 426 1477 426 1311 280.5 c 128,-1,14
 1145 135 1145 135 850 115 c 1,15,-1
 850 0 l 1,0,-1
702 259 m 1,16,17
 702 1097 l 1,18,19
 481 1074 481 1074 371 965 c 128,-1,20
 261 856 261 856 261 678 c 0,21,22
 261 499 261 499 371 391 c 128,-1,23
 481 283 481 283 702 259 c 1,16,17
850 1098 m 1,24,-1
 850 258 l 1,25,26
 1080 279 1080 279 1192.5 388.5 c 128,-1,27
 1305 498 1305 498 1305 678 c 128,-1,28
 1305 858 1305 858 1192.5 967.5 c 128,-1,29
 1080 1077 1080 1077 850 1098 c 1,24,-1
EndSplineSet
EndChar

StartChar: afii10039
Encoding: 1061 1061 547
Width: 1196
GlyphClass: 2
Flags: W
LayerCount: 2
Fore
SplineSet
696 709 m 1,0,-1
 1161 0 l 1,1,-1
 975 0 l 1,2,-1
 603 572 l 1,3,-1
 232 0 l 1,4,-1
 46 0 l 1,5,-1
 510 709 l 1,6,-1
 46 1390 l 1,7,-1
 232 1390 l 1,8,-1
 603 846 l 1,9,-1
 975 1390 l 1,10,-1
 1161 1390 l 1,11,-1
 696 709 l 1,0,-1
EndSplineSet
EndChar

StartChar: afii10040
Encoding: 1062 1062 548
Width: 1386
GlyphClass: 2
Flags: W
LayerCount: 2
Fore
SplineSet
1280 -275 m 1,0,-1
 1120 -275 l 1,1,-1
 1120 0 l 1,2,-1
 160 0 l 1,3,-1
 160 1346 l 1,4,-1
 334 1346 l 1,5,-1
 334 138 l 1,6,-1
 967 138 l 1,7,-1
 967 1346 l 1,8,-1
 1141 1346 l 1,9,-1
 1141 141 l 1,10,-1
 1280 141 l 1,11,-1
 1280 -275 l 1,0,-1
EndSplineSet
EndChar

StartChar: afii10041
Encoding: 1063 1063 549
Width: 1139
GlyphClass: 2
Flags: W
LayerCount: 2
Fore
SplineSet
1017 0 m 1,0,-1
 843 0 l 1,1,-1
 843 461 l 1,2,-1
 500 461 l 2,3,4
 311 461 311 461 210 557.5 c 128,-1,5
 109 654 109 654 109 834 c 2,6,-1
 109 1346 l 1,7,-1
 283 1346 l 1,8,-1
 283 866 l 2,9,10
 283 786 283 786 297.5 735 c 128,-1,11
 312 684 312 684 346 657.5 c 128,-1,12
 380 631 380 631 422.5 621.5 c 128,-1,13
 465 612 465 612 533 612 c 2,14,-1
 843 612 l 1,15,-1
 843 1346 l 1,16,-1
 1017 1346 l 1,17,-1
 1017 0 l 1,0,-1
EndSplineSet
EndChar

StartChar: afii10042
Encoding: 1064 1064 550
Width: 1525
GlyphClass: 2
Flags: W
LayerCount: 2
Fore
SplineSet
682 141 m 1,0,-1
 682 1346 l 1,1,-1
 843 1346 l 1,2,-1
 843 141 l 1,3,-1
 1228 141 l 1,4,-1
 1228 1346 l 1,5,-1
 1390 1346 l 1,6,-1
 1390 0 l 1,7,-1
 136 0 l 1,8,-1
 136 1346 l 1,9,-1
 298 1346 l 1,10,-1
 298 141 l 1,11,-1
 682 141 l 1,0,-1
EndSplineSet
EndChar

StartChar: afii10043
Encoding: 1065 1065 551
Width: 1591
GlyphClass: 2
Flags: W
LayerCount: 2
Fore
SplineSet
706 141 m 1,0,-1
 706 1346 l 1,1,-1
 867 1346 l 1,2,-1
 867 141 l 1,3,-1
 1252 141 l 1,4,-1
 1252 1346 l 1,5,-1
 1414 1346 l 1,6,-1
 1414 141 l 1,7,-1
 1515 141 l 1,8,-1
 1515 -275 l 1,9,-1
 1356 -275 l 1,10,-1
 1356 0 l 1,11,-1
 160 0 l 1,12,-1
 160 1346 l 1,13,-1
 322 1346 l 1,14,-1
 322 141 l 1,15,-1
 706 141 l 1,0,-1
EndSplineSet
EndChar

StartChar: afii10044
Encoding: 1066 1066 552
Width: 1395
GlyphClass: 2
Flags: W
LayerCount: 2
Fore
SplineSet
623 1346 m 1,0,-1
 623 773 l 1,1,-1
 814 773 l 2,2,3
 1055 773 1055 773 1183.5 677.5 c 128,-1,4
 1312 582 1312 582 1312 389 c 0,5,6
 1312 0 1312 0 817 0 c 2,7,-1
 448 0 l 1,8,-1
 448 1205 l 1,9,-1
 128 1205 l 1,10,-1
 128 1346 l 1,11,-1
 623 1346 l 1,0,-1
623 633 m 1,12,-1
 623 142 l 1,13,-1
 836 142 l 2,14,15
 925 142 925 142 984.5 158 c 128,-1,16
 1044 174 1044 174 1077 207.5 c 128,-1,17
 1110 241 1110 241 1123.5 285 c 128,-1,18
 1137 329 1137 329 1137 392 c 0,19,20
 1137 509 1137 509 1067 571 c 128,-1,21
 997 633 997 633 833 633 c 2,22,-1
 623 633 l 1,12,-1
EndSplineSet
EndChar

StartChar: afii10045
Encoding: 1067 1067 553
Width: 1032
GlyphClass: 2
Flags: W
LayerCount: 2
Fore
SplineSet
324 1346 m 1,0,-1
 324 773 l 1,1,-1
 454 773 l 2,2,3
 695 773 695 773 822 673 c 128,-1,4
 949 573 949 573 949 387 c 0,5,6
 949 205 949 205 820 102.5 c 128,-1,7
 691 0 691 0 441 0 c 2,8,-1
 149 0 l 1,9,-1
 149 1346 l 1,10,-1
 324 1346 l 1,0,-1
324 633 m 1,11,-1
 324 141 l 1,12,-1
 459 141 l 2,13,14
 627 141 627 141 700.5 200.5 c 128,-1,15
 774 260 774 260 774 383 c 0,16,17
 774 505 774 505 699.5 569 c 128,-1,18
 625 633 625 633 453 633 c 2,19,-1
 324 633 l 1,11,-1
EndSplineSet
EndChar

StartChar: afii10046
Encoding: 1068 1068 554
Width: 1431
GlyphClass: 2
Flags: W
LayerCount: 2
Fore
SplineSet
723 1346 m 1,0,-1
 723 773 l 1,1,-1
 862 773 l 2,2,3
 1101 773 1101 773 1224.5 677 c 128,-1,4
 1348 581 1348 581 1348 396 c 0,5,6
 1348 213 1348 213 1224.5 106.5 c 128,-1,7
 1101 0 1101 0 864 0 c 2,8,-1
 548 0 l 1,9,-1
 548 1346 l 1,10,-1
 723 1346 l 1,0,-1
723 633 m 1,11,-1
 723 141 l 1,12,-1
 871 141 l 2,13,14
 959 141 959 141 1019 157 c 128,-1,15
 1079 173 1079 173 1112.5 207 c 128,-1,16
 1146 241 1146 241 1159.5 285 c 128,-1,17
 1173 329 1173 329 1173 392 c 0,18,19
 1173 514 1173 514 1106 573.5 c 128,-1,20
 1039 633 1039 633 874 633 c 2,21,-1
 723 633 l 1,11,-1
149 1346 m 1,22,-1
 324 1346 l 1,23,-1
 324 0 l 1,24,-1
 149 0 l 1,25,-1
 149 1346 l 1,22,-1
EndSplineSet
EndChar

